<mxfile host="app.diagrams.net" modified="2021-04-17T17:53:57.313Z" agent="5.0 (X11; Linux x86_64) AppleWebKit/537.36 (KHTML, like Gecko) Chrome/89.0.4389.114 Safari/537.36" etag="8ILMUy5kRy14BKxk2P94" version="14.6.1" type="github">
  <diagram name="Page-1" id="b520641d-4fe3-3701-9064-5fc419738815">
    <mxGraphModel dx="1422" dy="774" grid="1" gridSize="10" guides="1" tooltips="1" connect="1" arrows="1" fold="1" page="1" pageScale="1" pageWidth="827" pageHeight="583" background="#ffffff" math="0" shadow="0">
      <root>
        <mxCell id="0" />
        <mxCell id="1" parent="0" />
        <mxCell id="Ro_wl2eX1ZjcW0Jhb9m2-42" style="edgeStyle=elbowEdgeStyle;rounded=1;orthogonalLoop=1;jettySize=auto;elbow=vertical;html=1;exitX=0.5;exitY=1;exitDx=0;exitDy=0;exitPerimeter=0;entryX=0.219;entryY=0;entryDx=0;entryDy=0;entryPerimeter=0;shadow=0;dashed=1;fontSize=16;" parent="1" target="Ro_wl2eX1ZjcW0Jhb9m2-50" edge="1">
          <mxGeometry relative="1" as="geometry">
            <mxPoint x="771" y="100" as="sourcePoint" />
            <mxPoint x="249" y="345" as="targetPoint" />
          </mxGeometry>
        </mxCell>
        <mxCell id="Ro_wl2eX1ZjcW0Jhb9m2-50" value="" style="shape=image;verticalLabelPosition=bottom;labelBackgroundColor=#ffffff;verticalAlign=top;aspect=fixed;imageAspect=0;image=data:image/png,iVBORw0KGgoAAAANSUhEUgAAAwAAAAD+CAIAAAACk/UtAAAgAElEQVR4Aex9CXhTVfp+WjEoAiowCDgD6Cg6Wn8zisMMzgj+HS3DquKGiCw6wowCKuDCIqgslUILFChQC2XpQkvL0pa2lO5NtyTd930l3fd9Sfp/kpOcnp6be3OT3KRJevLw0HPPft7vfN9971l5zeRHECAIEAQIAgQBggBBYJQhwBtU/UDDVU/a/SVp2eNFsCJY0SFA+gYdMlR/ghUVEzofghUdMlR/ghUVEzofC8CKECA64TL5W4DgmZpHCSPtpUBC60GwooWGEkCwokBC60GwooWGEkCwokBC6zHKsSIEiLZnMASM8k7DgAw1iGBFxYTOh2BFhwzVn2BFxYTOh2BFhwzVn2BFxYTOxwKwIgSITrhM/hYgeKbmUcJIeymQ0HoQrGihoQQQrCiQ0HoQrGihoQQQrCiQ0HqMcqwIAaLtGQwBo7zTMCBDDSJYUTGh8yFY0SFD9SdYUTGh8yFY0SFD9SdYUTGh87EArAgBohMuk78FCJ6peZQw0l4KJLQeBCtaaCgBBCsKJLQeBCtaaCgBBCsKJLQeoxwrQoBoewZDwCjvNAzIUIMIVlRM6HwIVnTIUP0JVlRM6HwIVnTIUP0JVlRM6HwsACtCgOiEy+RvAYJnah4ljLSXAgmtB8GKFhpKAMGKAgmtB8GKFhpKAMGKAgmtxyjHihAg2p7BEDDKOw0DMtQgghUVEzofghUdMlR/ghUVEzofghUdMlR/ghUVEzofC8CKECA64TL5W4DgmZpHCSPtpUBC60GwooWGEkCwokBC60GwooWGEkCwokBC6zHKsSIEiLZnMASM8k7DgAw1iGBFxYTOh2BFhwzVn2BFxYTOh2BFhwzVn2BFxYTOxwKwIgSITrhM/hYgeKbmUcJIeymQ0HoQrGihoQQQrCiQ0HoQrGihoQQQrCiQ0HqMcqwIAaLtGQwBo7zTMCBDDSJYUTGh8yFY0SFD9SdYUTGh8yFY0SFD9SdYUTGh87EArAgBohMuk78FCJ6peZQw0l4KJLQeBCtaaCgBBCsKJLQeBCtaaCgBBCsKJLQeoxwrQoBoewZDwCjvNAzIUIMIVlRM6HwIVnTIUP0JVlRM6HwIVnTIUP0JVlRM6HwsACtCgOiEy+RvAYJnah4ljLSXAgmtB8GKFhpKAMGKAgmtB8GKFhpKAMGKAgmtxyjHihAg2p7BEDDKOw0DMtQgghUVEzofghUdMlR/ghUVEzofghUdMlR/ghUVEzofC8DKJAhQfV1dTnZ2VGTk7YCAa97el9zczpw+7XjkiL2dHflHEDBZBByPHDl7+vQlN7dr3t63AwKiIyNzc3Lq6+qam5vpTAazvwUYFOYGYqGkvRgg1Me+3t7srKzI8PAbfn6e7u7ENpqsNSAVQxFQaxv7enthDzcR3eeBeozI/9XV1Qnx8V7u7g729ih2xE0QMF8EHOztvTw8EhMSqqurR0StSKEWgEB1dXViQgKxjeZrB0jNqQiYoG0cGQKUm5vrfvkyFSDiQxCwJATcL18uyM+3gPcxaYLRECjIzye20ZKMAGmLWgRMxDYaewqsob7e19tbLSLEkyBgkQj4XbvW0NAAx34ZHOAtyxCBIYikZQAHCzJNrBrq6/18fCxSBUijCAJqEWBvG1EV5lB/jUeAWpqbA27dUouCvZ3dsaNH3S9fvnnjRtDt22FhYbGxsUmJiWLyIwiYMAJJiYmxMTFhYWFBt2/fuH79yqVLx44epevhgf7+LS0tqBpT3RwqNjVzBh9SLgM4WJAhsGptbb0dEEDXc4htNGEbQKqmHgHObSOqhhzqoJEIUF5u7tHDh6kafvL48ateXuHh4epRJL4EAXNDIDw8/Kqn58njx6m93cHevrCgANVkzM2hYmM5Mz+ScpnxQUM5xyovN1ftIkhiG81N9Ul9NSCgj200kA4agwBFR0VRXwZnT5++GxqqATASTBAwWwRC79w5c/o0tefHCQSoMqNuzl+uaOYMblIuAzhYELdYxUZHU3sIsY1mq/Sk4qwQ0ME2omrIoQ4algD19fVRV/ycPnnyTkgIK5xIJIKAmSMQEhzsfPIk9pK77uvb39+PqjRwc6jY1MwZfEi5DOBgQVxh1dfXd93XF+sYxDaaubqT6muBgFa2EVVDrnRwcHDQgASoo6PjgqsrpuE+3t5aIESiEgQsAgGfq1cxRbh44UJHRweq1YODgxwqNpYz8yMplxkfNJQTrDo6Oi6eP491CWIbLULXSSO0Q4ClbeRcB0GGhiJA/f39bsPZj+ORI2TOS7uuQWJbEAJ3Q0Mdhp/tefH8eWwciJOXK2opWLpJuSyB4oSkEttoQWpNmsIBAmxsI6qhHNorQxEgbD+n86lTcQIBB1CRLAgCZouAQCBwPnUK/e73u3bNQIqNZqvRzaFB0VgWGmF0lktso9lqMKm4oRDQaBsNZDcMQoAEMTGolb/k5mYo2Ei+BAFzQ+DihQuodghiY6Fuj05CAJuvlcNMsQoLDUWlT2yjuakvqa8BEWCwjahx4FD3uSdA+Xl5qIafPX1aJBIZEDOSNUHArBAQiUTnnJ1RHcnLzQXqzaFio/ZCo5uUqxEiGEEfrFJTUlC5E9toVopLKmtwBBhsI1RATqahYW4cE6DOzk70ElOn48cTEhIMDhspgCBgVggkJCSccHSE78JjR492dnZyq9hQw9k49Hmpk7RsEB4cHOzs7ETP+yG20axUllTWSAjQ2UZUyzi0ORwToDvBwdCsO9jbx8bGGgk2UgxBwKwQiImORl+Hd4KDCQFCbZxGN4dGUGNZaASdyyW20awUlFR2xBBQaxs50UGqjeWSADXU10P2Y29nF3rnzohBSAomCJg8AndCQlB9aWps1PnlSlVs1F5odJNyNUIEI+iGFbGNJq+OpIImhADVNkIF5NbWcUmA0A39HleumBCcpCoEAZNE4MqlS5ADXfP21u3lCkwDSYuaSGa38bEittEk9Y9UynQRwGwjqtEc6i9nBCgnOxuacns7O7Lp3XR7FqmZySAgEAhQrcnOympubkZVnb2bQ6PAvlBuv8YstdyK8nJUysQ2moz+kYqYLgKYbSwvK4P2gUNbxxkB8vLwgErufvmy6eJKakYQMCUE3C9fhorj5eFBCBA0c8wODo0gc0FYqA7lXvP2hiImttGUlI/UxaQRQG3jNW9vqIk66CBdWm4IUF1d3ZFffwVKfuTXX8knjkl3K1I5U0IA/dA5evhwXW0t1FWtHBwaBVIuAwLa4tzb20tsoykpHKmL2SCA2cbenh6gmNrqIKrOWFpuCJAoKQl+4lxwdTUbgElFCQImgMD5336D6iMSClF1Ze/GFJt9QjKNZVCscrKyoHCJbTQBbSNVMCcEUNuYk50NVJVDW8cDeen5PzrGe+vGDXMCmNSVIDDSCNy8cQO+I319fPRURpLcpBAgtnGk1YuUb8YIGNo2ckCAGhoa0BNN4uLizBhvUnWCgNERiIuLgwTIwd6+oaHBpF7hpDI6I0Bso9GVSa8C09LSCgsLq6qq6uvrW1tbOzo6ent7u7u729vbW1pa6urqKioq8vLyUlNT9SqGJGaNgKFtIwdTYEWFhdB8O588ybppJCJBgCCgROC0kxNUoqLCQq0mZTgfFtaqdEAOtEoCI1t8WmIbTVzDk5OTU1JSsrOzJRIJOI0ddk4Gx8DAQGtra0VFRWZmZkpKiom30dyrR7WNHNoNDggQevWp99Wr5g43qT9BwPgIXPX0hAQIvR6VwQpjQRwaBSxn5kdSLgM+xDYaX5VYlgioT1FRUVtbm0wmYxAiQ9DAwEB9fX1ubi6hQSxh1yEa1TZyaHM4IEDoEe+3AwN1aCFJQhAY5QgEBgRAAhQaEsJgc+mCODQKdEWo9SflqoUFeBLbaJp6nZaWVlxc3N7ejlIfmeInlUr7+/v7+vp6e3t7VL/e3t6+vr7+/n6pVIomAVKWyWRNTU05OTlkaswQ4qbaRg5tDgcE6LqvL7Tdd0NDDQEByZMgYNkIoEe/3/DzY3in0gVxaBToilDrT8pVCwvwJLbR1NQ2JSUlNze3sbFRKpVCwclksr6+vq6urtbW1nv37uXn52dkZCQnJycqfklJScnJyZmZmUVFRTU1Na2trV1dXf39/RgTGhgYqK6uzszMTE5ONrVWm3V9qLaRQ5vDAQFCj6yOiow0a6xJ5QkCI4JARHg4/IrwuHwZmmb2Dg6NAvtCyRZ6ZqyIbRwRbaIrNC0trbS0tLOzE3IXqVTa09PT2tpaXFwsEonCw8PvavpFRUWlpqZWVFS0trb29vbCrEBPaG9vz8vLIzNidCLQwZ9qGzm0dRwQoHPOztB2ky1gOgiYJCEIxMbGQiX67exZ5teq2lAOjYLa/Ok8Sbl0yAwODhLbaDqqnZGRUV1d3dfXB+Qlk8m6u7vr6uoyMzMjIyM10R414bGxsXl5eY2NjRgN6uvrKy0tTUtLM522m3VNqLaRQ5vDAQE6evgwtN1CodCssSaVJwiMCAJJiYlQiY47ODC8U+mCODQKdEWo9SflqoUFeBLbaGhtSklJSVP8UlJSGOaesrKy6urqBgYGgFz6+/sbGxtzcnJ0oz4oG4qJiSkoKGhpaUGXBw0MDFRVVREOxIn0qbaRQ5vDAQGChtvezo6TBpNMCAKjEAFUjxjeqXRBHBoFuiLU+pNy1cICPFGZjsIubaAmgxU5eXl5hYWFZWVlVYpfeXl5cXFxXl4edWt6ZmZmXV1df3//4OAgGPiprKyMj48PCwtDqYw+brFYXFtbC4eXBgcH+/v7KysrCQfipA+gesTttDshQJwIaGQySUxMvHPnjrOz8+eff75kyZJFixZ9/PHHhw4dCggIEAgEI1MnUqquCGBKzvBaVRtEiIhaWNR6Gg0rVKa69guSbgiB5OTknJycsrKyhoaGrq4udCEzIDc9PT1NTU0VFRW5ublgT1ZGRkZNTQ0Y+5HJZK2trXl5eVFRUfrQHbVpY2JiSkpKent7YZfr6+urrKwkW8OG5KerC9UjQoB0RdGC0olEInd399WrV8+cOdPa2pqH/KysrCZNmmRra+vo6JiQkGBBjbbwpmBKDs0oS4fRXupYfUi5GCDoIypTC+++hm9eRkZGWVlZa2srxntQwIFbKpW2t7dXVlbm5eVVVVWBgRmwWT0tLS0iIkItg9HfMzw8PD8/v7u7G1apt7e3tLSUYW7O8LBZQgmoHhECZAkS1bMNp06dolIfhAXJnY8++uimTZvIUJCeUBstOabk0IaydBAiwhIobg0oc6GoTI3WkSyyoJycnJqaGnSOaXBwsK2trbKysqioKC8vr7i4uLq6ur29HUqkv7+/ra0N0BGZTNbS0pKWlsZmn5c+TCgsLKygoKBHdW+5TCbr6OjIzc21SKEYrVGoHnGrv2QKzGhC5KYgoVB49OjRMWPGYHRH7aO1tfWmTZsSExO5KZvkYkgEMCWHdpylgxAglkBxa0CZC0Vlasi+Y+F55+bmNjU1oUuYS0tLo6OjfXx8zp07d+LEiaNHjzo5OZ0/f97Pzy8hIUEikcDIQEBtbW2ZmZmGG/tBOVNERERBQQFYcjQ4OCiVShsaGjIyMixcSIZsHqpH3OovIUCGlJsB8j59+vTUqVPV0h21nvfdd9/mzZvJ7jwDiILjLDElZ36zUkMJAaJiQudjNKxQmXLcXUZNdtnZ2ei5hQ0NDeHh4adPn961a9c2ym/79u179+51dXWNi4traWkBHaCrqys3N1f/DV8oy2F2R0ZGlpWVwSOCent7KysrR43EuG8oqkeEAHGPr7nkGBMTs2DBAmzRD4/Hs7KymjZt2syZM++//34qDZo8efKlS5fMpY2jtp6YktO9vOn8jfZSxypAysUAQR9RmY7ajq1Pw9PT06urq+FoSlVVlbe39759+yjMZ5jHjh07jh49mpGRAWRRU1MjEAiYKQvnofHx8c3NzaACMpmsra0tOztbHyhGc1pUjwgBGr094cqVK3w+H6U4Y8aMee2117y9vQEod+/e/fTTTydMmGBlZQWjWVtbb9iwISkpafQCZw4tx5QcfY+ycRMiwgYlEMdoWKEyNYc+aHJ1LC0thWuKJRLJ5cuXv//++2Fkh+bh4MGDycnJYAaquLiYwx3vLKlSWFhYeno63BTW399fVVVlcviaSYVQPSIEyEyEZoBqvvXWW5DWAMeqVasih18/IhQKf/rpp4kTJ6IxbWxsgoKCDFAjkiVnCGBKzv51buSXOlYxo5EJcywXlSlnHWXUZJSVldXU1AQmktrb2319fXfu3ElDeHBvR0fH0tLSwcHB3t7enJwclqyF22jR0dEVFRWw37a0tGRlZY0a6XHZUFSPCAHiElnzymvSpEkorXniiSdiYmKoTYiPj7e1tUVjjhs3Do4SUeMTH1NAAFNyaDdZOggRYQkUtwaUuVBUpqbQx8yrDuixOgkJCQcPHsRpDv2zs7MzmIHq6OhIS0vjltmwzC0sLEwkEsEdYb29vWVlZeYlAhOpLapH3OovWQRtIiLWXI3Q0FCU0/B4vI0bN9Ilc3R0xCKfPHmSLjLxNwUEMCVnfrNSQwkBomJC52M0rFCZmkIfM6M6pKam1tTUgOGf5uZmV1fXHTt20BOeYSE7duy4dOkS2AjW1NSUlJTEkrJwHi06OvrevXugH8pksrq6OnIuog6dENUjjgkQsAX6/I9WToe2kSQsEbh+/TrGaX755Re6tN7e3lhkO3JRCR1YpuGP6pE++kjSmg4CqExNo5eZTS2ys7PhNq7U1NRDhw4N4ziMD7t37w4MDAS0o6amJiYmhnNmwzLDsLCwtLQ0uCe/ra0tLy/PbGRgMhVF9Yhb7ebpnx1aOZNBzAIrEhISgnGarVu30rXT2dkZi3z8+HG6yMTfFBBA9Uh/rSQ5mAICqExNoY+ZUR0KCgo6OzsBibl9+zb71T/btm07cOBAfHw8uByjoqLC0IcfMpOhhIQEyOR6enrILJgOnRDVI271mkyB6SCOkUkiFAofeughlNbY2NiovexCKBS+9957aEw+n+/p6Tky9SalskMAVXK6uRsGf2AXGCIwBJG0DOBgQVphhcqUXS8gsZQIFBUVgdUzvb297u7ujCM+eKCDg0N+fj5YAV1QUMBMUAwdii6Flslk1dXVRMbaIoDqEcdTYFC9tVJsmGpwcBCtnLYNI/G1QgBb2mxlZbVx48a4uDg0E6FQ6ODggC2XfuaZZ27fvo1GI25TQwDVI1S/WLp11l9uDQrL2oJoFl9nVKam1t9MvD4lJSXg4ouOjg43Nzec4zA+nz59uqGhYXBwsL29PTMz09AUhzn/sLCw7OxsqBcNDQ3kinht+x6qR9zaKzICpK0sRjL+mTNnsFMQx40bt2bNmvDwcFAtoVD4888/T58+HT0HyMrK6sMPP4yPj2euemxs7NmzZ7dt27Zhw4aNGzfu3bv31q1bIpGIORUJ5QoBTMmhxWTpsHgygeFgFu1FZcpVPxkl+UACBFZAMxIePNDNzQ2cndjU1CQSiZgJihFCU1JS4C1mZDO8Dh0Y1SNCgHQA0EKSREZGvvTSSyi5AfNc48aNmzdv3j/+8Y8pU6agM1/APXHixDNnztBBIBQKQ0NDt2zZMnXqVCzn++67b+7cuadOnYqNjaVLTvy5QgBTcux9r/HRLAgB1gqLrzMqU676ySjJp7i4GJwi2NHRcfHiRZzj0D//8MMPN27cAD1tRM6ApjIqoVDY1tYGqtTe3k7uRtW2D6N6RAiQtuhZTnyRSHTkyJFHH32UynLofKysrNauXUt3H2pCQsLu3btnz55Nl5zH491///22trY+Pj6Wg6NJtgRTcowraHy0eDKBIWAW7UVlapKdznQrBRdBDwwMeHp60hMePOSnn34SCAQmsgIakKHExMTGxkbQgTs6OvLz800Xd5OsGapHhACZpIiMVamEhITt27cz8BUsaNmyZWoPSwT13bZt2/jx47GBHywHHo9nbW39xBNP+Pn5GauVo7EcTMmx973GR7MgBFgrLL7OqExHY5/Wo83oNvi7d+/u3bt3+/btONlR93zo0CGw5qavr6+wsJA6HmN8n7i4uJqaGtD5u7u7i4qK9ABmNCZF9YgQoNHYA7A279q16+GHH8bWA2HEZezYsStWrMAuyoD5CIXC/fv3Y0mYH2fPnh0cHAxzIA5uEcCUHOMKGh8tnkxgCJhFe1GZcttbLDu35OTkjIyM+vp6IPS6urqwsLCzZ88eOHDgxx9/3LlzJ8OhiA4ODrW1tYODg11dXSO+AhqQrbi4uOrqatAWQoB06LqoHhECpAOAlpZEKBSeOXNmyZIljzzyCJW1PPjgg/Pmzdu7dy/D2M/ly5dnzJhBTcvn8x977DFsExmIdt99961duxbbdGZpyI5cezAlx973Gh/NghBgrbD4OqMyHbmeZU4lA+pTXFzc2NgIL4GH3QbMH4WFhZ0/f97e3n7//v179uz59ttv0ZEgZ2dnsHiopaVFLBYbf7yHWiJKgLq6usgIkLY9EtUjQoC0Rc9i40dHR3t7e//nP/8ZP348pDKLFi1ycXEJDQ1laHZSUtLatWuxASQ+n//2229fvnz5xo0bfn5+hw4devLJJ7HZsenTp1+/fp0hZxKkMwKYkkOjz9Jh8WQCw8Es2ovKVOeOMXoSpqSk5OXlNTQ0wKOTwVIecCEG1gE6Ojry8vJCQ0NRMrRr1y4vLy8Qs6GhQSAQUOmI8X3i4+PBoNTg4GBnZ2dBQcHokSknLUX1iBAgTiC1nEw8PT2nTZsGCZC9vb3GtoWHhz/77LMwCY/H4/P527Ztw9ZK37hx47nnnkOj8Xi8b7/9VmP+JIIOCGBKjpl7jY9mQQiwVlh8nVGZ6tAlRlWS9PT0ioqK7u5u0ElkMllHR0dpaWlaWlpWVlZ5eXlDQ0NPTw+VDMlksq6uroKCgoiIiGvXriUmJgLaJJFIRvYMaMi0kpKSwM2s4GgichuGth0b1SNCgLRFz8Lj60CAfHx8+Hw+ymxee+01gUBARcrT0xM7fvqvf/0rNRrx0R8BTMkxrqDx0eLJBIaAWbQXlan+PcRSc0hOTs7MzKyuroYDP2CYxMfH5+uvv3777bc//PDDb7/99uTJk/7+/klJSbm5uffu3evo6KCSIdhJ+vv7S0tLIQUZWYdYLIbXerS2tmZnZ1uqKA3ULlSPCAEyEMjmmq0OBOjw4cMo++HxeAwHBWHHT0+cONFckTLtemNKDk05S4dZEAKsLRZfZ1Smpt37RrJ2GRkZ1dXVUqkUjNw0NTXdvXt3586dy5cv/zfl995773311VeOjo5+fn4JCQk5OTlVVVVtbW0gOexgvb29I34JBmBdEREReXl5cD1TR0dHSUlJRkZGcnLySIJuVmWjekQIkFmJzvCV1YEAfffddxgBotssJhaLt27dikU2fJtGYwmYkkNTztJh8WQCw8Es2ovKdDT2aRZtTk1NlUgkYOxHKpVKJBI3N7c1a9ZQmI8ajxUrVvzvf/87dOjQpUuXwKrHoqIicPPowMBAZWVlZGTkyI79REZG5ubmwuEf0If7+voaGhpKSkrS09NZIESiiFE9IgSIdIghBEQikYuLy9SpUyFH2bVrF7aUZyi2yrV7924YHzj8/f1VgfjfDRs2oJHHjBmDxyDPXCCAKTn2vtf4aBaEAGuFxdcZlSkXfcTS8khOTi4tLQWjI1KptKKi4vTp0++8844asqPJa/ny5Z999tnu3bu9vb27uroGBwfb2tpSU1NHkADFxMTAK13B4BY6TNXb21tbW5ubm5uSkmJpcuW6PageEQLENbrmmZ9AIDh8+PD/+3//7/HHHx8zZgzkKFOmTHn55Ze3bdsGLwijtu/MmTMwPnDQLW0WiURPPfUUGvnxxx+nZkh89EcAU3KMK2h8tHgygSFgFu1FZap/D7G8HLKyssDoiEwma2xsdHV1XblypSaqoyH8888/T09PHxwcHBgYKC8vj4qKGhEOJBAISktLwYb8wcHB7u7u7OzsyMhIlBJJpdLm5ubCwkLCgZj7NqpHhAAxY2X5oQKB4OzZs3PmzMH2qKM0hcfjTZgwYfv27WFhYVREbty4MW7cODT+jBkzAgMDsZhJSUl79uxBo/F4vKVLl2LRyCMnCGBKjr3vNT6aBSHAWmHxdUZlykknsaRMUlJS4Obwrq6u4ODgVatWaWA3LILffvvt06dPg91kra2taWlpxidA8fHx9+7dg2u629vbBQLBnj17/vOf/+zfvz8wMBCueRocHOzo6CguLiYciKFvo3pECBADUJYf5OPjs3z5cmwPF8ZR4CO4zdTJyQle6h4XF3fs2LHXX38dy8Ha2vrVV1/97bffhEIhADEyMnLbtm3YiYh8Pv/YsWOWj/JItBBTcowraHy0eDKBIWAW7UVlOhJ9yqTLzM3NBZNfAwMDBQUFX3zxBQt6wyrK5s2b09LSwCBQZWWlkQeBxGJxXV0dnO1qa2sLDAzcsWPHh6rfxo0bT506lZ6eDseHOjs7yTgQQ2dF9YgQIAagLDwoJCTkL3/5y3333QcpDhvH1KlTjxw5IhKJ7ty5s3TpUrq7VK2trX/3u9/99a9//eCDD1asWPH000+PGzcOG2R66aWXQkJCLBzlEWoepuTY+17jo1kQAqwVFl9nVKYj1K1Mt1g4/NPa2nrp0qXFixezYjcsIr377rtnz54F9MLIK4FSU1ObmprA/nyZTNbS0uLn57dlyxYV+VH+/eSTT3755ReRSATPPWpra8vNzSVbw9T2V1SPOCZAwAbp8z9aObW1J56cIBAVFfXCCy+wYTzUODNmzPj0008nTpxIDWLv88ADD/z888+ctIVkQkUA1SN99JGkNR0EUJlSJT6afVJTU/v6+gYHB6VSaUFBwfr161kQGy2ibN26NTc318grgbKystrb2wHLl0qlNTU1Fy9e3LhxI8Z+wONHH320e/futLQ0QNTAKqi0tLTR3Dtw8igAACAASURBVCvo2o7qEbfazdM/O7RydA0g/noiEB0dvWTJEgayMm7cuIceegi73YIhvpWV1ezZs+fMmcMQBw2ytrb+5JNP1B6WqGfTSHKAAKpH+mslycEUEEBlSvo5ikBhYSEgCj09PTdv3uRw+AewpHfffffixYuAY7W3t6ekpBh0JVB4eHhRURHc7i6VSisrK48dO7Z+/Xq17AdyoJ9//jk/Px/Mlw0MDJSVlZFBILSfGNo28uCgNLAX8JG9gyg5VWCc++zfvx+98AtSk/vvv3/RokXHjx/3UfxcXV03bNiALdyBkaHj/vvv/+CDD3x9fX18fGxsbLB5LhgNOsaOHfvFF1/ExsZy3i6SIUQA1SP22gdj6qy/3A4pw/qwcVh8nVGZQkETh1gsRue/Dhw4oMXYDruoixcv/v7774uKisAgUG1tbVpamoGOBYqMjCwtLYXXdEil0rKysl9//fWTTz5hYD8g6OOPP3Z1dW1sbAT60tXVRQaBqAqC6hG39ooQICraJucTExOzYMECSEeAw9raevr06adOnaJW18/P7+WXX6aOBllZWY0dO3bOnDnOzs4w1e3bt998882JEyeqjc/n82fMmHHgwIGkpCSYhDgMgQCm5GwIBBrH4skE2lhujSCWM/OjVjijMjVEnzHfPOFUUX19PctjD9kxH2WsJUuW/Pjjj+Xl5UCaAwMDnZ2dtbW1GRkZ3K6Jjo2Nrays7Ovrg/dypKen79q1a/Xq1RrZD4jw2WefJSQkgMEqmUxGBoGovRrVI251nxAgKtom53P16lXsQi4rKysbGxsvLy+6ukZERKxYsQIb2rGysrK1taWeDyQUCl1dXTdu3Pjaa6/96U9/euKJJ5588skXX3zx7bff3rNnT0BAAF0pxJ9DBDAlZ34NU0O1ejFjyUlaDBCGR62wQmXKYVexgKzA/i+ZTFZSUrJkyRKtyI3GyMuWLdu5c2d+fj5gFVCaUqm0p6enqakpLy+PExoUHx9fV1fX398P2U9cXNzmzZtXrVrFkv2AaIcPH25oaAD17OjoIFvisR6O6hEhQBg4lv+4ZcsWbPhn3Lhxhw4dglvW1UJw+/Zt6hKfBQsWUAkQSJ6UlBQREREUFOSv+IWEhJAVP2qBNZAnpuTQarN0aPVixvLkLq20v6ejrbGu9l5VVVlJWVFRSWFBcUFBSWFRaXFJRVmlRFLb0Nze3TcAKsBduViDNDwarVxUpgbqNmaaLWAMUqk0PT1dI6HRKsLy5ct/+eWXoqIieP2WVPGDfUIqlfb29jY1NRUUFMTExOi8NigpKam+vn5gYAC0ZWBgICgo6H//+59W1AdEXrt2bWZmJiSFOTk5ZipWA1Ub1SNCgAwEsulmO2/ePIwAPfHEExrZiVAo/Pzzz7GJrZkzZ966dct0mzqKa4YpObTXLB1Ge6lj9QHlSns7WuvuVRYXFhfIGY/Gf6WlVbWNbfWN8tRYhiwfR7a9LCuJynQUd201TQcADgwMREdHa8VvmCOvWLHi8OHD8JhBmUwmkUjCw8Pj4uLQ2+bBxRT9/f1dXV3FxcVxcXHa0qC0tLTm5mapVArYT09Pz6VLlz777DMd2A9IcuXKldbWVgBLVVWVGshGsReqR4QAjbqO8Mgjj2AEaN26dWxQOHbsGJb2wQcf9PHxYZOWxDEyApiSs3zFwmgjRQga66vvlRWXsiA96lhRUXmFpLsfNkILx0i1V6tyUZkauTuZeHFA0gMDA4mJicychn3oypUrnZycWltb4fBSWVmZv7//ZcXP09MzLCysqqoKnReTyWRSqbSvr08ikcTHx7OkQVlZWR0dHaAUcOmYk5MTmyXPDPRo9+7d1dXVAJbm5mYTF5+Rq4fqESFARgZ/hIsTiUTYKA6Px9u/fz+bal25cuWxxx5DyZOVldXly5fZpCVxjIwApuRacAFFVK1ezFjmOqYd6GmrrSyhpz4lpfcaWtu7Ojvam2qqiuiHhYpKa5o6tGVBOtbZuFihMjVydzLx4iBHyc7OZk9xGGK+9dZbrq6uXV1dIOeBgYGSkhI/P79LyO/y5cseHh537twpKSlRS4NqampEIhEDDQoLC8vNzYWlDA4O1tXVOTg46Ml+Pvzww7Vr18Il2z09PSYuPiNXD9UjQoCMDP4IFycSibC1zDwe78CBA2yq5e7uTggQG6BMIQ6m5BhH0fhoZEIw0NVcXcI44VVa06Vc6qOoe2/zPQYOVFBQVlHbqQ0JMnJ7If5alYvK1BT6mOnUoaenB0BaW1u7YsUKBmbDJmj58uXe3t5QRn19fYWFhd7e3gj5wZ03b97Mzc3t7e2FAzkguVQqbWhoUHuDWEREBMacysvLd+/e/dFHHzEM7bAPSktLA9eHyWQy05GUKdQE1SNCgExBIkatAzaNxePx1q5dy6YGjo6ODz/8MDoCRKbA2OA2InEwJYfWnKVDqxczlqe2afvaqssVq5vVzWqBkZ5CSStGZ6RdtSX08RWpiiubh5EmrJrDHrWtM5rYaGlRmY5IpzLZQpuamoBEmpqavvrqKzYshy7Ohx9+GBISAnKTyWTd3d3p6emenp445VH37OPjk5qa2tbWhu7kAudTt7a2ZmZmRkdHh4WF3b17NyYmpry8HN5v2t/fn5GR8d1332m74YuBDwkEAjguZbKCG5GKoXpECNCIiGAkC3355ZdREsPj8Z566ik2i6A3btyIXRz2hz/8gSyCHklZ0peNKTn6wmbjNtZLXdrTfK+MftpLRXGKaztlWLX7GitVoQzTYWX17AaCjNVerBGDWpWLypRe8qMxpLKyEiDb0dFx5swZOnKj0X/lypVCoRBkBdhPWlralStX1LEdWj9PT0+hUNja2kqlQW1tbTk5OUKhsLKyEpzXLJPJ+vv74+Pjt2/fzsBmdAiKiIiA16OOxj5B32ZUjwgBosfJQkO++OILjACNGzfO3t4e3vGutt0hISHPPvsslvCf//wn3TZ4oVAYExMTHh4eqvhFRETEx8erzZl4GgIBTMnxF6+mZ61ezFhm7NP2tUlYsJ+C4oLCqqbe4aVIOyTFmglQQUFxUUVzj3R4WjVP7OtMTWy0tKhMDdFnzDfPrKwsuFgnOTl5+fLlGrkOFmHx4sXr16/PyckB8pXJZG1tbUlJSbQ0R1OAh4dHdHS0RCLp7u6GIz1gvxjc7SWTyTo7O4ODg7/44gsdKA5zEqFQCLfum69kDVFzVI8IATIEwiadp7e3N3YPBjgI8erVq3T1joiIWL58ObZ4iOEgxN9+++3zzz9fuHDhnDlzfv/738+aNevPf/7zW2+9tXv37sDAQLpSiD+HCGBKTn1tM/sY4aUu7WqoHJr5Kqqqa+3ulzY1NdbXVN4rpgzqFFe19Q3xmIGOuoqhtMrIJcXlNXUNUql0oLejuap0aD118T2Ni6KN0F61gGtVLipTDruKZWQFb86qq6vT9jaMZcuWff311+BCMbCTq6mpKSoqShPJ0Rx+5cqV8PDwkpKStrY29HxnwIQaGxt9fX03bdrETGV0CF21alVubi4YZOrv77cMEXPVClSPCAHiClWzyScmJuYf//gHNpZjbW395JNPnjlzhtqM69evv/rqq9jkF4/Hs7KyGjdu3EsvveTi4gJT3b59e9myZVOmTFEb/8EHH/zjH//466+/kqswIGIGcmBKrvbty+Cp1YsZy4dV2oHO2pIhllNR1wnYDUgr7W2qovCb4qJSSW19S1NjvaRCzbhRiaR22DlAfa2VQ0NEpVVN8rvC6X+s6kyT3GhpUZkaqNuYb7YVFRVgEKi3tzcxMXHlypXYGA/d4/Lly3/44Qc4JyWVSpuamsLCwjSzG9Yxrly5EhwcXFhY2NLSAhdK9/f3BwQEGIL9fPjhh5s2bUKnBc1XrIaoOapHhAAZAmFTz/Onn34aN24cxoF4PN7999+/dOlSFxeX27dvBwUFeXl5bdq0afLkydSYqA+fz1+zZk1gYODNmzdfeOEFbKAIjQncfD7/66+/JjNiBu0lmJLTvLtpvQ38Upd21ZYiE1gVzSp6oip3oK2qCIkwRJXoPCvqu1VplY2StkuQ84SKJK2qMtQ1GkurLgqtn9HSojI1aOcxx8zT09O7urqAkJqbm0+fPr1s2TI60gP933nnnQMHDty7dw+QJ6lUKpFIgoKCWHMbLSJeuXLF398/JycH1jM6Ovrrr7/WYYBHY5IjR47U19cDNOrr681RoIarM6pHhAAZDmfTzTk6OnrJkiVUagJ9xil+1BODYATMYWVlNXv27Keeegrzp3u0trZes2aNxpXXpougydcMU3LatzdNgGFf6j3o5FdBcUFFq2qLu6pcace9ofEbtaSntLSiqrQYznNVNfWq0qqa1FkzbKCo+F6HqhRVjKG/eNqhEM0uo6VFZWryHdDYFUxOTi4tLQWTPlKptKio6Lvvvlu6dCnkOlTHBx98cOrUqZqaGsB++vv7y8rKbty4oQWp0T6qn59fUVERqGdTU9Nvv/328ccfayQ0WkVYtWpVcHAwnBMsLi42tjBMuzxUjwgBMm1ZGax2oaGhzz//PB1BYfafNm3a6tWrJ0yYwByNOXTcuHEHDx40WPtGe8aYkmt+jQ+PYciX+kA7Tm6KatqVu9yV5Uq76pAJMioBKq0EU1oDHRLlZvjSqhbFDNjQVRg9dWXDExZWNipPixneVvmTIdtLLW3IR6tyUZmO9v6trv2pqanwLpS+vr7ExMStW7fS3Y26atWqc+fONTY2AvbT19dXUlLi4+OjPaXRLsXly5djY2Ph9fXx8fGcDwL997//hRwLbLBXh9bo9UP1iFvdJ7fBm1OvCgoK+tOf/sR+mAcQmkcfffTQoUMikSgkJOT111/HLpaHpMfa2nrixInPPffcihUrbG1tZ8yYwefzsdmxefPmhYaGmhNk5lNXTMmHXrnsXFq9mLEsNaTtbaik7nsvrmrtla8CUqRtaJcgS5ipkQuGjgUaaK5SsZzi8nv1Taq7wPrVrZIuLpYolxphNSYEyHw6NnNNc3Jy4MhHV1dXYmLit99+S90UtmHDBnd3d3h6UHd3d1ZW1tWrV7XjMrrG9vX1hSuUW1panJ2dORwEWrVqlZubG7wIrL6+ntwGj/UZzDZqsFcUW4F6YGkJAcKgNvVHHx+f5cuX8/l8SFwYHPfdd9/cuXOdnJzgvfFxcXHHjh17/fXX77//fjShtbX1ggULzp8/D7fWR0VFbdu2bdKkSWg0Pp9//PhxU8fIfOoXEhzs6+Pjcvasy9mz9ocOKfX80CEvDw8vD4+42NjCggJUexncmGIzxKQGMabFVv8gi3sKiysr71WWlZZRlz/jHKiiRbmeR9o5fDN8SXFpteSepKIETo2p6BEoqIhyoKKy+ox1pjZxmI9B0xYWFMTFxgIJojIFUvb18QkJDjafHmrwmiYnJxcVFUEO1Nvbm5GRYW9vv3r1ajgF9t///vf27dstLS1Aiu3t7SkpKR4eHrryGV3SRUREwAokJSVxOAi0Y8eO3NxcsPG+v78/NzfX4KCbWwEGJEDAFujzP1o5cwPWLOsbFRXl6Oj41FNPYcMzKFPh8Xjjx4/funVrUFAQtZG+vr7Ykurp06ffvHkTi5mQkPDdd99h2a5YsQKLRh61RSDA3/+Cq6vjkSOo7tC5jzs4eHt5JSUm6qOkuqdtqkW2viPsB6c4jEHFlfXKGtQxXQqmNs9SCZgpAxlkZWVVV1fr3hyDpUxKTPT28jru4EAnR9Tf8ciRC66uAf7+2vYci4yfkpJSXFwMOZBUKq2oqPD29t6xY8d77733xRdf3LlzB85AtbS0iMViI7OfS5cu+fj4QJrS1tZ26tSptWvXarXQR23k//znP7du3YKta2hoIMM/1E6O6g63GszTPzu0ctSqEx8DISAQCA4ePPjKK69MnjwZnRSbOHGijY3Nli1bIiIi6Io+d+4cRmu++eYbtZFFItETTzyBRv7DH/6gNibxZINA2N27zidPoirD3n3exSUnO1t/hdUuh7pKZGcWI8tRS18UniXlNcpC61meo4gWVFqDMCAAsknRoJzs7PMuLuzliMZ0Pnky7O5dNj3HsuOkpKQUFRW1traCtcaDg4Pd3d05OTk3b95MTEyE3Ki+vj42Ntb47AcMGUVERMAVS2KxeMeOHWo5DXvPdevWubm5wTXdPT09ZPhHbT9HVUY786UpNpkCUwu42XiKRCJXV9epU6dCjvLjjz9qPLNn9+7dMD5w+NN/jH766ado5DFjxpgNOqZU0ajISPk8l52dnv+8PDxqa2qGzegoHoCmU/3Z+DCk7W0sHz4nhVITlu6i6nblbq7+5iqaqS6GrIprkc1gqEizsrLgpzObZsI4DO2FcegcaNramhovDw89BWpvZ+dy9mxUZCTatFHoTk5Ozs3Nrampgfekgju5ACWSyWQSiSQ8PNzd3V2XGSwu0ly9ejUnJwdc19XZ2Xn79m07O7uvvvpKt6vg161bd+7cuaqqKtDAgYGBiooKMvyjtuejKqZadzi0eYJOVdX6o/o7ODhICJBawM3J09PTc9q0aZCj2Nvba6w9dWIrkt7+bt26FWYOHBrzJxEwBIKDgtROeJ09ffp2QEBBfn5FeTmkNbU1NRXl5QX5+bcDAs6ePo0qP3CfcHSsKC/H1BtTbCyU+ZEhbfs97U73UcOWCitVe+YHdMsN3QuGASsWi/Py8rSlQQztZQYKNb4F+fknHB2p0tFNpo5HjpChILFYnJ6eXlpa2tjYCG/FAjSooqLi7t27I8h+AIMKCwuDp/W0tLQUFhYmJiYGBwdfunTJ3t5+x44da9asYTMCtGnTpvPnz8PbVWUyWW1tbUZGBrV7Ex+xWIxqGaqDGrWVGgHTfUKAzL6D6UCA7OzsME6Dng2NIbJ06VI08oQJE7AI5JEZgZs3bqAKDNy3AwIg46FqKepTW1NzOyCAmkNmRgYaDVNsNEijmyFtQ2kh5DQlpfcaWtu7Ojvam2q0WMpT1gAXQNdSb8xAJs7o8i+VtMM7Neig1ooGMbSXJVZikYgqEf1lGhgQQNfA0eOfnJycmZlZVFQEFx3X1taGhoZqe8UpF4M+eB6+vr6lpaVYJ5FKpa2trRUVFZmZmbGxsb6+vidPnty5c+eGDRuoZOjjjz/+8ccfQ0ND6+rq4OBWfX19ZmZmcnLy6JGyVi1FdY0QIK2gs/zIOhCga9euYfvIFi5cGBsbSwXL09MT2zY/b948ajTiQ4fAlUuXUO21t7PzcneHlh2zpAyP8tkWd3csq6DAQJhE/5c6zAp1DFGW0pou9FjC3uZ7RQzzVkNBFXXdygy76ssRugN5ldLBkH9lEyyZDmfgz5IG6YnVzevXMUFwKNMrly4xt3GUhKakpFRXV4Oek5eXd+3aNZyMjMTzzZs3yymDr6i+DA4OdnZ21tTUFBYWJicnh4aGnj9//qefftq4ceMnn3yyZ8+e69evFxYWwqOlpVJpXV1dVlYWYT8MHRtVN0KAGIAajUE6EKCwsLA5c+ag4zoPPPDA999/jy0e8vf3f+mll9BoPB5v27ZtoxFlndp8g/KmxIZtMNOp8TEzIwO1BfZ2djBDPV/qcHUnVodq5Rb3oYN8VBGkXbXKIw1xKjOM5Qyt4GFcTsSYPxxDGhxkI4e8vLy2tjZVPdX81QermOhoOhGoKYmFF1WmZBxILBanpqbW1tYC/NLT0728vEaC8OBl3r17t66uDtRKIpGUlZU1NDT09PSAsxkxactksu7u7rq6uuLi4tTUVKFQWFhY2NraCiP39vZKJBLCfjQqNapxhABphGu0RBAIBP7+/l9++SV6xPOKFSs8PDyioqIYUEhKSvr444/RvWM8Ho/P53/wwQfXr1+/c+dOcHDwiRMnnn76aWyn/dSpU/38/BhyJkEQgeCgIFRvj6tbuINZTDaPFeXlx4cvPQHrgfR5qTOklSgJUHFtpwyrXl9jJSP1KSgtqayubelRTl/1t1YyLCdizL+soVdVNoRXoyM/P5+OBjG0V1WO+r8F+fnGkSlZD5Seng5X24zIvnec+yie4+LiQKcaGBgAAzwRERExMTEikSg/P18ikdAtRwNX1sNeJZPJWltbi4qK0tLSNPZkEgFVOkKASH8QC4VCZ2fnxYsXP/zww9gIDY/He/DBB+fNm/fjjz/GxMTQgXXlypXHH3+cmpbP5z/22GOPPvooNei+++5bt24duRKVDlLUPyoyEl31fNzRkeWKH2giGRy1NTUoBzqhyFznlzqzQYEjQFVNkISAqkk7hh9pOJwMFUsaO5SXZShb0t9ZW06/BayQKf+KRngtKgoyG7daGqQbVrU1NeiqZ4PK1PHIkVG+LywrKwue+xwfH6+WjhjfMy0tDewC6+joiIuL81f9AgICgoODQ0NDw8PDBQJBRkZGeXl5S0sLON4Q1WWpVNrW1lZaWkoW/bDRXxCHECD2WI2KmHv37p0yZQo2hINRlnHjxn3wwQd0Q0FCoXDv3r1YEubH2bNnBwYGjgp89W4ktuOdumkLtYk6uCvKy1Gj4OXhodtLHRTNkHZoDZDq7guQpL+jpoL2AOjCqsZuuGwZaV1/+z36WTOG/KtaWK4BopMbRoMY2ovUFndiO94NLVOXs2fpmjMa/LOysuC0rEAgMD7XoZbo4eGRn58PJrBqa2ujoqJU/Af/GxQUdOfOnfDw8Ojo6NTU1IqKiu5u5Uq49vb2goICst1dqz6M2jrmDzZcaSnPmO6TXWBaCWLkIyclJe3atYuZqaChK1euZBiz2bx58wMPPIDNc6HJgdva2nrGjBnXrl0b+fabQw3C7t5FNRYu06Eoo14e2NoRcEaibjliRgHNpLlsaBdYcVGppLa+ubGx/l7ZsGvbhy36KWC4wGtQ7bViMDlN/mXV7bBK+sgf0iCG9sKCMAfGOI0j09E8EYYSoMTExMuXL1MZiZF9rl+/DldAl5SU3L17Fyc+6p4DAwOjoqKqqqpAj+rq6ioqKtKnG4/CtKg5JQRoFHYAZZNFIpG9vf0jjzxC5Sh0PlZWVmvXrk1MTFSLWkJCwp49e2bPnk2XHKwNWrx4sY+Pj9ociCcVAfSsZy93d+xVyuEjui/svIsL/GLWtggGQtCB3wM/tL1r+JzXkH/JvVZ1wz+gUt31jJfGq80TnR2joq2tD1iroS1WF8+fh1bYaDJ1PnlS29ZZTPzMzMzGxkbQaUQi0YifAHTp0qWQkBC4AjorKysoKEgd4VHjFxwcnJOTA9rS399fXl5uMWIyTkOg6tnb2RECZBzMTbGUqKioefPmUQdsxo0b99e//nX+/PmTJ0+mUpmHH374LP1welJS0s2bNz/77LPJkydjOd93330vvviig4MDwzGJpgjTiNYpcPiZPTrseGdPX2pralDTkJSYyD4tGpOBAPU1aVjpTKUspZI2egLUix4sRE2rzqekDll/zZVss7Oz6ZZIo8gANzbYZkyZjtodYenp6Q0NDQD/jIwMU9gFFhUVBe5sl0qlQqFQDdOh8QoMDExNTQVtkclk9+7d46obj5J8UCtHCNAoEbqaZrq4uGDrfsaOHfv++++Hh4eD2EKhcM+ePRiVsbKyWr16dUJCgpocEa/Y2FhnZ+ctW7asXbt2w4YNu3btun79OrwcHolInEwIXHB1hep6OyCA+jbl1gc9I9Hby0u3zBkI0GBPfQWcomLpQHat4/UZaFdtKxsaMVJHepDQonsdCJ9igl77MDgphtdz+PN1X9+RkukFV1ftm2UJKVJSUmpUV74UFRX5+voaecKLWpxQKIT3YKAroGlozzBvoVAI+xQhQNp2UKh9ZARIW+gsKr6trS06wGNlZbVx48a4uDi0kUKh0MHBYdKkSWjMZ5555vbt22g04jYQAujmLw53fkHriTnQQaDjDg5YKMtHJgI0qMOkVUndsDMTh2rR16T1XWCl91QXaSiyMYTUNNIgdPOXkWXqeOSIIZpsFnlWVVWBFcc1NTX+/v5URmJMH3d396ysLNCV6+vrGVZADyM+iocAxQHfUA0IAdK2+xECpC1iFhhfJBJNnDgRpTXPPfccxn5AsxMTE9955x005tixYz09PS0QFBNrEnr2z9nTp6HJM6gDvS/MEMtmUzNzNQzSUEeG8rLSKcf6J6dm5ucjQzvUVGp88nONdU4KHQ1Cz/6xGJmamN6or05paSm4Eayrqys0NNSYdIdalq+vb3FxMVDkioqKsLAwKtGh87l9+3YGcnENIUDq5U3vSwgQPTajJiQ0NBTlNDweb/PmzXStP3XqFBb5xIkTdJGJP1cI+Hh7Q101wvwXMMfoLJiPtzdXbRnKJzlDe+JSUJyXk5ORlqqgQckpqRmZOQVas5+C4rys1KF6GMNFpUGC2FgLlKkxsNS3jPz8/I6ODtDJExMTPTw8qLzEaD6BgYESiQRUJi8vj/0KaH9//9DQUEieyCJoHboFVEAyBaYDehaS5Pr16xin+eWXX+ja5u3tjUW2s7Oji0z8uULA5cwZqKsF+fnAXBr6f3SIwuXMGa7aguaTlpWn9SCQmuEcrYd/8qjjSGi1DOZGaRC61c6SZGow8DjLOD09HW4EKy0tvXnzptHoDrWg8PBwsPhdKpWmpaUFBATQjfdQ/WNiYmBDuru7yTZ4bbsINKqEAGkLneXEp44A/fe//6Vr3vHjxzEC5OTkRBeZ+HOFAEqAOD8oj45IoUfUGIgAiZPT83QYv9GTA+VmGnn4B+sGgAahBMiiZIq11vQek5OTJRIJOEy5s7MzPDx8BE8DEggEPT09g4OD3d3dSUlJVJZD5xMYGJiWlgaPhG5pacnOzjY9sE26RoQAmbR4jFY57ASgP/7xj3RrgP7973+jBOjBBx/0NsTkiNFabiYFOR0/DnXVoJulUTKEroM23MkxKRk5hXoSGq2S5+fmjCz9UXW5kydOWKpMVU003b+FhYVwFiw3N9fHx4c6NmMEH3d35+bU2AAAIABJREFU95SUFKB0TU1NsbGxdHSH6h8ZGQlvdZVKpdXV1eTid207HFRA7keAwAYQff5HK6dtw0h8rRB46623UFrD4/Hef/997JAeoVC4b98+bLm0jY1NUFCQVmWRyDoggOoCylEM7UbL1aHaLJMkJ6ekGuuXQllDzbKSnEdDsTW0HNH80XI5b5S5ZJiWllZXVwf2grW3t4eGho7IIJCvr29eXh6QjkQiiYiIoBIdtT7BwcG5ublSqfIgh/b29vz8fHMB33TqieqCPlyFmpZH9dLWB62c6UBmkTVxc3Pj8/koB+Lz+f/+97/hJRXh4eGbNm2aNGkSeqShtbU1w2HQFgnUSDUK1QX0ZWZoN1ruSLXdUstFsTW0HNH80XItFVs27SopKQFzT4ODgwUFBSMyCBQYGFhZWQmkU1xcHBISopbuYJ5BQUEpKSnwFrCBgQGJRJKaahoDm2ygN5k4qC5oy0+Y45O7wExGyCwqEh0d/Y9//AMlN5AMzZgxY9asWffffz/0gY5JkyZduHCBRfYkir4IOB07BnV1RKbATo/iyxP0FR5N+pMjPa05ymUKlkKDQZTe3t7Y2FjjbweLjIyEd6eUlpaGhoZiXIf6GBoampWV1dnZCWiTVCptbm4mq39olEyDNzSq3E+BwW8OQJTgI3sHWjkN7SDBeiPg7Ow8depUSG40OsaMGbN161ahUKh3ySQDzQhY7CJozU23wBhkEbSJCLWoqAiOozQ0NNy5c8eYE2F+fn4FBQVwFTO4zl0gEAQHB1N5j7+//507d5KSksrKysAhRoODgzKZrKOjo7Cw0ETwNLtqoByDXIVhduLjssJJSUmHDh0aM2aMRurD4/Gsra03bNjAcBs8lzUjeYnFKAEiW6bNt0eQbfAmJbvU1NTa2tr+/n7wWV5WVnbjxg0jrH2+dOnS1atXxWJxV1cXOiLQ399fX18PVvMIBIKoqKiIiIiYmJiEhITU1NTi4mJ09Bewn9LSUrL2WedORQiQztBZZsJjx45NnToVuxcMo0Tjx49fv359bGysZUJgkq3ydHeHumo5ByGaJNQGqhRKfcA7L/zuXSJTA6HNPtvs7OyWlhawGnpgYCA/P98Ii4G8vLzi4uLABaiDg4O9vb0dHR2Qh0ml0q6ursbGxpqamurq6vr6+paWFnBZGGRLYOarsLAwJSWFfWNJTAwBqIBkCgxDZpQ+ikQid3f31atXz5w5E6NBVlZWkyZNsrW1dXBwIGM/Ru4fw67CcHaGdtCgjrPOztBAGOIqDCNjOFLFUakPkBp6zuRZItOREo9YXFBQ0NnZCThQf39/fn6+n5+f4caBvLy8EhMT4dKf/v5+iUSSn59fWVnZ1tYGN3bRqbZMJuvs7Lx37x5Z96N/l4H2jRAg/cG0nBzi4+Nv3rx55MiRtWvXvvnmm6+//vr777+/Z88eb2/vqKgoy2mnWbXE4cgRqK5GvjjzmEEuQ6Wz8Ep/ndcO6jaXb4i+QEd9YMuPOzqOlEwdRvFlqJisU1JS0IU1/f39RUVFBrok9erVqyKRCM5kDQwMNDY2ZmVlicXi1NTUvLy8qqqq5ubmnp4eQMhgV5HJZL29vS0tLRKJpKCgIC3NWFfZYWBZ1iPUPkKALEuwpDUWh8AFV1eorkaYBUMvAvP28oKGWCuHkUkMrJsO5XLbXzRSH1DV676+IyXTC66u3DbZrHNLTU0tLy+Hi4vBuYJRUVEcrom+fPnyrVu3cnNz4QGMUqm0qakpNzcXhS41NTUrK6ugoKC0tLSioqJa8ausrCwrKyssLMzOzibb3VG49HRD7SMESE8kSXKCgGERCAwIQNXVoINA6BnQ9nZ2SYmJkFto5dCBiMD8jZyWK+FlZ2e3tbXBVjA7MjMyRkqmgQEBXDXZMvJJTU0tKytDl9q0tLTk5ORwclOYu7t7fHx8dXU1zB+wn5ycHIYlzCkpKWmKH1noY6A+hmqfbiPHUMExe0XOATKQyEi2oxeB0ydPQo318vCAuse5w8vDAxbk6uIC1ytoWxBmFLRKbuS0+veq/Px8iUSiLVZu589DqI0m01F+AhCdrFNTU9HTEcGsk0QiEYlEOq8KunLlSmRkZHFxcVtbG5zV6u/vb2hoyM7OZmA/dJUk/hwiAFWPjABxiCrJiiBgEATCkH1D9nZ2mRkZWlEKlpGxYYmc7GxtX+qwICOTGH3K1UdgcMJLh/aiN84aTaZkSTuduFNSUvLz8+H+LHDWTldXV21tbVZWVkhIiKenJ8v10Tdv3kxMTKyqqmpra4OH/YA9X5WVlRkZGXR1IP5GQ4AQIKNBTQoiCHCAAHogkL2dHee3iGPvYy93dx1e6voQkZFKq5tsIPUB1dYNK/RaeCPI1OXMGd0aO3pSZWRkVFZWwn3pgAb19fW1t7fX1dXl5eUlJCSEhoZev37d09MTrBNyd3f38fEJDAyMiopKS0urqqpqaWnp7u5Gd3VJpdLW1tb8/HyyjsdE+hIhQCYiCFINggArBKIiI9HtYCccHTlcDFRbU3MC2Zd0XJG5bi91fQjBiKRlhT4SCaM++tS5tqYG3Q5mUJk6HDkSFRmJtIM41SMA9mTV19ejDAYyoa6urvb29paWlqampkbFr6mpqbm5ubW1taOjo6enZ2BgAE54gb7R3d1dUVGRkZFBpr3UIz4SvoQAjQTqpEyCgB4IoGcC2dvZnXB05GQcqKK8HGU/cCiCECBMVmqpjz4ESH4ZZ34+aosNJ1My+YVJk/kxNTU1Nze3vr4eHQ0Csmb/f0dHR3l5eUZGBlnLzIy28UNRpSOLoI2PPymRIKALAjeuX0dVV/+1I9i6HzRDQoCghPLy8ph3eOmDVUx0tKFlSnZ+QVFq5UhJScnIyCgrK2tpaWHPhLq6umpqanJzc1NSUsioj1aAGy0yqnGEABkNdlIQQUBfBC5fvIhqr72dnZeHhw7TYbU1NeieL5Anes6QPi91M0rLLI+8vLz29naNH/16tveGn5/hZHr54kXmNpJQZgSSk5NTUlLS09PBqc11dXUtLS0dHR3d3d29vb2dnZ1tbW2NjY0SiaSkpCQzMzM1NZUM+TBDOuKhqLoRAjTi4iAVIAhogQB1HMjezi4oMJAlDaqtqQkKDERNAHBjm8v0fKmbyw4yOtxZUh89p8Cg8RUJhVSJ6C9TMvZDJ1/iP5oRQHUN6qDG7xy1ETA7Sc4BGs39irTdSAiE3b2LromG+nzW2TkoMLCwoKCivBzyodqamory8sKCgqDAQPSeL5jquLrlRJhiq1V+Ok8zSksVmFbUByDASXsrysvRNdFQOrrJ1OHIEbLuhypc4kMQEIvFULnIOUCkPxAEzBKBqMhIbG88qtXs3V7u7pAqoYSGk5c6miFLt5HLRWWflZXFZsKL2hCu6iyfl3R3Zy87upguZ86QPV+oZImbIIAigCoOxyNAwBbo8z9aObTSxE0QIAhgCITdvYueE43qjka3q4sLOO1QH20197QAz6ysrOrqahNpS052tquLi0bxqY1w+uRJMvCD6Qh5JAhgCKC6w63W8/TPDq0cVm/ySBAgCFARCAwIuODqqnZSDNUm4D7m4ODt5ZWUmKi/qlpADiZFfVA8kxITvb28jjk4UCVI9XE4cuSCqytZ8UNVDeJDEKAigGoQqnT6u8kaICraxIcgYCQEgoOCfLy9Xc6ccTlz5rCdHdDzw3Z2Xu7uXu7ugthY9kcHAVtAne5h40PSskEJxNGIVUF+viA2FkgQlSmQso+3NxnyMZJ2kWIsBQGUAHE8BQY1X6Niw5iYA62cpQBO2kEQMDYCqB5hKsbmUWf95dagsKkqjGPxdUZlauz+RMojCFgKAqgecWuvyAiQpfQR0g4zRwBTcsgSWDosnkxgOJhFe1GZmnn3JNUnCIwYAqgeEQI0YmIgBRMEDIcApuTY+17jo1kQAqwVFl9nVKaG6zkkZ4KAZSOA6hEhQJYta9K6UYoApuQYV9D4aPFkAkPALNqLynSUdmvSbIKA3gigekQIkN5wkgwIAqaHAKbk2Pte46NZEAKsFRZfZ1SmptfjSI0IAuaBAKpHhACZh8xILQkCWiGAKTnGFTQ+WjyZwBAwi/aiMtWqM5DIBAGCAEQA1SNCgCAsxEEQsBwEMCXH3vcaH82CEGCtsPg6ozK1nJ5KWkIQMC4CqB4RAqTEPg78NEgiXhktTkM8DcGR1885ORw8ePDo0bMX/SPEYmW2GlIZMjguxM/NyeGook5ObtdC4kSGLI3kbXAEMCXHuILGR4snExgCZtFeVKYG70DcFaCymSz+ooUqo6NexnaDKhi7VFMsb+TfUByiguoRIUByYEUem2Za8Xg8/l+2XacDWuDx/UtTrHny36R/7rysKwWKv7bLdiZfXhj4PbrMMfinf/Hlhf/t5xAhXekG8w+9sO+TBXN+J68A+uNPe8H2i5P+AoOVSzI2LAKYkmPve42PZkEIsFZYfJ1RmRq293CYe9yRBQ8As4naF7Vu1PxG7X9tCo/He2Dud3c4rAxTVvG3zp0LQCKIfH94fqwVj8dffDQR8R6NTviG+iXCEj6MUT0iBEjeoTUSIIT9THt9n7eu7Ecs8tj2tFyp5L/xk6dPnzx53rbr4SNEgAS+h5c+88iQKeLzx0+ePHn8WMTn6beO3hiNGm/+bcaUHOMKGh8tnkxgCJhFe1GZmk0PNQcCJApx/fK1p/j8N44h73dCgGAfIwQIMxfwEbMb5noQIjMBEnhsU4798Kct3ndDZ/YjFotvbv+bYqxl5ltHb8PuNSIESOC79+9T7lNwnYeesP3ikNutSFWFBP6XDqz/l3KYij/zfacwVQj5azYIoC9LqK7sHZhis0/I7RcVKRdFAJWp2XREFQGaOPeTo5p+LkNDzkYdAVKaZYwAhdgvnfuCjc3cDeeSzAZtw1SUECBUDVE3ZictkAAh7Gfm4oP6DodcWf8cj8ezmv7Wb0hPHQECFHd51TMT5OxHTunUD2hFnFsPBqvktSVLghB5mYUTfVmiGsvSjSk2y1QgGknLHi6tsEJlahadUF5JFQF6dJmjNnUeeQKkTW0tPC4hQHQajemvpREglP2gYzY69/fzq5+WE6BZay4hWRifAF1TDkTx/7yZaTHTlfV/VoxX8f+5MxCpL3GaAQLoy5JOexn8McVmiEkNImmpmND5aIUVKlMz6IKgioQAmY2oaCtKCBBL/bUoAiRw+0Y18/X0+05DM1Zquknk9RM7t6y0fWWuzTNz5syZYzN3vu07W/adCRgaOIl3P/jVunXrlto8Kh93Gf/c8nXy35aDV+LEYjoCJPD4dTOItu88nJ9SlB7qfnT32mWvzZ/7grw4eXlvrt524CLbNdRXVs2WExur6UtODdVQTbNEIQcXTJkyZ+6bq/d548FxgWf3ffrOwldsbNS2VxU90nXn5vXrNu/3jBOJ4wJP7FxjO/9lUONFH33t4Buhiof8jbtz4eDWVSowbeYvXL7u+5N4TCWeW/bJAcR+StxAoSBsWDWug2ooKv7mu9uOQzFF+B77ZuWi+TbPKCS4ate5ICxn1WPoUA1t5s5fKJc1dd+cKETZdj+xOPjcnnfmv2Bj83fblV+f9I1V5WPAv+jLkk57Gfy1ejFj+ZC0GCAMj1phhcrUgF2H26y5J0DaWL9IryPbPl628GUbYCcXLl29zd4zcmilj8j/9LbN69+Z/wfFYoCZi+T29suf3MLlGERe3rt5/bp1Xzr4UvamKGzUStvX5AbfxkZu7Q+eV7NYW1Ppw5FmZVVUSViCEHhi24Z1675x8BeK/E9/uewfNvLartp17iZqNiN8T/2wbsXC+XKUbOYuWPbR95iNQgmQKOTSgc3vL1S8emzmLnh3834UT1X1TPovqkfcTtlbDgEaYj/jn1tzjmkRzK1D7z49YWhXl0KRlP+NnbXEwR8oT9SPr0xGg4D7wfm7I2kIkMDjR7BGZ+z0N35WZiLvVQKPH9+cPY6aldxHU1VBr1QteOL9fuVpVA3Y99lgp89fmvIAtQ5jp/9tB7AdqrxEvtvl82j8v+12s1NTbT6+olwUcvydZxQcEc990l/XOSMskGmEHBJKuGcBqcbPC2Y8iOU9weZ/F+Pirv20HN2dp4gz6Z87ceYn8N3/5uyHsRx4PN7YWW/s9hjGbEQem562suLxX93l9Blc+c7j8Z/bfFUFjwH/YkrO8A5WG6TVixnLgaTFAGF41AorVKYG7DrcZs0pAdLK+kWc+/z5Ceo2oI1/+n3VEkyRy8fTcGVWbkajWwQd4fbN3yk2hMfjTZjztsrayxFkUzpEmr1V0fIVcP6d343h8Sa9dfDI0hlDb40H5+9W0rW4wAPv2ozHEZAvjfjntqHJAUiAtuxbQ4XUavKLO4abPtgu03SgekQIkFxGKk6g7Ppy9gM0Z/xznzKyH4HbBvDWnDDnjS37Tpxz8/DwcHM6uGPVy38AG8un2v6qeG3H3zr38759+9a+Ml0+9DL5b+v3yX8/nbspVkeA4ArlsbPesEPYjzjyxNIZYxQ5PL9i2wEneXlu55wOfbP8L4BesVmvo+zNPP6/Dt7VoYNGnFsNmmw1+fnlm/c7ubm7uZ3cu3mJkgWOf+5TtxiYrZJ58CZNn/4AjzfpBdtPdh484XT00Dcr/zYdnAUw/sXdQw0M/PGVqYrWvfjeziPn3Dx8PTzOHd2hHDbjTVp8FDJRnQgQb9LkydY8/rSXV36x7+gJp4O7Vr0MrB//mfnzZ/KtJsx6df3OA0edjiLNGXY2gQiuHB//9L8VbffwcDmy7X1AB60m/2038rGoJEC8abPkbefPsHlp/txnJo9//ttblA9KiBd3DkzJGd7BaoO0ejFjOZC0GCAMj1phhcqUu55i4Jw4JEBaWb/IE28qNnlMmLNk+8GzcsPs4XZk5xrloP54pV6LQi4d3Lfvm0XylQk8/nPvKcwyGP9QS4AEHtuUDABaADeXveuUW0YesPmffKhbPnrEqnQAvVZWRctXACBA/Omz5GcKTJj1/Pz5c2dNnvD6PmD5Q+0XPaEgP/zH53+46+hZDw+PC0d3v/PCYwrPSYsPKuc9VK8Mhff4ma989PXBo05OR3/6ctFzgDyNnbPGy8D9iMPsUT0iBEgOLEqAIiD7kX/Wf+CCjJdSZBCqfGFPX3IKj6YM4o1/w1EwNOLKZg2QwHfvAoXqjp21xHH4rJZy7Q7/aZRkgFr5bJmnoFzT1lzQsGcBLMTm8WZ+6q4hJqW9YnHcedX02avouJT8u0RFDsbOWXNRNbOmIkA8Hn/YxjexWBx8aIWCtA0d/iHy36k4eGPSW05DFEpeh7jz7yjm7MYt/Fk1CKQbAZJX4/2zkEUpcp5xv0KteRPnqoyXotkRJ99XkCOUJgZ+//LvAH/dPXwaSxRyfOlseT4Pz/8OHiWiIkA8Hm/m0GkCkZG6jbqpkQWjF6bkDO9gtUFavZixHEhaDBCGR62wQmXKKHxTClQRoAfmvPoR42/9vqEhB7FYjYJrZf2Uw8AqogMRESgPIhkyO0Obc7FdYGrOAQr8/mX5+LTiU2fYcK/Kmj30LwVp0KZ07ayKViCIxYAAycndsx+dVhrPuKhIhX0WKEe/+E+udFTZVQVOcVfXvjBR3sxZSlozRIAmv/rzMNMXf2b1nxT2U6e3CZSKcR2oHnFMgIA+6/M/WjmjwaIiQLxnbZcqx37AW5HH+/0yMISjti5Xf1g0z2bWjHnb1ExqBO16Vc5Ihh9vqJEACXz3L1CM8Tww5+2Tw9mPWBx/dssbc+fMnr1wD3W+WfW65S8+Gq22rtDzzLtPyRvHf06HoYgIh7cUlH/SYnWjR8E//QuEQgYDCdDDQ9xFVZG4M0snyvfhP7byNPASXdygOI5y2vsYARKLbznt3rbvgJPbLRV7UGMfVfkOranCp8B4PEo14o8vn6UQ9bT3z2KsCxzgxv+zasZK1Un4f9up5rTMiEOLFW1/6qtrygEelUR4YKITVs84DlSP9NFHktZ0EEBlapxexEEpKgKkMqi0f5HPG7E6AqSd9VPubB//qh1+dl/o2X3bdx484oIsK1S/DZ5CgOTWzEp+NOI8Nefl3vjy2Yn88dP+b51zHDzuhEXpWloV7UAYIkCTF1OWe0bZL1JMR6hbCSq383z+5FnKr1wVAVJj+uQn2ykwef2ghvcOB32JoyxQPeJWu3n6Z4dWjqP2as5G1QuVymk1/dXdHm5fvgCWekx6fZ8Ou9/jb27/p4IAoVM8YmYCtOvcz4D9jJ3zgQvOfjS0QuC2kWVHPKPYicbjPwdf1RqyRoLPvDtbjtH4NyjqpIgUab9AMXX4e8hpwBognhrNEYuvrn1GvpBoaH+sKvnY6S99vO+EZwjDOdS6ESA1lks5HsZ/9VdkoE7RGOXH05/WKXfsqb69XtwTrG4OK/Lg38daywmvih6pCNCwb00ES8M6UT3SXytJDqaAACpTw/YeDnOHBGj8NMWODdr//u+jY6rPG7UEiKlOVOsnOPk+WBUwxebtXUcvwI0OanNhSYBU37Qvqv90jBuqPvvStbUqausPPKkgQAI0nFyC6Er79tgyx6F6D+Uej3qqCNBTaiYNVHbv1X1ms1MY1SNu9drcF0HLX+5jpytH+US+P6hWAr24A1nbMdRJEFdciJ/HuZMH923fvO5d24Uvz5Ev+1D8+KwJEO+hyeOVi6nl+7PwOTWkMPms0B1fN5ejB3dt2/zxSttXbGZNAUuOeDy+Ribus+UlRc00T5YNL1IsFoeCpdwP2HwFJ3qGx5F/BvF4Q2MeqhEgteNSNwDFHCJA4vjzyo33SuymzPn7oo++PnTu5rARWnmROhKgf1GGx5QEaPJi9GQmRaPOv6OYHYME6Pjyx+XV4k972Vbt769gVdMQ+QOLoHkPaRyTG44hN0+okjNMwdAFAbtAF8rsT9Iy44OGaoUVKlNueokRclERIETN2ZTKpODsrN8NMGENTAmPP2n23DdXb96LDvzAerAkQMqxczW2AuYEHWxL19aqwALYgaBkOX/4CDdvohDlB5u60ayhQoBLSYCGz2YoIynly/+b+RyVguoRx1NgULe1UmyYanBwEK0cLgeDPcMRoLHThy06vqWc0+E9YLNGuboNr0P8Laev37SZquIfSnXj8R6aPhmcNMieAMnTTpg1C6zL/f2y4fOyqnIFvofXLvzTZOQ2MVDkhOmTFVMwmglQ7KHFitqiq1tUuWv4G/jN/8lHxejndELBHPkDc5VLYVQE6KElTtT7dKgESM5sLux8xwbSRxWc/MnP/3vz0H51XQmQmmqoCNCwoykVMGAESGmRVTWi/fuIrfLAN9UI0KS31LRdA9D6B6N6hOoXS7fO+sutQWFZWxDN4uuMylT/HmKkHDglQNpZv7ire1f/fbrqq1KlsfwJc15df3DY6a8sCdDxRTMUK2M+QE9xo4WRVelaWxXFakv2rwAlAfqjahgb1hYu8X5VuSAahqhxQAIEFxUMRSIEqLkZmilzHwGizlaE7n/t9wrN4T+5UrWIbEj48de2/1O1u50/edZL823fWb35h31HL/hFClSbsbUgQBNt1rhERp5591lFidPeotxBIXDbCHchTpj+9NyFb65c9+XOgycu+kcIVDPWGkeAVGuNeTSDn0PNE4uj7Bc9MVt+2IO9n9w78BvFGsChXZRoXBBBxZDAKiXtCRDIMeqWm90361bMt3lcweqUtut3C/eoRp6YPhBVyP8NqitDNVgToHhwO6PV9Fe37DtwkP53yE15ehAkQG+f1X6xOQ6s1s/oyxLqJ3uHxZMJDAqzaC8qU607xEgl4I4A6Wj94u5cOLp73cr/ZzN9IvKZ+hC6cJMtAVKMAWPn+GvAVUPpWlsVLUGgJ0DKHSd8NlNXhABh5gI+YnbD8giQWBRy/E3FqmQeb9oS1ekRoNOL/He+pLjZ9IE5bzsMWxsvD4cTxsg2b+Y1QCqqFOkMJl8oE2FX14L7K8a/+Om5IHSOFmxkY7kGSCy+AQZyeJPfcGSeaIOLcub8T0GAVOqq2h1AUX7lqMkjtsp5ZQbmIRarHQGiZBl5/ey+T1UHb8BpO2VN1F4WrTJn3BIgsWr9E3U5IaXOCg9CgKCZYO/ADAr7hKNh5Gl0EyAOrF+k/28HNi+ZBcaEJg8tZFRZDA2XodKvF5QrvMDf083jFvVAVGgd1JaupVXRFgRaAiSOtF/wgPyQJDjFD+upcET5unn4+keAtwwhQHSGCLNXFkiA5EdaKXdEy3c/onu/lRSHR9lAJO9B8Wo3WzEvgv5ZtfAZlohOhMnJhHy9PU/tSXqqXUisJrZU27X4f1p3CSNSiBrAFTlDa4dVS/aeU7soSjWTODSQphUBCnazky9p+ugX1TDPUF3k5y3Jm85XDdjG2y+Snxg0VsnMhmKKxaqNXXyOCZDSCqgXt1gc6fzlyo/Wbf7hkIfiGFnF2QoKeU0iI0B05oPqjxkUagQGH4tPO5oJkJbWL8r96O4vP3r3vZ2XUdMA3NCIwV0gqg0rGgiQQLkHdtqac8N3jMrzjQdURrF1XIvStbIqWoIghougqVNgYvHVL5+VHwmrdjhf5L9P8W2vfJsQAkRndjCbY5kESCyOOvPus2D4dOLcrxRjIfIur1QbdQfqKC6RUNy1zh/GFVgSIDD3hE2EQXqhbtnaDTA5hVAEquIjPnGqLwn6y1BvHVqhPPAQuQxVNXPMQ5mZKl/VdCGywV4rAqQaM3t6qwc+Z6Rq+9CCYiW/HP8qnOcC1RCF2INTlHhcEyD5skHFHreJc7+DfUDVdkgWh9gwGQGisxoM/phBYYhJDbL4tKOaAHlsAp9A7Kwf3OOt5iJn1XjP0Bmnt5RHlgzbCqqydfzFR1XrFyPt31Sc3DHV9hf8IBLVyYd/+Oh0nHzlANhhrrl0rayKygwOfZGq7I9YPq6vWJ8w/BVAPwIkFl9Z/2f5K4b/9Kfuw840EovFylPlVKvrBS/RAAAVuUlEQVSeCQGiWhvgg9kcSyVAYjG8Pp3H/9O638CoieogKd7jtsMGLSI89i99Bq5dGXZCFGsCpJh6UxyHODQRFnkCqN/YWcOOCIoLufTNa7NU09tD27AR3VDjFHh8rzrxiD97/tu7nNxDlNNh8cEejt8sf17ZAP7Twz93oo6/+0cFM3vo/z46PLS5NO46PFIdXSylFQGScxcFw5BPKfoP6aQoxHXty4qlVsicnepEIt7jC7+Dl9EEu/0ydJMG1wRIPLRJjf/4wu+Qm9ei3HfZgi1gE1Wrv5FJSTICRGc91PhjBkVNDHovi09r1gRo4twP6RfOqUKOXlHt96Qs8tPS+glUB5k+YbsH2gf5cL7H9+CKIfTM0gjlvpBpr+909ff3B5ZQDQESi923vKiwtA/930fHhqxf5OVvXpGvj+apzrXXpnT47cTCqmgJAuMI0NArZuz0N3arxq3F4vhbRz8CV/f8XrXslRAgOquD2RzLJUDyS7g2Kc4pRk8TDvwB9Hseb/z0lxYuW7bM9rX5c2bINYQ/7bWPFim60dCghXxEUpvb4IMP/RussFYNt8S7K4975vHGz3zZdumyZbYL5z6j2BH20DO2q8AZQnAbthrWM9wrwu171doaBaXh8fjjx/NVTEpx4Onza6i3wMZd/eEVcHggjzd+ms3c+fPnPgO3Wjy+8Ds/1THQchKgPAdIzfYrtWuAbv20SLWo/KEZc16aP3/+XJvZyi1v/GnwaHZ5O+Kugi33io+YSbPmzJk1fQJA/t+b35NLinsCJF8GfmDR00qE+JNm2fx9/vy58MgD7ORuMgJEZzUY/DGDwhCTGmTxac2aAClNDOMfZH0xhQCJtbV+ofbL50BVfWbufLkxmfM74ENza42ycsCEqiVAYnHg3kVPgEz442cC64cYKHhinBala2NVtAWBaQRo+IVl/ClyezvXZpZyqfhEmzUXVStECQGiWhvgg9kcSyZAYjn9nwfGRaymv6G8pCLS64flfxm2KZ0//pmFnygWglxd+8RYHo+nug5M/tbWigCJxaF7X1OcPcODO8Kizm5fOvzuVf4Umze2ON2ME8eBQ42tpn/wG0JBhnMeylOk14H1i6nbznnjZ76y8ntkkANLGHp2+9vPT1addaSwGxPmvPoxfmu91gRI/v3h9PUClZ1SWUv+jLlLqHezi0Jcv1n0HAr+hFmvbj0XpNwQZxACJN+o777vk7/PGn4fqvx+sWEfmmQEiM5kMPv///bOpTmq44rjrLzKKpVF8gWSyjbLbLJJsskqy2zyAbJ1NtlmM3gkMCVeeiANAoQNiIclwCAk9EYI4rKxFTuGeOFUYZQqinEKlanCVZ6UuExzdO7p031neu7ce/u/kbrP6b7d/ev+nz4aaUYsoOiNmbfyfeNOgHallzH6zQ2//QcWpva99eNf/P4vh2fYh6zemXj7d+Z/ISd/FmNJgHY/Dm3ib3/81c/o/1R+6yc//+1fR16//bMdK/1HzxBVMkJwJECv3lT/7p9/88sfvU4VX0Xct3766z/9nf4ciwSIhRpTZTGnrAlQ+8h2+n1xdmrk8NDQ7j8nffO6aKcPc/dbX5pujA69Gm9a+7hk95NMi8WZi42Rw0ODg4NDw43pD+1/GW167P7d343pkyPJNNrvF6DubsrrN17Nx2eNr+GPeE+7m3m96bs4c3aX2NDQyNSF5H/rvPEVoEQvSyNX/wITtn/HGN6NxWjkxoruaQGOWJ+mkDn6tcPUbny+oLxL6x/rSzPT09MzN/zkbB47MjVz287CNHON/uoRvlElMwT7BBPP4uzUqzvFgcj1mFL4qY7CxqtYE6BSbDsmGRMBJnJ2ZzuruV3qbCYYlwGhVbqnMZ1lrBUEQhKgOkICFJIsngUCBSHARE7vUZ8yEhEfSkmb3FjRPS3IMcM0QKB0BKiOkACVbvswYRBwE2Ai97/Oc77U2cRySybKOC7dU/cJQAsQAAGJANUREiCJEGwgUHICTOTsvndWkYg4EZkGubGie1ry44npg0DfCFAdIQHq2zZgYBDoHQEmcnNbexZyu9TZfDAuA0KrdE97d3LwZBCoNgGqIyRA1d5rrC5SAkzk9B71KSMR8aGUtMmNFd3TSI81lg0CXROgOkIC1DVOPAAEikeAidz/Os/5UmcTyy2ZKOO4dE+Ld+IwIxAoBwGqIyRA5dgzzBIEMhFgImf3vbOKRMSJyDTIjRXd00yHAY1BAAQMAaqjwAlQEgu6+UonZ2aMAgiAQCYCVEfd6BF9i0OA7mmmw4DGIAAChgDVUVh17+v+cXRyZsYogAAIZCJAddS9KvGEIhCge5rpMKAxCICAIUB1FFbX+CRoAxkFEOgnASpy88sa/0ISF/zb05boS2no5Uys6J7282xhbBAoMwGqo8C/AjNqzyRs06vVatHJlRky5g4C/SRAdUT15VnuWL9hA4rnbJNmlZ8z3dN+ni2MDQJlJkB1FDZe4RWgMp8LzL1CBJjIM2USYYNCpqErn8QwGpnWS/e0QkcVSwGBXAlQHYWNdUiAct1IDAYCNgJM5OzedVYzXczsaejLgCjVTKzontr2HXYQAAGdANUREiCdFbwgUEoCTOTKHSy6Ml3M7Anoy4Ao1Uys6J6W8lBi0iBQAAJUR0iACrAhmAIIhCbARK7cwaIr08XMnoC+DIhSzcSK7mno84LngUAsBKiOkADFsutYZ1QEmMiVO1h0ZbqY2RPQlwFRqplY0T2N6jBjsSAQkADVERKggGDxKBAoCgEmcuUOFl2ZLmb2BPRlQJRqJlZ0T4tyzjAPECgbAaojJEBl2z3MFwQ8CDCRK3ew6Mp0MbMnoC8DolQzsaJ76nEE0AQEQEAgQHWEBEgABBMIlJ0AE7lyB4uuTBczewL6MiBKNRMruqdlP5+YPwj0iwDVERKgfu0CxgWBHhJgIlfuYNGV6WJmT0BfBkSpZmJF97SHRwePBoFKE6A6KlwC9O7goJnf5uZmpTcCiwOBnhDY3Nw0Inp3cFC5gG2uTBczewj6MiBKNRMrxMaeqAUPjYlAOjZm0iDTMusb4IMQR48fN7F7ZWUlpq3BWkEgDIHVlRUjotHhYSZanyoTtk8X0wZ9DQpnIRMrxMYw8sBTIiaQjo2ZNMgUzfoGSIDOnDplYvfC/HzEO4Wlg0CHBOZv3TIimjp9monWp8qE7dPFtEFfg8JZyMQKsbFDPaAbCLQJpGNjJg0yRbO+ARKgyxcvmtj94fXr7WnjOwiAgC+B69euGRFduXSJidanyoTt08W0QV+DwlnIxAqx0VcAaAcCFgLp2JhJg0zRrG+ABGjuxg0Tuz+4csWyCphBAASsBK5cumREdGtujonWp8qE7dPFtEFfg8JZyMQKsdF64uEAAT8C6diYSYNM0axvgARofXXVxO4zp075LQqtQAAE3hA4PTlpRHRnfZ2J1qfKhO3TxbRBX4PCWcjECrHxzRFHCQQ6IpCOjZk0yBTN+gZIgP796JGJ3YcOHuxojegEAlEToG8X+uqrr5hofapM2D5dTBv0NSichUysEBujVjUWH4JAOjZm0iBTNOu7L6l38/Xp06eD77xjcqClxcUQq8YzQCAWAou3bxv5HKjXnz592o0e0bc4BBAbY9Ew1tkbAr2OjQESoGaz+f7UlIngFy9c6A0KPBUEqklg+vx5I5/3z54tzv2NmXRPALGxmqLFqnIh0OvYGOBXYK1Wi/6qe2x4OBcyGAQEKkJg5NgxkwB19gdAYT8dlb1orFeTFEFvY/PG0Pfjjz4ym4vYWBHFYhl5EaCx8ZOPP04iScC4ESYBevz4sRF5vVZbWlrKiw/GAYFyE1heWqLaefLkiS1d0O0Bg4I+EPNiXAaEVZ8/f073F7Gx3HLF7HMkwGLjd999l4grYMwJkwA1m80To6NG5ydGR3OkhKFAoMQExkZGjHAmTpxoNpvsBvWsBgwKniMGD0ZVHbcxPm62GLGxxFrF1PMlQGPjZKNh4kPAWBcsAbq7sWFEXq/V5vGR0PmeFYxWRgK35uaoau5tbiIBMmFOLwQMgvpAzNvBuJ8+eEB3GbGxjFLFnHMmwGLj1mefGSV2oEFb32AJULPZHCcvAh07ciRnXhgOBEpH4OjQkLkaT46PBxS2EbxPAeP6UEradMYKsbF02sSE+0uAxUaq0M40KOo3ZAL0n6+/NtG8Xqvh7WD9PUAYveAE6Bsc6rXaN48fBxQ2jRfOMsZ1IjINOmOF2FhwMWJ6hSKQjo1GgGHf8BEyAWq1Wpemp2kOhBd7C3WqMJniEGAv8M5cuRJW2DReOMudXerJY9HXiTdpgNhYHPVhJkUmIMZGqrKAMSdwAvS/b7+lH4p4cGBgfX29yKwxNxDIn8Da2tqBgQHzo8KBen3n+XMkQDTGOcsBg6BzLNqg43ERG/MXGkYsHQFbbAyiwXSMDZwAtVot9hd/x48cuX//fum2ARMGgR4RuHfv3tHDh032U6/VPt/aSuTd8eWaFjaNF84yxnUiMg26YcXeKYLY2COJ4bElJaDERiPAsLEufALUarVuz8/T+D7ZaJR0PzBtEAhO4OTEBFXH0uKi0XY3lyv6GozOQh9ZXb96le4+YmNwfeGB5SWgxEYq6oD67UkC9MMPP5x77z2q89Hjxzc2Nsq7MZg5CHRPYGNjY5h86PPuGwXOn++RsOljneWAAcU5Fm0Q4bjPnj1DbOxeSnhCxQg4Y2OP4kZPEqBWq/Xy5Uv60Yj1Wm3o0KGVlZWKbRuWAwKeBFaWl4cOHaI/FTROnPj+++97JGz6WGc5wkSkj5+3hNjoKRk0i4SAT2ykQSxgvOpVAtRqtXZ2dtgrWgfq9bmbNyPZVCwTBAyBuZs3B+t1mv1MTkzs7OxQVYf93TZ7sl4NGFD0gZg32nERG400UIicgGdspKEjYNzoYQKUvA7E3vxZr9UmG4211dXIdx3Lj4TA2uoq+zGgXqtdmp5mr/0k8g4obBovnGWM60RkGoRi9fLlS8TGSIIAlikSyBQbjQDD/qDY2wQomfTqygr92bdeqw3s3z91+vSdO3dELjCCQAUI3FlfPz05yU5+vVZbXVmhYqblUJcrfaZPGeP6UErahGWF2FgBpWMJWQl0EBupQgNqMI8EqNVq/euLLw7s/RVAkgZNjI1dnZ3dvHs3K0G0B4FiEti8e3d2ZmZ8dHRg/36W/Ryo1x89fEiVzMoBhc2erFcxrs6HeoOzQmwsppAxq+AEuomNPdJgTgnQ7stWz559cPkyuxJMdXxs7NrVqwsLC8tLS2urq3jLWPDDhwf2gsDGxsba6ury0tLCwsK12dnxsTFzpFnhg8uXv3X9p/fglyuNGkoZ4ypwmKsXrBAbe6FNPLO/BMLGRirDgBrMLwFKFvDkm2+mTp1idwOqIFBhAu+dOfPf7W0qYFs5oLBtQ4h2jCtiEY29Y4XYWOEggKWJBPxjIxVjQA3uS56V89cHn3wyOjwsEoERBCpDYGx4+NMHD3IWF4YrNQHExsrIHwtRCBQkNvYnAUoi1MMvv1yYn2+MjyuY4AKB0hE4OT6+MD//6OHDUt/EmHwfCSA2lk71mLAPgaLFxrx/BUZfyErKzWZze3v7n1tby4uL12ZnL5w7N9loHD969CD5b5E+ZNEGBHImcHBgYPjo0clGY/rcuWuzs8uLi59vbW1vb/fxQ/bS+vKxJDe9T8t0G/RNM7FZOmD14sWLJDZevnjx7JkziI05axzDdUZAjI0vXrww0uhAC73oW4gECBeG2Vq9UJBDo0+SeTFnBkSpgpUCh7nAigFRqmClwGEusGJAlGoFWCEBUvbX6qrAxlvXJjmwXomKbAMrmYtkBSuJimwDK5mLZAUriYpsi5wVEiD5WOjWyA+NDod5wYoBUapgpcBhLrBiQJQqWClwmAusGBClWgFWSICU/bW6KrDx1rVJDqxXoiLbwErmIlnBSqIi28BK5iJZwUqiItsiZ4UESD4WujXyQ6PDYV6wYkCUKlgpcJgLrBgQpQpWChzmAisGRKlWgBUSIGV/ra4KbLx1bZID65WoyDawkrlIVrCSqMg2sJK5SFawkqjItshZIQGSj4VujfzQ6HCYF6wYEKUKVgoc5gIrBkSpgpUCh7nAigFRqhVghQRI2V+rqwIbb12b5MB6JSqyDaxkLpIVrCQqsg2sZC6SFawkKrItclZIgORjoVsjPzQ6HOYFKwZEqYKVAoe5wIoBUapgpcBhLrBiQJRqBVghAVL21+qqwMZb1yY5sF6JimwDK5mLZAUriYpsAyuZi2QFK4mKbIucFRIg+Vjo1sgPjQ6HecGKAVGqYKXAYS6wYkCUKlgpcJgLrBgQpVoBVkiAlP21uiqw8da1SQ6sV6Ii28BK5iJZwUqiItvASuYiWcFKoiLbImeFBEg+Fro18kOjw2FesGJAlCpYKXCYC6wYEKUKVgoc5gIrBkSpVoAVEiBlf62uCmy8dW2SA+uVqMg2sJK5SFawkqjINrCSuUhWsJKoyLbIWSEBko+Fbo380OhwmBesGBClClYKHOYCKwZEqYKVAoe5wIoBUaoVYIUESNlfq6sCG29dm+TAeiUqsg2sZC6SFawkKrINrGQukhWsJCqyLXJWSIDkY6FbIz80OhzmBSsGRKmClQKHucCKAVGqYKXAYS6wYkCUagVY7UvWgK8gAAIgAAIgAAIgEA8BJEDx7DVWCgIgAAIgAAIg8JoAfgWmvMJndSXwrG7Vgb4qnj1OsNqDQ62AlYpnjxOs9uBQK2Cl4tnjBKs9ONRKQVghAVJ3yeIsyOZZZiebMWeZi2QFK4mKbAMrmYtkBSuJimwDK5mLZAUriYpsY6yQAMmYdCuDqDdmXvRlQJQqWClwmAusGBClClYKHOYCKwZEqYKVAoe5CsIKCRDbF69qQTbPa67tRphzm4T7O1i5GbVbgFWbhPs7WLkZtVuAVZuE+ztYuRm1WzBWSIDaYLJ8ZxCzdG2hrz8usAIrGwGcDRuZtB2s0kxsFrCykUnbK8AKCVB6W92WCmy8e5GkBdZLYDiKYOUARNxgRWA4imDlAETcYEVgOIqRs0IC5DgfojvyQyMysRnBykYmbQerNBObBaxsZNJ2sEozsVnAykYmba8AKyRA6W11Wyqw8e5FkhZYL4HhKIKVAxBxgxWB4SiClQMQcYMVgeEoRs4KCZDjfIjuyA+NyMRmBCsbmbQdrNJMbBawspFJ28EqzcRmASsbmbS9AqyQAKW31W2pwMa7F0laYL0EhqMIVg5AxA1WBIajCFYOQMQNVgSGoxg5KyRAjvMhuiM/NCITmxGsbGTSdrBKM7FZwMpGJm0HqzQTmwWsbGTS9gqwQgKU3la3pQIb714kaYH1EhiOIlg5ABE3WBEYjiJYOQARN1gRGI5i5KyQADnOh+iO/NCITGxGsLKRSdvBKs3EZgErG5m0HazSTGwWsLKRSdsrwOr/0af2tI3sXDsAAAAASUVORK5CYII=;" parent="1" vertex="1">
          <mxGeometry x="520" y="260" width="272.12" height="90" as="geometry" />
        </mxCell>
        <mxCell id="Ro_wl2eX1ZjcW0Jhb9m2-51" value="" style="shape=image;verticalLabelPosition=bottom;labelBackgroundColor=#ffffff;verticalAlign=top;aspect=fixed;imageAspect=0;image=data:image/png,iVBORw0KGgoAAAANSUhEUgAACeoAAAD6CAIAAABbbXIHAAAgAElEQVR4Aey9eVRUS57vq8g8yyyikMmUAiqi4ISzogcHnA56nHBEj9PxgMpRnEVRUHACET2gTMoMyZzMmZCZZHK7q9fqqbr73Vf1enX1H7deV6++VXVrWsu3ntEVREXunQNk7px+uc7yRMSOHfGLT8Tvm7Hzx9572mftPr/68tGuLl0LzqWJsOeBFTsb+giwoomw54EVOxv6CLCiibDngRU7G/oIsKKJsOeBFTsb+giwoomw54EVOxv6CLCiibDngRU7G/oIsKKJsOeBFTsb+giwoomw54EVOxv6CLCiibDngRU7G/oIsKKJsOeBFTsb+giwoomw54EVOxv6CLCiibDngRU7G/oIsKKJsOcpVtPYa/7FEeq0vzimKQPnaiI0cRxYTbDQlAJWmghNHAdWEyw0pYCVJkITx4HVBAtNKWClidDEcWA1wUJTClhpIjRxHFhNsNCUAlaaCE0cB1YTLDSlgJUmQhPHgdUEC00pYKWJ0MRxYDXBQlMKWGkiNHEcWE2w0JQCVpoITRwHVhMsNKWAlSZCE8eB1QQLTSlgpYnQxHFgNcFCUwpYaSI0cZxiBeHbCTRkisJEHtKYhnM1IsIVgBVGoTEBrDQiwhWAFUahMQGsNCLCFYAVRqExAaw0IsIVgBVGoTEBrDQiwhWAFUahMQGsNCLCFYAVRqExAaw0IsIVgBVGoTEBrDQiwhWAFUahMQGsNCLCFYAVRqExAaw0IsIVgBVGoTEBrDQiwhWAFUahMQGsNCLCFYAVRqExoUdWEL5lpq1HxMwdsJRCvyxgGIqBFQMUliJgxQKGoRhYMUBhKQJWLGAYioEVAxSWImDFAoahGFgxQGEpAlYsYBiKgRUDFJYiYMUChqEYWDFAYSkCVixgGIqBFQMUliJgxQKGoRhYMUBhKQJWLGAYioEVAxSWImDFAoahGFgxQGEpAlYsYBiKgRUDFJYiYMUChqEYWDFAYSmiWEH4lpkThYm5EkspnMsChqEYWDFAYSkCVixgGIqBFQMUliJgxQKGoRhYMUBhKQJWLGAYioEVAxSWImDFAoahGFgxQGEpAlYsYBiKgRUDFJYiYMUChqEYWDFAYSkCVixgGIqBFQMUliJgxQKGoRhYMUBhKQJWLGAYioEVAxSWImDFAoahGFgxQGEpAlYsYBiKgRUDFJYiPbKahtqCf4EAEAACQAAIAAEgAASAABAAAkAACAABIAAEgAAQAAJAAAgAASAABIAAEAACQMC4BCB8a1z+0DsQAAJAAAgAASAABIAAEAACQAAIAAEgAASAABAAAkAACAABIAAEgAAQAAJA4L8JwMOTme9wRniYj2kqhXM1EZo4DqwmWGhKAStNhCaOA6sJFppSwEoToYnjwGqChaYUsNJEaOI4sJpgoSkFrDQRmjgOrCZYaEoBK02EJo4DqwkWmlLAShOhiePAaoKFphSw0kRo4jiwmmChKQWsNBGaOA6sJlhoSgErTYQmjgOrCRaaUsBKE6GJ48BqgoWmFLDSRGjiOLCaYKEppUdWEL5lhq1HxMwdsJRCvyxgGIqBFQMUliJgxQKGoRhYMUBhKQJWLGAYioEVAxSWImDFAoahGFgxQGEpAlYsYBiKgRUDFJYiYMUChqEYWDFAYSkCVixgGIqBFQMUliJgxQKGoRhYMUBhKQJWLGAYioEVAxSWImDFAoahGFgxQGEpAlYsYBiKgRUDFJYiYMUChqEYWDFAYSmiWEH4lpkThYm5EkspnMsChqEYWDFAYSkCVixgGIqBFQMUliJgxQKGoRhYMUBhKQJWLGAYioEVAxSWImDFAoahGFgxQGEpAlYsYBiKgRUDFJYiYMUChqEYWDFAYSkCVixgGIqBFQMUliJgxQKGoRhYMUBhKQJWLGAYioEVAxSWImDFAoahGFgxQGEpAlYsYBiKgRUDFJYiPbIy0fDtH37/+7//u78bGhxsbmysqar6UF7+uqioID8/LzcX/gMCJkugID+/pKjoQ3l5fW1tR1vb8ODgP/z93//h97/HjqxH18VtapOAfrWhhOqYESvQSZOVAjBMDQHQSUqOzEhzsOVmZ/Mffv/7caWyu6uro62tvrYWdpVqPBQOmQ4BNWppdj74+fNnsBlLqMYEx6xgP2k6Xg+WaE9AjUIiF+PYj7BfQ78YhcaEGbECndTeN6Gm6RAAnaRUyIw0B1tuRjZTOln5/j3EcUxHDcASNQRePX/+tqSk4v375sZG6ejo//Uv//K73/3O1HzQtMK3v/3tb3/y13/dUFv7NC9PDVk4BATMiMDTvLyGurq/+clPfvvb35rRV6+pSRW2R5uEZXMGnTQj9wdTtSQAOqmNsqnWsWytm/p4QS21dECoZkYEkFrKZbJ///d/V/URbUpAN7ShhOpYNitQSDNyfDBVSwKwn9Re38ialq115Eh11XbQSS1dD6qZEQHQSVVN0KYEdJKNEuikGbk/mKo9gY9VVQq5/L/+679MxPdNJXz7r//6r59qarTnCDWBgDkSqKqo+Kef/pTta099uYlIhnojqaNgMwVETVYbVqCT5uj1YLOuBEAn1QgFdUgb3aBOwVnLPhfUUle/g/rmSKD248df/Nu/YafWMmHZvq8KAcarygQU0hz9HWzWlQDsJ1V9n60EdFKVDOikrh4H9c2RAOikqu+zlYBOqpIBnTRHrwebdSKQ/+hRQ12dKcRxjB++/eX/+l8NtbU64YPKQMCsCTTW1//yl79U/fJTXwLbBfV8yKOWxwp00qxdHoyfBAHQSVLT2NKWp3VsI0Xl2owX1HIS7ganmDUBXdVSGz9i80Q4l42MarlpsgKFNGtnB+MnQUBXhdR+v6Hq9XAuGxO2ctDJSSxpOAUI6J0A6CSbRpHlpqlXpIWqacPZDPtJvbshNGjiBKoqKn7+s5+pepn6Ej36oDHDt//5q1+1tbayzVDhkydVFRUtzc2dHR19fX0SiWRMLh+HDxAwYQJjcrlELO7r6+vs6Ghuaqr88KHwyRO2Fd4uFP7nf/6nelcnj+rR7clmNaahX42IcAVDsAKdNGGPB9MmQwB0EisGShhCN6guGLOW1y+o5WQcEs4xYQIGUkvL831GicOFMF6EAhTShH0dTJsMAQMpJPIX0A0soRoTlsQKdHIyrgjnmDAB0ElKwSxJr6ihMWYNMd5f/cd/qInjPHv6dCKO09sLcRwTlgcwbYKAVCoVi8UD/f0d7e2VHz68fPaMLY4jbGn59a9/zehujIV69EGjhW//8R/+4cnjx6pEXj579unjx/7+/gmQkAIC5kygv7//U00No/8/zcv753/6J0YnVy3Uo9urNq6mBPpVA4c6pHdWoJPm7Ppguw4EQCcpMdEyq3fNMd9+QS118Deoas4Epq6WoBtaCt3nz58thhUopDk7PdiuA4GpKyTSB4vxfS3lDsb7+fNn0EkdPA2qmjMB0EkthZGqBjr5+fPnv/vbv1UN4uTl5r58/vxTTQ3EccxZGMD2vyAwODhYX1dX/PKl6oJ/VlDwk7/6K0of2LJ61A3jhG+Hh4ZUEZQUFfWKRH8BDDJAwIIIiHp6XhcVqa780ZERNlcny/Xo9mSzGtPQr0ZEuIJ+WYFOWpD3w1C0JQA6ifVEm4R+NUebHlEdU+sX1FJbB4N6FkRg0mppav6rjfKAzdpQYtNnUEgL8nsYirYEJq2QbH40FR+Ec9kImI62g05q61pQz4IIgE6ySRNjuenoFaN5jIX6tRl00oK8H4aiLYFekejtmzeqcZy6T5/++Mc/MvodWahHH+Q6fPuHP/xB9U23RS9f9nR3awsP6gEBcybQ3dWl+hccTQ0NGj1fj25PqonGNPSrERGuoC9WoJPm7OJgux4IgE5iVVGf0JfmqO9F9ajp9AtqqQd/gybMmcAk1NJ0/FdVW9hKwGY2MqrlJCtQSHN2brBdDwQmoZDIp0g/UvUy9SVwrno+5FFTYAU6qQdPgybMmQDoJClKatKmoFdqzGM8pC+bQSfN2cXBdj0Q6O/rU32ialVFxe/+z/9hdD1cqC8f/Pz5M6fh21//+tdl795RUeu62lo9sIQmgIBZEaj79IlyhPdlZeofoa5Ht8dSok0C+tWGEqqjF1agk2blymCsAQmATmoUH71ojsZeVCuYSL+glgZ0P2jarAjopJYm4r+qwqKmBGxWA4c6hFmBQpqVE4OxBiSgk0Iih8J+RPmXNlk4VxtKJsIZdNKAjgdNmxUB0EmNwmW12v7r//2/IY5jVt4MxhqKwKePH6k4zrvSUs7iONyFb//4xz+W/2XstiA/H56WbKhlBe2aPIFekehpfj7p/O9//FHNPbhWu13QuJFSrWC+rEAnTd5xwUBOCYBOquobWWK+WkeOQvs0OV5QS05dETozeQLaqyXpR9p7H6oJ52pPzLisQCFN3mXBQE4JaK+QoHXaq5y5swKd5NQJoTOTJwA6qV79jLuvU28b29Gp2/zrX/+6tKSE/NUa4jgm78pgoAEJ9Pf3P3v6lPSID+Xl3MRxuAvfNtbVkSMsfvVqdGTEgFChaSBg8gRGRkaKX70i/aKxvt5wX71sLasvn/pXvvr22Y5aZ7+gkybvtWAg1wRAJ9lE8vPnz9apkwgIqCXXrgj9mTwBLdXSmnVDjZwyHjJfVqCQJu+vYCDXBLRUSCQF5uv7jFKmsdA6xws6ybUTQn8mTwB0Uo1aWqFO/sd//Ad13+3roiKI45i8H4OBhiUglUpLiou5j+NwFL7tE4nIsX0oLzcsTmgdCJgPgfdlZaR3jEgkjJsGK9wu/OpXv2JEobHQTFmBTpqP14KlXBMAnWTUPTPVuqlr+4hYTH5vwq6Sa4eE/kyYgEa1tFrdYFRR9YVmygr2kybsoGCakQloVEikCWbq+1PfX6mXRMajZsoKdNLIrgjdmzAB0ElL0rqpfC90trfDFbcJeyqYZkwC3OskF+Hbv/6rvyJ9vqSoSKlUGhMz9A0ETImAUql885d/u/GP//APqjsGM700msp2warOBZ00JacEW0yOAOik6peC1d59+9N//EfYVZqci4JBJkNAo1rCfpJRThkLzZEV7CdNxhfBEFMkoFEhkRSYo++DzYwyzlgIOmmKzgk2mQwB0ElG3bA2jf2r//E/4IrbZJwSDDE5AtzrpMHDt7/5zW+e5uVht3/x7JlMJjM58GAQEDAqAZlM9rygALtJ4ZMnv/nNb6hNg7VtF6xqvKCTRvU/6Nw8CIBOUl8K1hm+/cUvflFAvDYedpXm4b1gJbcE1KulVe2vrE0nYT/JratBb2ZJQL1Cor0W6KTqnpOtxOxYgU6apd+C0dwSAJ1UVTyz07qp7IH/31/+EuI43Poc9GZ+BDjWSYOHb3u6unBQ6mlenkQiMb85AYuBgOEJiIeHyS/Inq4uasdgVduFqWw1zPFc0EnDexj0YAkEQCfhe6GttRV2lZbgzDAGAxNQo5awn6SEVE3W7FjBftLAjgXNWwgBNQqJBMHsfN8cr3+NZTPopIW4MQzDwARAJ6n9oVV9L1S8fw9X3Ab2MGjeEghwqZPTkAYZ6N//+3/+T+zzebm5op4eS5gfGAMQMAyBnu5u0l9+/rOfGcgxoVmTIgA6aRh/glYtkwDopEnJF8fGgFpaplfDqAxDANSSY4EyenegkIbxJGjVMgmAQhpdsoxiAOikZfozjMowBEAnjSJTRu/0b37yE/J3aWFrq2HWF7QKBCyBAGc6adjwbU1VFXb76spKS5gZGAMQMCSByg8fsMt8rK42+jc3GMABAdBJQ7oUtG2BBEAnOdAl0+wC1NIC/RmGZEgCoJamKWUGsgoU0pDOBG1bIAFQSANpkSk3CzppgZ4MQzIkAdBJUxY0A9n2rrQU/yj96vlzQ64vaBsIWAIBbnTSgA9P/n9+/nPs83m5uaMjI5YwLTAGIGBIAiMjI6TX/PxnP8OP7EDfzTirUwLO1R4Xx6xAJw3pT9C2ZRIAncSCxrFeGbdfUEvL9GcYlSEJMKqlVemGsR7OyX2/oJCG9CRo2zIJMCok2uqATuItn8aEGbECnbRMT4ZRGZIA6CTWQDPSuqnY/E8//Sn5i3RfX58h1xe0DQQsgQA3OmnA8G19bS12+6qKCkuYExgDEDA8gaqKCuw49bW1U/nqhXMxAe0THG/LQCcN71LQgwUSAJ1EmsaxXmEhNUq/oJYW6MkwJMMTUFVLo/gv9+FM4+oV9+MFhTS8M0EPFkhAVSGtcH/FvV4ZS59BJy3Qh2FIhicAOmlV3wvv3rzBP0dXfvhg+PUFPQABSyDAgU4aKnz7+9//Pv/RI+T2+Y8ewa23lrAeYQycECD/cOPJ48e//93vrGq7YKzLOaP0CzrJiUtBJxZIAHTS2r4XQC0t0I1hSJwQUFVLCN/iLZ/GhLmwAoXkxJmgEwskoKqQ1ra/sp7xgk5aoAPDkDghADppPTr5i3/7Nxy7zcvNlYjFnCwx6AQImD0BDnTSUOHbv//bv8VuX/bundlPBQwACHBI4Me3b7H7/P3f/Z31bBfQSK1nvKCTHHoVdGVpBEAnreduic+fP4NaWpoDw3g4JECppbmEJK1tTziV8YJCcuhP0JWlEaAU0nquQ6eiOeZ4LuikpbkujIdDAqCTVnLdPSqR4B+i37x+zeESg66AgNkTMLROGip829LUhN2+tbnZ7OcBBgAEOCTQ0txMug9cRpKXiNqkzeWnSdBJDr0KurI0AqCTVnIZiTQf1NLSHBjGwyEBSi3NZY9E7vfAZpKGahoUkkN/gq4sjQClkMi/QHNUdYatxFxYgU5amuvCeDgkADppJdfd1cSL/IStrRwuMegKCJg9AUPrpEHCt3/6058K8vNx/Gl0dNTs58HEBqAgPkqlkrRudHS0s7OzqqqqsLAwOzv79OnTqampSUlJy5cvj42NDQ8Pnz17tpeXl7Ozs6Ojo5OTk6urq7e39+zZs8PDwxcuXLh8+fKkpKTU1NTTp09nZ2cXFhZWVVV1dnZSk6hUKgkTFMgA5ZfP+Pi4VCoViUTd3d1isVgmkykU/12BtBPSagiMjo5i9ynIz//Tn/5kJdsF8rLQXC4FJ20z6KQaF4BDQEAjAdBJ6/leALXU6A5QAQioIUCp5S9/+ctf/epX5O5F+7TF780oFGYxXlBINYsfDgEBjQQohYTrbkoGNWZBJzWuMahAERgaGuro6KioqPhRi09FRUVnZ+fw8DDVCGS5JAA6aQ3X3X/4wx/wGzCfPH48NjbG5RqDvoCAuRMwtE4aJHz7L//8zzj4VPzypbnPganZj6KkOHoql8tHRkZ6e3vb2trq6+vLysoKCgpu3rx54cKFw4cPp6SkrFu3Lj4+PiYmJiwsbM6cOb6+vu7u7k5OTg4ODiiC6+Hh4evrO2fOnLCwsJiYmPj4+HXr1qWkpBw+fPjChQs3b94sKCgoKyurr69va2vr7e2VSCRyuRwboFAokElKpVIul4vF4vb29rKysvLy8u7ubqlUisK3OLhrajxN056iFy+wE/3LP/+zNWwXqItDs7gUnIrNoJOm6XpglRkRAJ20eJ1EGgtqaUZeCaaaJgFSLf/mJz+B8C21f2PLmoXGgkKaptOBVWZEgFRIuO5m00O2ctBJM1rqRjdVKpXm5eUlJCS4u7tPnz59mhaf6dOne3h4LFu27MmTJ3K53OhDsFoDQCfNQusoodbJ5n/66U/xT9Bv37yx2qUOAwcCkyZgUJ00SPh2RCzGbl/76dOkRw4nkgTIqC2+4xaFS4VCYWlp6d27d8+ePbtnz561a9cuWrRIIBDweLygoKCAgAAfHx9PT093d3cXFxcUuLUjPg4ODk5OTi4uLm5ubp6enj4+PgEBAUFBQTweTyAQLFq0aO3atXv27Pn222/v3Lnz5s0boVAoFovx5kmpVI59+SiVSrFY3NTUVFhYmJ6efvHixZqamtHRUQjfkvOoZfpTTQ12ohGJBMK31EZEfVanbQrVFGfngk5q6QtQDQiwEQCd5EyvjKWTqF9QSzYXgHIgoCUBUi37enshfEtpGlvWLDQWFFJLL4BqQICNAKmQcN3Npods5aCTbOsKylUJPH782NfXV4ugLUMVX1/fFy9eqLYJJdwQAJ00C62jhFonm0eIF99+qqnhZl1BL0DAkggYVCcNEr7t6erCkaeO9nZLmgxjjQXf3orueUVR266urrq6ujdv3ty/f//bb79NSUlZtmxZaGiot7e3k5OTvb09EaL976Ttnz8o/+fcf/9ftb69vb2Tk5OXl1doaOjSpUt37Nhx5syZe/fulZSU1NbWdnV1occjy+VymUw2Ojra3Nz86NGjo0ePrly5cvv27W/evBGLxeipC8hyYwE0u37b29qwE4m6uyF8S21E1Gd12qZQTXF2Luik2XklGGxqBEAnOdMrY+kk6hfU0tRcD+wxOwKkWra1tkL4ltI0tqxZaCwopNn5IxhsagRIhYTrbjY9ZCsHnTS19Wyy9gwNDS1evJghMKt10apVq/r7+012gJZtGOikWWgdJdQ62dzT3Y1/gm5va7Ps9QyjAwKGIGBQnTRI+LapoQG7fa9IZAgoVtUmCnxSd9w2NTU9ffr0woULKGorEAiCgoJ8fHzc3NwcHR3t7e3xs5GdvnwcHR0dHBzs7OyokC3O2tnZMZ5ib2/v6Ojo5ubm4+MTFBQkEAhQHPf8+fNPnjxpbGwcGhpCsdvu7u7nz5+npKQgY9auXfvixYvh4WEI305iuZLfnc2NjRC+pTYi6rM6bVOopjg7F3RyEn4BpwABkgDoJGd6ZSydRP2CWpLLHtJAYBIESLWs+/QJwreUprFlzUJjQSEn4RFwChAgCZAKCdfdbHrIVg46Sa4lSKshIBQKnZ2dtY7VMlT08fFpampS0wUcMhwB0Emz0DpKqHWyubmxEcdx+np7DbeWoGUgYKkEDKqTBgnfVn74gN1+aHDQUieGm3EplUp836pMJuvv729qaiotLb19+/ahQ4cSExNDQkLc3d1RaJa8fZYxFqtr+Fb1Fl4HBwd3d/eQkJDExMSDBw/evn37zZs39fX1dXV1L1++PHPmzLx589BzmNELKvr7+2Uy2fj4OB4FN9zMvZeB/n7sRNUVFRC+pTYi6rM6bVOopjg7F3TSZJ1UIpHU19c/f/48Kyvr8OHDBw4cOHLkyIkTJ86cOXPhwoWMjIzc3NyGhgb0hykmOwprMAx0kjO9MpZOon5BLa3BnWGMBiVAqmVFeTmEbylNY8uahcaCQhrUd6BxayBAKiRcd7PpIVs56KQ1+IhexlhSUqLl+24ZIrdfimxsbN6/f68XY6ARXQmATpqF1lFCrZPNVUQcZ3h4WNcVAvWBABAwqE4aJHz7prgYR55GR0dhCidNgLrvtr+/v6ysLDs7e8+ePQkJCWFhYX5+fq6urih2i15hq/pqWzKmS95ri8sZC/FRdFcuuoUXd+Tq6urn5xcWFrZs2bI9e/Zcvnz56tWrqamp8fHxvr6+6G7dpUuX5ubmdnZ2ojUA4VudloGEePHA25ISCN9SGxH1WZ22KVRTnJ0LOqmTRxiuskKhkEgkPT09z58/T01NTUhI4PP5IVp8BALBtm3bLl++/Pbt256eHviyM9wcsbUMOsmZXhlLJ1G/oJZsLgDlQEBLAqRavikuhvAtpWlsWbPQWFBILb0AqgEBNgKkQsJ1N5sespWDTrKtKyinCLx48YItLqt9+bt376hmIcsNAdBJs9A6Sqh1svnN69cQx+HGm6AXSyVgUJ00SPj2yePH2O0VCoWlToyhx4Xuux0bG5PL5YODgy0tLUVFRd99911ycnJ4eLjqHbdk+BY98djV1dXT09PPz2/27NnBwcF8Pj88PFwgEERFRcXExMz/8omJiYmKihIIBOHh4Xw+Pzg4ODAw0NfX19PT08XFBT+HmQzf4siuo6PjzJkzw8PDN2zYkJSUFBUV5efnh1676+LismTJkjt37rS0tEgkEnwPMX4EtKHpmXv7Y3I5dqJnT59C+JbaiKjP6rRNoZri7FzQSaM76dDQUFlZ2bVr177++uu4uDgej6dF0Ja5ysKFCw8cOJCTk9Pc3AzfepzNLOgkZ3plLJ1E/YJacuZT0JGlEqDUEsK3lKaxZc1CY0EhLdVtYVycEaAUEq672SSRsRx0krOFau4dQfjWrGcQdNIstI5SaZ1sJveTZr1WwXggYCwCBtVJg4RvcdgpLzfXWNTMvV98361cLh8eHq6pqfnhhx927dq1aNGi2bNno9gtfsGt6pOTUWB1zpw58+fPT0xMTE5O3rdv37Fjx86ePXvp0qWrV69eu3Yt+8vn2rVrV69evXTp0tmzZ48dO5aamvrVV18lJibGxMQEBQXNnDnT0dERx2tRAvVr/+Xj6Ojo7u4eEBAwa9YsT09PJycnXCcmJub69et1dXXDw8MQvp3EgiT9CC4jqY2I+qxO2xSqKc7OJed3EssDTpkKgbGxsYKCgo0bNy5cuDA0NJQ5JKtjKY/Hi4iISEhIOHToUHl5+VTMg3O1J0D6EegkpWbqs5xpHWXGJPolZ1n7tQE1gQAQIAmQfgThW0qX2LKT0CvcFGfnkjNLzjik09PT9+7du2jRIh03dBZePS4ubt++fd9++y2sEJIA6Uewn8Q6pk2CM62jjNGpX3J+yXmHNJcEIHzLJW1D9EX6EegkpUjqszrpFdUUZ+eS82uI9QNtAgFrIED6kX51EsK3prh+ULBTLpdLJJKOjo53795lZWVt3rw5LCzM3d0dB1Op8K2jo6Onp2dAQACfz1+wYEFiYuL27dvT0tK+++67GzduPH78+OXLl+/evauoqPj48WNdXV3Dl09dXd3Hjx8rKirevXv34sWLR48eZWdnX7x48fDhw9u2bUtMTJw/fz6PxwsICPD09ERxYhy+RZbY2tpik/BzmG1tbQUCQWZmZnV19eDgIIRvJ7HODOf21IZAfZaz7QJlhsX3S87vJJYHnDI5AhKJpJcZRwMAACAASURBVLq6etu2bVO511abH/ZSUlIaGhrkcvnk7ISztCRA+pF+t0eUIqnPWrxeUcPneLzkLGu5MKAaEAACFAHSjyB8S2kaW5ZjrcNm6NQvObPUpFt59vbt22fPnl2zZo1AINDyvRjabPDMt05oaKhAIFi3bt358+fv3r1r5cuDGj7pR7CfxFqkTUInvaIa5Oxccn6pqYcsZwQgfMsZagN1RPoR6CSlZuqznGkdZYZO/ZLza6AlBM0yEpDL5T09PcXFxadOnUpOTt68efPBgwcfPnzY1tY2MjLCeAoUmiwB0o/0q5MQvjW5Scf33UokEqFQWFhYePDgwSVLlsyZM8fd3R09zdjR0ZG649be3t7b2zsmJmbTpk1paWlZWVn5+fmlpaXV1dWNjY1CobCzs1MkEvX19Q0MDAwNDQ0PD4u/fIaHh4eGhgYGBvr6+np6ejo7O4VCYWNjY3V1dWlpaV5e3pUrVw4fPrxhw4Z58+Z5enriSC2ZQHfi2tvb29nZ4QhuRETE+fPny8rK+vv7IXw7iXVmOLenvtTVZ3X6yqeagnMpIGSWnN9JLA84RVcCUqn01atXqampkZGRHPz0xuPx4uLizp8/39DQoKupUF97AqQf6Xd7RHqrxjRonUZEuMIkWJGzrP3agJpAAAiQBEg/gvAtViT1iUnoFW6Qs3PJmSVnHNItLS2vXr06dOjQ0qVLBQIBB3s/E+9CIBCsWLHiyJEjRUVFQqEQVghJgPQj2E9iHdMmwZnWUcbo1C85v+S8Q5pLAhC+5ZK2Ifoi/Qh0klIk9Vmd9IpqirNzyfk1xPqBNlUJKJXKqqqqAwcOzJ0718bGhnwL+PTp0728vJKSkgoKCmQymeq5UGKaBEg/0q9OQvjWtGYchTllMtnw8HBDQ0N+fn5aWtr8+fM9PT3RQ4ypO24dHBw8PT2DgoLmzZu3evXqgwcPZmVlvXjx4tOnTz09PSMjI9RbGJVqPyQLhUIxMjLS3d1dU1NTWFh45cqVb775ZtWqVQKBYNasWR4eHuRDlcnwLY7ghoWFnTp16vXr1yKRCMK3JFst04Zze2pDoD7L2XaBMsPi+yXnV8slAdUmTWBkZOTEiRPR0dEc/7LG4/GWLl169+5dqVQ6aePhRDUESD/S7/aIUiT1WYvXK2r4HI+XnGU1iwEOAQEgoIYA6UcQvqU0jS3LsdZhM3Tql5xZNQvACg8pFIrW1tY7d+7s27cvISEhLCzM0E9e4XiTqX13PB4vPDx86dKlBw4cuH//fltbG/UTgRUuD2rIpB/BfhJrkTYJnfSKapCzc8n5paYespwRgPAtZ6gN1BHpR6CTlJqpz3KmdZQZOvVLzq+BlhA0SxF49eqVauCWDOJOmzZt5syZp0+fhttwKXQmmyX9SL86CeFbE5p0fN/t8PBwfX19Tk7O1q1bw8LCvLy80O22jl8++L5bW1tbT0/PmJiYrVu3Xrx4MT8///379y0tLT09PUNDQ1KpVKFQKJXK8fFxHD1FXaj/lzxFKpUODg52d3c3Nze/f/8+Pz//woULmzZtioyM9PDwIB+bTN6MiyK4PB4vLS3t2bNn3d3d2ADUuAlBN2FTDOf21Je6+qxOX/lUU3AuBYTMkvNrwsvQEkxTKpU3btwIDw/X/ncuVJPH4/H5/PAvn7CwsNDQ0En/8Ldr166+vj4QQL2vJ9KP9Ls9Ir1VYxq0TiMiXGESrMhZ1vsSggaBgJUQIP0IwrdYkdQnJqFXuEHOziVn1koWs5bDVCqVQ0NDDQ0NDx8+3L59+/z588PCwnTdClpG/fDw8AULFqSkpOTm5jY1NQ0PD2vJ0HqqkX4E+0msY9okONM6yhid+iXn13pWtamNFMK3pjYjutpD+hHoJKVI6rM66RXVFGfnkvOr69qA+roSUCgUT548sbW1pYK1jFkbG5vTp0/De9l0hWyU+qQf6VcnpyEt0O+/pLlG4WWOneL7bsVicV1d3f379/fu3RsSEoKDtQ4ODiiI6+Dg4OTk5OnpGRISsmzZsgMHDty4caOsrKyrq2t0dJRx7Dh6qj5wi+PHZCPoft3x8XGpVNrT0/P69eu0tLQlS5Z4e3urD98GBwfv27cvLy+vs7NzfHwcNU62DGn1BEg/0q+HQmumQICcX/UrAY5OkcDw8PC2bdu0/AEuLCxs1apVO3fuRC8Ov3XrVn5+fm5ubk5Ozt27d2/evHn58uW0tLQtW7bExsbqFM1ds2ZNeXk53O4wxdmkTif9yBT8GmwwBAFylqkFAFnTJKBQKKRS6dDQUE9PT4fKp7Ozs6urSyQS9ff3Dw0NSSQS8i8OTXNEFmAV6UeG8FNo01gEyJm1gIWq3yEoFIrR0dGPHz9eunRp8+bNCxcu1GnnpuXW0cSr8Xi8hQsXJicnZ2Rk1NbWIr3VL2cLaI30I2P5MvRrOALk/FrAcjXTIUD41kwnDptN+pHhvBVaNhYBcn7xpEPCQASKior8/PwYg7WMhTNmzDh//jz8lmig6dBjs6Qf6deXIXyrx2mafFM4bioWixsbGx88eLB58+bg4GBXV1c7OzuHP3/Qy2WdnJy8vb3nz5+/f//+W7duvXv3TigU9vf3j46OotttcYwWR16xZWqfnfz/36dLflDQd2xsDDcrlUqrqqpOnz69dOlSHx8fZBt6HS9+fjJ+L++cOXN27dp1//799vZ2CN+SYLVMG87t9Ssi0NrkCJDzq+WSgGqTI9Df3798+XKNP64tXbr04sWLlZWVnZ2d/f39EomEcXukVColEklvb69QKKyoqDh79mxMTIzGxlGF+Pj4169fT24UcBYjAdKPJueJcJbpEyBnmXEZQKGpEUB/8Pfx48cXL148/PJ5QHwePXr09OnToqKisrKyjx8/trS0iEQiiUQyNjYGjygw3FSSfmT6Xg8Wak+AnFnDrR8zbRldzPb29paXl1+9enXt2rXW9ghlHo8XFha2fv36rKysDx8+9PX14adzmemcGshs0o+09z6oaS4EyPk10BKCZjUSgPCtRkQmXoH0I3PxfbBTewLk/Jr4UjR388Ri8erVq6mX3U6bNm369OkBAQFz5861s7NTDeJ6e3t/+PDB3Mdu8faTfqS992lTEx6ebPzFgy4s5XL56Ohoc3Nzbm7uvn37QkJC8OOIUfTW3t7e0dHRw8MjODh42bJlhw4dysvLq6+vpx5/RN1oS8Vr1Y+WqozDtyiCKxaLW1pa8vPz9+7dGx0d7enpaWdnh97Fi+LKVDYwMPCrr77Kzs4WCoX4Ac7ww5z6KSCPkm6v35vuqcdxqM8iHVFfh+0onMtG5vPnz+T8kvMOab0TGBwcXL9+PWOElcfjLViwIC0trby8fNJPI5FIJA8ePFi/fr0279YNDQ19+PChTCbT+zCts0HSj0An1QiO6iEz0mdylq1znZvdqFH4tqam5unTpzdv3rx69eqlS5e+/fbb48ePHzhwYP/+/QcPHjx+/PjZs2cvX75869athw8fPnv2rKSkpKysrLq6ur6+XigUikSi4eFhmUwGW0e9LADSj+DhyaqSyFhiFjpJzqxelorlNSKVSnt7e9+8eXP06NEVK1bMmzeP9+XDuDO0mEI0xnnz5iUmJh47duzt27d9fX1SqdTy5lcvIyL9CPaTjHrIVgg6qZcVaA2NQPjW3GcZdNKy98/k/Jr7WjVx+ysrK+3t7ckAra2t7dq1a2tra5Hlvb29x48fd3Nzmz59Oq5mY2Nz7NixsbExEx+dlZtH+pF+95MQvjXy0sL33Y6OjnZ1dT179mznzp1hYWHu7u74vlscHPXw8IiIiEhOTs7Ozi4vL29raxseHpbL5ThkSw0GhWPxzbi4L+qHMDXV8CGZTNbQ0JCVlbV169bIyEhPT08HBwfy4cm2Xz445GxraxsQELBu3brMzMympiYUvsXhYcpOyDISMJzbs119MZabxSUZZblZ2EzOL+MCgEJ9EZDL5ZcvX1Z99+2SJUvOnTtXW1vLeJetrr2PjIyUl5efOHFCYxA3PDz8ypUrIyMjunYB9VUJkH6k3+0RpSrqs2ahOdQQzMhmcpZV1wCUmCAB9PDk3t7eurq60tLSR48eXbly5dixY9u2bUtISIiMjOTz+eiesMjIyKioqPnz58fGxi5btmzTpk1ff/31mTNnbt68+erVq7q6uoGBAbhXTC9TTPqRZf/8ZL5ahy3XSZ/JmdXLUrG8RpAitbW1FRQUnDp1atmyZUiCLCZSyzgQHo/H5/OXL19++vTpZ8+etbW1wWOT1axt0o9gP4m1SJuETnpFNcjZueT8qlkGcMigBCB8a1C8HDRO+hHoJKVm6rOcaR1lhk79kvPLwXKy5i5SUlJwUBYl9u/fPzg4SDJRKBR37txxd3cna8bExKB3U5I1IW1SBEg/0q9OQvjWmBONw64KhQK9Vvb06dPz5s1zcnJCIVt0362dnZ2jo+PMmTPnzZuXkpKSnZ1dV1eHnzJHNkIOBsdKyQroJzAtw7f49zKFQiGRSCoqKk6ePLly5crIyMjZs2cHBAT4+/v7+Ph4e3t7enp6eHi4ubm5uro6Ozs7OTnZ2dn5+vquXLnywoULDQ0NyDBsEmknpNkIGM7tqS919VmdvvKppuBcCgiZJeeXbQ1Aub4IDA4Onjp1is/no1+4wsPD09PTGxsb9X4XwsjIyJs3b9asWcP4UxouFAgEjx490tforLkd0o/0uz0ivVVjGrROIyJcYRKsyFm25tVudmOXy+UDAwOtra3v379/+vTptWvXTpw4sX379pUrVy5YsIDP5/v7+7u7u9vb20//8rG3t/fy8uLz+fHx8cnJyceOHcvKyiooKCgrK6urq+vo6BgcHITww6SXAelHEL7FiqQ+MQm9wg1ydi45s5NeHtZwolgsbm5ufvz48Z49e+Li4iIiIvCuzCITERERcXFxe/fuzc/Pb2lpkUgk1jDLkx4j6Uewn8Q6pk2CM62jjNGpX3J+J71I4MQpEoDw7RQBGv100o9AJylFUp/VSa+opjg7l5xfoy82yzbAy8uLDMryeDyxWKw6ZKlUmpSURNZ0dnbGd+iq1ocSUyBA+pF+dRLCt0abXxRVRf+id8qeOnUqPj7e19cXPZHYwcEB33c7c+bMBQsW7Nu3r6CgoLW1dXh4eOzLh/GGWjJeiyO1KHSqfrRkeBU3olQqZTLZwMBAZWVlVlbW4cOH9+zZs3Xr1k2bNq1Zs2bZsmWLFy+eP3++QCDg8/lz5swJDAz08fFxcnLy8fFZunTpt99+W19fj/rFbao3A44iAoZze2pDoD7L2XaBMsPi+yXnF9Y8NwSEQuG9e/fu37/f3d1t0B5lMllWVpb6d+KGhYWVlZXp5cZfg47FxBsn/Ui/2yNKkdRnLV6vqOFzPF5ylk18QYJ5JAGlUimXyyUSycDAQFdXV2tra11dXUVFxatXr+7cuZOenr5p0yaBQODh4WFjYzN9+nQbGxt7e3sXFxcvL69Zs2bxeLyoqKiEhITk5OT09PQHDx5UV1f39vbq/c9uSJstOE36EYRvKU1jy3KsddgMnfolZ9aCF/DUhzY2NiYWi2tra69fv75nz55FixZZZNQWDyouLu7rr7++efNmbW0t+rPvqTO04BZIP4L9JNYibRI66RXVIGfnkvNrwcvYxIcG4VsTnyCN5pF+BDpJqZn6LGdaR5mhU7/k/GpcDFBh0gREIhEZkZ02bVp6ejpbawUFBVTlly9fslWGclMgQPqRfnUSwrdGm18cT0V/C3z//v3Vq1f7+fk5Ozuj220dHR1RwtPTMyYmZv/+/bm5uR0dHchi/EhkHKBF5ahZ8qhCoRgZGRkcHBSJRJ2dnUKhsKmpqaGhof7Lp6GhoampSSgUdnZ2ikSigYEBdIFHtiCXywcHB5uaml69evXgwYN79+7dvHkzKyvr+++/P3fu3MmTJ9PS0r755pu9e/fu2LEjOTl53bp1CQkJiYmJe/bsyc7ObmlpIW2jDDbaBJh8x4Zze+pLXX1Wp698qik4lwJCZsn5NfnFCAbqTEChUJSWlqq/DTcuLu7Dhw8giTrDJU4g/Ui/2yPSWzWmQes0IsIVJsGKnGVi8iGpTwIKhWJ0dBTtFXt7e/EjXvTZx5/bkkgkQqHwzZs3WVlZ33zzzapVqyIjIwMCAlxdXW1tbclrVBsbGwcHh4CAgCVLluzevTsjI6OgoKCysrKjo0MsFuOHxPy5Yfi/OgKkH0H4FiuS+sQk9Ao3yNm55MyqWwFw7AuB/v7+srKyrKyspKSk6OjosLAwHO+0mERYWFh0dPSWLVt++OGH8vLy/v5+mHyNBEg/gv0k1jFtEpxpHWWMTv2S86txMUAFAxGA8K2BwHLWLOlHoJOUIqnP6qRXVFOcnUvOL2eLygo7ampqIq92p02bdu/ePTYOtbW1VOXc3Fy2ylBuCgRIP9KvTkL41mjzi8O3HR0dubm5qampYWFhzs7Ojo6O6JnJ6NZbFLtNTU0tLCzs6OgYHR0dHx8nY6t4APjeVhQMwLfSSiSS9vb26urqoqKi3NzcGzduZGZmXrhw4dyXz4ULFzIzM2/cuJGbm/vq1avKykqhUDg8PIy6wE3J5XKxWCwSiTo6Otra2oRCYUtLS1NTU319fV1d3cePH6urqysqKsrKykpLS1+8eJGXl/f48ePnz59XVFT09/fDHWZ4mrRPGM7tqQ2B+ixn2wXKDIvvl5xf7VcF1DQjAgqFQigUbt68me0HQR6Pl5SU1NXVZUaDMjVTST/S7/aIUiT1WYvXK2r4HI+XnGVTW4GWYY9SqZRIJB0dHWiv+ObNG6FQKBaLx8bGDDFA9EqO3t7elpaWioqKwsLC77//ftOmTaGhoa6uruQ1Krol19HR0cvLKygoSCAQrFmz5vjx4w8fPmxqahoZGYHtpfYTRPoRhG8pTWPLcqx12Ayd+iVnVvv1YLU1ZTJZf3//jz/+ePr06fXr10dHR7Nt0sy3PDo6esOGDd9++y2K3cpkMqudbu0HTvoR7CexFmmT0EmvqAY5O5ecX+1XBdTULwEI3+qXJ/etkX4EOkmpmfosZ1pHmaFTv+T8cr+6rKfH7u5u8mp32rRpFy9eZBt+cXExVfnZs2dslaHcFAiQfqRfnYTwrRHmFwdW0UOcysrK0tLSYmNjvby87OzsHBwcHB0d7e3tHR0dXV1dIyIi9u7dm5OT097ejmzFYVrKdFyObrcViUTNzc3V1dXFxcU5OTmZmZknTpz4+uuv0d2xiYmJy798EhMT161bl5yc/PXXX584ceL777+/f/9+UVFRVVVVc3OzSCSSSCTk/Q3YeNU7xhQKhVwuHx0dHRoaEolEXV8+fX196EVlY2Njw8PDQqGwtbW1v79/dHQUfnSjZpDKGs7tqS919VmdvvKppuBcCgiZJeeXmnrIWhKB4eHhPXv24Nfuqv4a+M033xgoRmJJGNnGQvqRfrdHpLdqTIPWaUSEK0yCFTnLbCsByrUkoFAoZDKZWCzu7e1tb29vamqqqakpLy8vKip6/Pjx/fv3Hzx48PLly5aWFsOFb0lTyddz7N69Oy4uLjAw0MXFBT1OmbxeRaFcLy+v2NjYvXv33rp1q6ysDN2GCxJKImVLk34E4VusSOoTk9Ar3CBn55Izyzb7UE4R6OzsfPLkycmTJxMTEyMiItRs0lS3baZcwufzIyMjV61aderUqYKCAvgDQWre1WRJP4L9JNYxbRKcaR1ljE79kvOrZhnAIYMSgPCtQfFy0DjpR6CTlCKpz+qkV1RTnJ1Lzi8Hy8lqu1AoFC4uLuRFbkxMDONf2ikUir1795I17e3ta2pqrBadWQyc9CP96iSEb42wAPCNrWKxuKmp6c6dOytWrPDy8sJPS0YJV1fX4ODgLVu25OXltbW1jYyM4PtuydApGU9FEVypVNre3l5UVISeSrd+/frFixcLBILQ0NC5c+cGBgYGBAT4E5+AgIDAwMC5c+eGhoYKBIIlS5YkJSUdOnQoKyvr5cuXQqEQRXBR7+idu2NjYyimS1oyPj6ODJDL5dI/f2QymUKhQIHqurq627dvZ2dnl5WVdXZ2ojuJkf1GmAaT79Jwbk9tCNRnOdsuUGZYfL/k/Jr8YgQDp0RAJBIdOHCA7fc+Ho/36NGjKXVgxSeTfqTf7RGlSOqzFq9X1PA5Hi85y1a82PUzdJlM1tfX19jYWFJSkpOT89133x08eHDz5s1r1qxZv379gQMHHj9+XFdXNzAwMDY2Ru3x9GPBX7aCwskDAwMtLS0lJSVZWVkpKSkhISH29vY2Njbk9er0Lx97e3tPT8+QkJD4+PgDBw48ffq0ublZLBb/ZauQYyBA+hGEbylNY8tyrHXYDJ36JWeWYeKhiInAyMhIe3t7YWHhvn37lixZEhERwbZJM6/yyMjI+Pj4/fv3P3/+vKOjA/16wAQAymgCpB/BfhJrkTYJnfSKapCzc8n5pece8lwRgPAtV6QN1Q/pR6CTlJqpz3KmdZQZOvVLzq+h1hC0+4VAUlISdZGbnp6O4iOYkEKhePr0qZeXF1kzMjISv08T14SESREg/Ui/OgnhWyNMNArfjo+Pd3d3P3v27MiRIzwez9bW1u7LB9196+DgEBgYuGbNmoyMjKamJhQZxffXkkbj8Ce6g6G1tbWsrCwnJ+fkyZPopT5BQUGBgYFBQUGhoaHz5s2LiYmJjY2Ni4tb8uUTFxe3cOHC8PBwHx8fJycnOzs7Z2fngICA6OjojRs3njhx4v79+z/++GNLS8vAwIBUKiXDt+RduaomoV/9FAqFVCoViUQVFRW3b99OSUnZvn37tWvXysrK0Jt4sP1kC5AeHx83nNtTX+rqszp95VNNwbkUEDJLzi8seIsn0N/fv2XLFrYfAZcuXdrZ2WnxEAwxQNKP9Ls9Ir1VYxq0TiMiXGESrMhZNsQqssg2ybtsOzo6mpqaPn78+OHDh9evX+fl5V2/fv3UqVO7du1KTEyMiYkJDg6OiIhYvXp1enp6aWlpb2+vVCrlHsvQ0FBNTc2dO3e2bdsWERExc+ZMOzs7KoiLrmDt7Ozc3NyioqIOHjz44MGDjx8/9vf3M/7ZMvejMNkeST+C8C1WJPWJSegVbpCzc8mZNdnlZ2qGKZXKsbGxpqam69ev79mzZ8mSJaGhoTwej22fZvrlPB4vLCwsPj5+7969N27caG5uZrtON7W5MBF7SD+C/STWMW0SnGkdZYxO/ZLzayJLzgrNgPCtuU866Uegk5Qiqc/qpFdUU5ydS86vua9VE7f/9evX1BWus7PzoUOHUIgE3Th39+7dWbNmTZ8+HYdvp0+fvm/fPo0X6RKJpKSkJCMj49ixY+np6bdu3WptbeXgb7JNnDln5pF+pF+dhPAtZ5PI0FF9ff25c+eWLVvm4+NjZ2fn+OWDnp/s5ua2cOHC77///v379wMDAzhwS3odFfgcGBioqqq6e/fu3r17ExISIiIi5syZExQUFB4enpiYuHPnzhMnTmRmZt66devhw4d5eXlPnz4tKCjIz89/8ODBt99+u3TpUn9/fxTBdXJy8vT0DAgIiIyMXLZs2b59+27fvl1RUYEswcZQTz9G9qDgNL49VyqV9vb2vn379syZM2vXrkU3+O7YsSM7O7u1tRWHpRnoWH2R4dye2hCoz3K2XaDMsPh+yfm1+sVuFQC6u7tXrFjB+Asgn8//4Ycf4Pmfk1gHpB/pd3tEKZL6rMXrFTV8jsdLzvIkFol1noL+pK+pqam0tPTBgwfff//94cOHk5OTV65cuWjRonnz5vH5/NmzZ/v4+AQEBERERCQnJ9+5c6empkYkEqF3XnDPTS6XDw0NNTY2FhQUnDhxIiYmxs3Nzc7ODl+14oSNjY2dnZ27u3tISMj69euvXr2K/yiQe7PNpUfSjyB8S2kaW5ZjrcNm6NQvObPmshpNwU6lUjk4OPjp06e7d+9+9dVXUVFRoaGhjJs0sygMCwuLiopKTk6+d+9ebW3t0NAQ+aOBKQA3cRtIP4L9JNYibRI66RXVIGfnkvNr4kvRgs0rLCzEG7lJJ0pLSy0YkYkPjfQj0ElKzdRnOdM6ygyd+iXn18SXormbNzg4GBcXR4ZmkSQ6OzsnJCSsXLnSx8dHVSTd3d1fv37NNnaFQiESiS5cuODn50e1PGPGjMWLF7969UoikbCdDuX6IkD6kX51EsK3+pojrdrBfwYrl8sHBweLioqSk5PnzJnj6upKhm9dXV15PN6OHTtevXqF3h2LI6a4GxQrRRdmo6OjnZ2d7969Qw+dEwgE/v7+c+fOjY6OTkxM3LVr17lz5+7fv19cXFxdXd3a2trd3d3f3z84ODg0NDQwMNDV1fXy5cs9e/ZERkZ6eHjg+4CRSZ6engKBYMeOHVeuXCktLaUeekxeGVLhW5lMNjo62t7eXlxcfOHCheXLl8+aNcvZ2XnmzJnR0dEHDhwoKyuTSCTo6XxUKBoP05oThnN76ktdfVanr3yqKTiXAkJmyfm15nVuPWNXKpWlpaVxcXGMvwMuXbq0oaHBemjoa6SkH+l3e0R6q8Y0aJ1GRLjCJFiRs6yvlWOR7aCQbVtb26dPn969e1dQUHDjxo309PTdu3evXr06KirKz8/P2dl5xowZ6ILQ1tbWxcWFz+dv2bLl6tWr9fX16IUXxoWD9rQvXrzYv3///PnzZ86cqfoeXGQ/ehvurFmzkpKSMjMz0V8Zwj24bNNH+hGEb7EiqU9MQq9wg5ydS84s2+xDOSMB9HKfysrKc+fObdiwISYmxkxvwOXxePPnz9+4ceP58+erqqrQ9TXjkKGQjQDpR7CfxDqmTYIzraOM0alfcn7Z1gCUG5rA999/rxqQ0LXk1q1bhrYT2mcjQPoR6CSlSOqzOukV1RRn55Lzy7YGoFwvBJRKZX5+/syZM7UXwOnTpx85ckQulzMaIJPJsrOzQ0JC1DRoZ2eXlJRU6O4zdAAAIABJREFUV1fH2AIU6osA6Uf61UkI3+prjrRqB9+TOjg4WFNTk5WVtWjRIldXVwcHBzs7O/svHzs7u8DAwM2bN1+7dq2+vl4qlcrlchz3Rd2Qsdvx8fHOzs78/PyjR48uW7YsJCQkICBAIBBs27btu+++e/LkyYcPH+rr69va2kQi0eDgoEQikUqlMplM/uUjk8mkUmlNTc2ZM2fI+4CdnJwcHBzs7e0dHR09PDyCgoKWLl165MiRR48e4Yd8Umbgd9+iG3BHR0e7u7tfvny5b9++BQsWBAQEODs729vbo1t7V6xYkZOTg16sqxqc1oqmpVcynNtTGwL1Wc62C5QZFt8vOb+WvpZhfP9NYGxs7Pr164zh25CQkCNHjgApXQmQfqTf7RGlSOqzFq9X1PA5Hi85y7quEKuqPzAw8OHDh3v37h09enTz5s0JCQlRUVHoLltfX193d3dHR8cZM2bghzW5uLiEhIR89dVXOTk59fX1Q0ND1FNVjEJPoVCMjo62tbUVFRWlp6dHRkaqvgcXXZqit+E6OTkFBAQkJiZevny5vLx8YGDAKGabfqekH0H4ltI0tizHWofN0KlfcmZNfx2alIXoEcrd3d1v3ry5dOlSYmIin883uwguemzymjVrMjMz375929PTw82by01qKqduDOlHsJ/EWqRNQie9ohrk7Fxyfqe+WqCFyRFYsWKFmtCCloe2bt06ud7hrKkTIP0IdJJSM/VZzrSOMkOnfsn5nfpqgRbUE5DJZJmZmVrq3rRp07Zt2yYWi9nazMjIcHV1pW66VW3cxsaGx+M1NjaytQPlUydA+pF+dRLCt1OfHR1awG+97ezszMvL27dvX3BwMBm4dXBwcHV1XbBgwcWLF3/88cf+/n4c2lS9z3V8fHxkZKS9vf358+eHDx9esmSJr6+vj4/PwoULd+3adfPmzfLy8t7eXtQpDrUytiMUCm/fvr1t27bZs2ejm26dnJwcHR3t7e3t7Oxsv3y8vLxiY2MPHDhQWFgoFApHRkYYH32MxzgyMtLW1paTk7N8+XIPDw8qRB0WFnb69Ok3b9709vaiZ7ubwo+GOsyl4asazu2pL3X1WZ2+8qmm4FwKCJkl59fwqwl6MBUCY2Njq1evZozg8vn8jo4OUzHUTOwg/Ui/2yPSWzWmQes0IsIVJsGKnGUzWZjGMROFb2/evLlr164FCxZ4eXmRwVryEs7W1tbZ2ZnP53/11VdZWVkNDQ1yuZzcH+o6APyq3YGBAZFI1NXV1fnl093dLRKJBgYGxGKxTl1IpdKenp5nz55t27YtODjY2dmZtJ9MoyBuQEBAUlJSVlZWXV3d6OgobClVZ5D0IwjfYkVSn5iEXuEGOTuXnFnVeYcSjQSkUml3d3dRUdHBgweXLl0qEAgYN2kmWygQCJYvX3748OHi4uKenh6NL0XTCMQ6K5B+BPtJrGPaJDjTOsoYnfol59c6V7hxR61QKPLy8sjN26TTNjY2xcXFU9myGheFWfdO+hHoJKVI6rM66RXVFGfnkvNr1gvVjIy/fv26h4cH/tNqRmF0cHDYsWPH4OAg47gUCsX9+/cZT2QrDAkJ6erqYmwNCqdOgPQj/eokhG+nPjs6tID3GQ0NDefOnVu+fDn11ltXV9egoKAtW7a8ePGiv78fPQIOB0RVw6Xt7e33799PTU2dP3++r6/vzJkz58+ff+7cueLi4sbGxoGBAfQCM4VCgW78RU2he3lxoVKpFIlERUVFJ06cCA0NRQ9Ptre3d/jyQRFcOzs7JycnLy+v6Ojo3bt337lzRygU4pGTjz7G1kql0q6ursePH69cuXLmzJkofIvf7ztr1qwtW7Zcv34dvwEXfmvDPFHCcG5PbQjUZznbLlBmWHy/5PxSUw9ZyyZQUVERHR3N+DvgmTNnLHvseh8d6Uf63R5RiqQ+a/F6RQ2f4/GSs6z3JWRJDcpksv7+/srKyuvXr+/YsSMkJMTBwYHxgtDZ2Tk4OHjLli0PHz5samoaHh7GG9RJAEGx24GBgaampvfv3xcVFT19+vTRo0ePHz8uLCx8/fr1+/fvm5qaBgcHqWfJqOlLoVBIpdLGxsY7d+6kpKQEBgayXYLie3ADAwOTkpLy8/Pxaz7UtG+Fh0g/gvAtpWlsWY61DpuhU7/kzFrhwp76kJHaNDc35+bmpqWlxcfHM+7QTLYwISHh2LFjeXl5LS0txnpz+dRnwegtkH4E+0msRdokdNIrqkHOziXn1+iLzdoMkEqlt27dCggIYNvI6Vo+a9asnJwc+FMV7hcS6Uegk5Saqc9ypnWUGTr1S84v96vLOntUKBSvX79OTk729PRUVUInJ6eEhIRbt26pue+2oqKC8TLZ3t7e39/fy8tLtdkZM2YcOXJkdHTUOpkbetSkH+lXJyF8a+i5o9tHD4V7+/btzp07Q0JCqLfeent7L1my5PTp0/iJ5PiuWdQQDpSi4OiLFy/27dsXExOD4qNubm5Lliy5detWU1MT9nAUT2UL36LHK4nF4vr6+tu3bycmJvr4+Dg6OpJBXBzBtbOzQ6/C3bNnz7Nnz/APZNgq/PxkpVKJ3sFWXFyckpLC5/Pd3NzI9/t6enrOnz//8OHDFRUV6F1rU/npkKZsEXnDuT31pa4+q9NXPtUUnEsBIbPk/FrEgoVBaEtAJpOlpaUx/g6YkJDQ19enbUNQb3yc9CP9bo9Ib9WYBq3TiAhXmAQrcpZh1asnoFQq+/r6ysrKrl27tnXr1qioKB8fHzKIa2NjY29vP3v27I0bN165cqWxsVH7kCrZtUKhkEgkIpGopaWlurq6tLT06dOnt27dysjIOHv27LFjx/bv35+amnr48OGTJ09evHgxOzu7sLDw/fv3LS0t+M8TyQYZ00NDQ+hVI3Fxca6urra2tqqXoKjExsZmxowZYWFhp06dev36tUgkYmzQmgtJP4LwLVYk9YlJ6BVukLNzyZm15hU+xbEPDQ3V1tbm5OTs2LFj4cKF4eHhjPs0kyoMDw+PjY3duXPngwcP0APwpwjBmk8n/Qj2k1jHtElwpnWUMTr1S86vNa9zvY9dKpUWFxdfu3btMtMnIyMjNTU1JiZGm6d6sm3wVMunT5/u7u6+YMGCffv2ZWRkMPV8OTs7+/379+hmGL2P2mobJP0IdJJSJPVZnfSKaoqzc8n5tdpFbpSBDw8P19bWnjx50tXVFSve5s2bS0tL1V/Sjo2NHTlyhPpbbXt7+507d1ZUVDQ3Nzc2Nj58+JDP51PPVZ41a1ZTU5NRBmvxnZJ+pF+dhPAt14tndHS0o6MjNzd3+fLl7u7uKDKK33o7d+7cvXv35ubmokdoosgrGdfE6a6uroKCgrS0tAULFsycOdPZ2RndLCsQCM6ePVtaWopiAOTttqqRYPyb3djYmFgs/vDhw+nTp9EbcNEDk9GDndGNsyiN3lwbExNz6NAhdIsDIogNwxHcsbExmUxWV1d3+fLljRs3BgQE2NnZISPRvbz+/v4bN258/vy59j/kcT1bRu3PcG5PbQjUZznbLlBmWHy/5PwadaFB50YgUFZWtnDhQtUfAQUCwatXr4xgkNl2SfqRfrdHlCKpz1q8XlHD53i85Cyb7VLlznB0D25DQ8OrV6/Onz+fkJCAIrjoatDe3t7T0zMhIeH69esfP34cHBwk92/aWymRSFpbW1+/fn316tUDBw5s2LAhISEhLi5u8eLFy5YtW7x4cXh4+Ny5c4ODg/l8fnh4eExMTEJCwq5du65fv15WVtbf369NX3K5fGhoqKSkZNeuXXw+n7ymxRe3KDF9+nQbGxtvb++EhIQzZ87U19dr075V1SH9CMK3lKaxZTnWOmyGTv2SM2tVS1q/g0VqU11dffny5e3btzNu0lS3bcYtiY2NTUlJycrKqq6uHhoaksvl+mViVa2RfgT7SaxF2iR00iuqQc7OJefXqha24QaLbhqbPXs2tR8zqWx0dHRDQ4PhIFhby6QfgU5SaqY+y5nWUWbo1C85v9a2tk1hvDU1NeRTCvLy8jRa1d/fLxAISNW1t7fPyMigNoTNzc1RUVFktWnTpl25ckVj+1BhEgRIP9KvTkL4dhLTMaVTBgYGKioqLl26NG/ePDviY29v7+TktGDBgszMzMrKyoGBAeqttzj4ii4vy8rKTpw4gX6VI+9qDQoK2r59++3bt4VCIRm71cbonp6e58+fnz59OjExMTg42MPDw9HR0cHBAd99i8PM3t7eixcvPnbs2I8//oguF7F5OHyLYsPoscwnT56MiIhATeGItYuLS1xc3I0bNxoaGvC9wtrYaSV1DOf21Je6+qxOX/lUU3AuBYTMkvNrJUt66sNUKBRDQ0MdHR2tXH26urrEYvHkwhtqxjsyMrJt2zbGX/1Onz4ND4NSg446RPqRfrdHpLdqTIPWaUSEK0yCFTnL1AKALBuBkZGRtra23NzcNWvW+Pr6Ojg4oIcMe3p6Lliw4MiRI+/fvx8ZGdHpvRVKpRJtQYVC4Y8//njv3r2TJ09u2LBh/vz5PB6Pz+cvXrx47dq1ycnJSUlJ8fHxfD7f3d0dvX93xowZjo6Oc+fO3bx5c0ZGxocPHwYGBrS8K6K5ufnq1avr16/39/dHo6CuP3HW0dHRz88vKSmpuLh4YGCADY51lpN+BOFbrEjqE5PQK9wgZ+eSM2uda1uPo+7t7S0pKbl06dKGDRuioqJCQ0MZt2pGLwwLC4uKitq0aVNmZubbt2/hwS1TXwOkH8F+EuuYNgnOtI4yRqd+yfmd+mqBFpRK5cuXL2fNmoU3YCab4PP51dXVMGV6IUD6EegkpUjqszrpFdUUZ+eS86uXBQON6ERgEuHburo6e3t7Un7Xrl07MjKi2m9NTY2LiwtZMz4+XrUalEydAOlH+tVJCN9OfXZ0a6GzszM/P/+bb74JCQmh7kb18/Nbv359YWFhb28v+vkexV9RB/hOXPRwpxs3bqxcuRI96BjdzOrk5IQebhwVFXXw4MGqqip8CtmOGnOlUmlPT8+HDx9u376dmpoqEAjc3NwcHR1xlBmFb1Gk2dvbe/ny5devX6+pqRkaGsLBZtLa8fFxiUTS0tJy9+7d+Ph4Nzc3dCMvbiciIuLUqVPFxcXqnwmgxmYLPmQ4t6c2BOqznG0XKDMsvl9yfi14GetlaAqFor6+PiMjY8OGDStXrly6dGkCV5/ly5cnJibu3Lnz3r17PT09ehkOaiQvL4/x57/Vq1d3dnbqsSPLbor0I/1ujyhFUp+1eL2ihs/xeMlZtuz1rMfRDQ8P19XVXb9+fdGiRU5OTjNmzED3p/L5/LS0tOfPn3d2duJHsGjZL4rd1tTUZGdnp6amJiQk8Pl8Pz+/OXPmLF68+Ouvv75z505paWl5eXlpaemjR4+OHz8uEAgcHR1xBNfZ2TkgIGDlypWXL18uLy/XMsI6MDDw/v37ixcvRkRE2NjYUE9/Ii9EUZA4Njb2xo0bFRUVWo7LSqqRfgThW0rT2LIcax02Q6d+yZm1ksVsuGHKZDKRSFRSUnL8+PHExMSoqCjGrZrRC6OiolavXn3y5MnS0tLe3l4t/xTGcNwsoGXSj2A/ibVIm4ROekU1yNm55PxawHI1+hCGhoaWL19OPbGT3I+ZTtrGxmbHjh1wr4he1gzpR6CTlJqpz3KmdZQZOvVLzq9eFgw0ohOBSYRvHz9+TInt69ev2TpNSkoiK7u7u7PVhPKpECD9SL86OQ35s37/Jc2dyrAt8lx0DwF+mLDjl4+dnZ2Hh4dAIPjmm28qKirQe2rRbazori8cHFUoFB0dHY8fP963b19wcDB6Qy15962Li0tQUNC2bdvKy8tHRkZEIlFbW5tQKOzq6tLyji70k19ubu7evXtjY2MDAgJcXFxUb8C1tbVFj3p++PBhW1sbihDjnwLx23DRY5nR67iDgoJcXFzIoHVQUFBKSsrdu3fb2toscrqnMijSj/TrodCaKRAg53cq68Syz5XL5W1tbUeOHOHz+Ub/sSwiIuLatWu9vb16YS6VSmNiYlQHFR4eDo/91J4w6Uem4NdggyEIkLOs/dqw2poKhUImkwmFwry8vAMHDoSEhKCQp729vZeXV2JiItq2Mf5lLhs09Kbbtra20tLSq1evJicnR0REuLm52dnZubm5zZs3b//+/Q8fPmxpaZHJZAqFAv054NOnTzds2ODv7+/o6EheLgYGBm7btg09J4atR7JcKpX29vY+efJkxYoV6t+Ai3rh8/knTpzIyckhG4E06UeG8FNo01gEyJmFdT51Akqlsr29/eHDh4cPH16+fHlERASPx1PdrRmrhMfjhYeHr1ixIi0tDb9uaeqjhhZIPzKWL0O/hiNAzi+s9qkT6Onp8ff3J7d2ppyOiYmBv42e+qSPj4+TfmQ4b4WWjUWAnF+9LBhoRCcCkwjfXr16ldLewcFBtk4vXrxIVWarCeVTIUD6kX59GcK3U5mXyZxbW1t74sSJRYsWeXl5kXfN+vv7r127NiMjo7GxEd81izrAzyVWKBRyuby6uvrYsWOxsbGoBfxAYzs7O1tbWzc3Nz6fv3fv3srKSpFIVFxcfP/+/Xv37r18+RLd4YoDq6rWo0MymWx4eLilpaW4uPi7775LTEwMDAxEYVf0+lvUka2t7cyZMxcsWJCWllZRUSGVSlHslmwfRZ3HxsZqampOnDixePFib29vctS+vr6JiYkXLlyAl1KoTofh3F6/IgKtTY4AOb+qsw8l4+PjMpksOzvb1F4/tm7dulevXun0xFG22czMzGT8+S8/P5/tFCinCJB+NDlPhLNMnwA5y9QCgKwqAZlMNjAwUFJS8vXXX0dGRrq7u+PHJsfGxh49evTDhw+6PjYZPUnlyZMnqampixYtCgoKwrHb8PDwnTt3FhQUdHR0SCQSpI0ogltRUXH06NGFCxd6enqSl4vu7u5RUVGHDx/++PGjqv2qJai1srKynTt3BgcHOzs7k62ppmfNmpWcnHz8+HHVpqy5hPQj0/d6sFB7AuTMWvMK1+PYxWJxS0tLfn7+7t27Y2NjIyIiGHdrRikMDw9ftGjRnj17njx5IhQKJRKJHgduzU2RfqS990FNcyFAzq81r3N9jb2pqWnGjBmqGzDTLPH29m5sbNTX2K25HdKPzMX3wU7tCZDza83r3ChjVyqVpaWlfn5+WEWvX79OvcJW1bDs7GxcHyWEQqFqNVRy7NgxsrKtrS1bTSifCgHSj7T3Pm1qwsOTpzIvOp8rlUrLy8t3797N4/FcXV3Ju2aDg4NTU1MfPXqE/jSMfNwxTkulUpFI9PTp0/Xr1/v5+aGnJaPwrYODg5ubm5+f37x585KSkjIzM5u+fDIzM/fv33/o0KEffvihpaWFvKNX1Xp8j69SqZRKpX19fWVlZefPn1+/fj2Px0MPUnZwcHB1dfX09PTx8fH39581a9batWvz8vLw3b3YWrKv1tbW7Ozsr776KjAwkAzfenp6okc9V1ZWatQmVYMtu4R0e/3edE89UkN9FumI+jpsR+FcNjKfP38m59eyV/KkR3fu3DmBQGCUX8fUd7pgwYKCgoKpR3AbGhoYb+lIT0+fNDRrO5H0I9BJNYKjesiM9JmcZWtb4bqOV6lUos3bd999t2DBAmdnZ1tbW/TY5KCgoN27d+fk5LS3t2vfLHqGSkNDQ25u7sGDByMjI1GbNjY2tra2QUFBycnJ2dnZjNeKTU1N6K8AfXx8yMtFBwcHX1/fLVu2vH//XntL6uvrz5w5Ex8f7+XlRbammvby8oqPj09KStK+cWuoSfoRPDxZVRIZS8xCJ8mZtYaVzMEY0TMM6uvrr1y5sn379kWLFvH5fMYNm/rton6PoleMx8XFpaSkZGVlNTQ0oKcdcADEGrog/Qj2k4x6yFYIOmkNDkKNUSgUOjk5qW7ATLNk9uzZ6IdQahSQ1ZUA6KRl75/J+dV1bUD9SRMYGRl5/PjxunXrZs+ebWtri1XUx8dnyZIlGRkZ/f39bI2/fv0a10eJK1euMFZWKpVhYWFk5dmzZzPWhMIpEiD9SL/7SQjfTnFqdDtdJBK9ePFiw4YN6J21+NHHtra24eHh586de/fuXV9f3/j4OA6CkiHVgYGB8vLy7777LiYmxsnJCT/QGMVuQ0JCEhMTjx49mpub++nTp6GhocrKSvRXw6tXrz59+nRdXR0yFz2QmdF03J1cLkcR3Lq6uvv372/ZsoXP57u5ubm6ugYFBUVFRcXHxy9cuNDf3z86OvrcuXNv377t6+vDp6Mu8Ch6enqeP3+elpbG4/HIhye7uLjMnj07OTm5pKRkaGiI0SSrLTSc27NdfTGWm8UlGWW5WdhMzq/VLnK2gY+Njd29e1e/P3vpt7WEhITa2lo2+7Us7+3tjYuLUzVs/fr1WrYA1Ug/0u/2iFIV9Vmz0BxqCGZkMznLsObVEFAqlXK5/OPHj2fOnFm2bJmfn5+tra3Nl8+MGTOioqKysrJqa2uHh4fVNEIdEovFjY2NOTk5W7Zs4fF47u7uqE1bW1tXV9fFixdfv369rq6Osc2mpqZLly6tWrXK19eXvFy0s7Nzd3dft25dWVkZ1Z2abFtb2927d3fs2BEYGEi2ppp2dXUNCwuLjY1V05oVHiL9yLJ/fjJfrcOW66TP5Mxa4cI20JAVCkV/f39VVVV2dvbGjRsjIyON/hYPPp8fGRm5adOmmzdvVldXDwwMTP3vCA1EzxybJf0I9pNYi7RJ6KRXVIOcnUvOrzmuT1OzeXBwcPHixdOnT1fdg5layfTp07ds2QK/NOplCZF+BDpJqZn6LGdaR5mhU7/k/OplwUAj6gmMjIyUlJRERESo11I3N7fMzEwUJ6IabG5upp5KFRgYqPqH2mNjYzdu3KDEeevWrVRrkNULAdKP9KuTEL7VywRp20hjY+ODBw8SEhJcXV0dHBzs/vxxcHCIjY29ceNGY2OjWCzG4Vv0IGIcBG1vb8/Jydm9e/ecOXNw6NfOzg7dw7ply5bz588XFhYKhULxl8+rV6/Qo4/j4uKOHTv26dMnZCj5fGNV03EIFvWrUCjq6uouXry4atUqf3//gICAVatW7d+/Pz09fc+ePcHBwUFBQdu3b8fvMENnUZYPDAxUVlZmZmZGR0c7ODiQgWcPD4+VK1fm5+erqoyqbVZVYji3p77U1Wd1+sqnmoJzKSBklpxfq1rY2gz27du3pvbMZNUg64YNG5BcazMixjrDw8NfffWVasvh4eHwNDxGYqqFpB/pd3tEeqvGNGidRkS4wiRYkbOsugagBBOQSCStra0PHjxYs2aNr6+vg4MDuk5Db71dt27dixcvhoaGtHzYCXpkcXNz88OHD1NTU4ODg9E7dFGbLi4uPB5v165d7969Y3sUM9v9ssieTZs2lZeXY+M1Jnp7e0tLS9PT0/l8PnX9SWUdHR39/f3nzp2rsU2rqkD6EYRvsSKpT0xCr3CDnJ1LzqxVLWlDD1Ymkw0ODpaXl6enp69ZsyY6Olp1w8ZlSVRU1Nq1a0+fPl1eXq69khuaksW0T/oR7CexjmmT4EzrKGN06pecX4tZtEYciFKpfPTokbu7O7UBM8Gst7f3u3fvjMjKkrom/Qh0klIk9Vmd9IpqirNzyfm1pHVrmmOpq6vbvn27vb29NrI5Y8aMxYsXv3jxAt+JNzo6WlhYuH79eqoFGxubVatWvX37Fv+F3+DgYEZGBvXwKnt7+8LCQtMkY+5WkX6kX52E8C2na6OsrOyHH36IiYmhQpienp6JiYn5+fkikUgqlZLhW/QIYmRlfX392bNnly1b5uPjQ4Zv+Xz+oUOHHj16VFVV1d3dLZFIxGKxUCi8e/dubGysn59ffHx8eno6efctdnvG8aMI7tiXj0Kh6OrqKiwsTEtLCw8Pj4mJycjIKC0trampuX///qJFi3x9fePi4k6cOIHvRUON4zDw+Pj4yMiIUCi8d+9efHw8Y+j69u3bNTU1jMZYbaHh3J7aEKjPcrZdoMyw+H7J+bXaRc448NHR0cOHDxv9IXXa/CR3/fp1xiFoWSiTyY4ePcrYUWVlpZaNWHk10o/0uz2iFEl91uL1iho+x+MlZ9nKF7z64Xd0dKBQa2hoqIODg42NDbog9PDwmD9//pEjR6qqquRyufodIO5CKpX29PS8ePEiJSUFPX8FvUMXtenv779x48arV682NjYqFArGNqurq1NTU0NDQ11dXclLUxcXFz6fv3fv3qqqKtydxoREIhEKhbdu3YqKiiJbU02ju3u9vb01tmlVFUg/gvAtpWlsWY61DpuhU7/kzFrVkjb0YNEjlDs7O4uKis6dO7dixQrj3oC7YsWK8+fPFxUVdXZ2aq/khqZkMe2TfgT7SaxF2iR00iuqQc7OJefXYhatcQcilUqPHz+uugczqRIbG5t79+7hMIZxiVlA76QfgU5SaqY+y5nWUWbo1C85vxawXE15CN3d3bGxsbq+QdzPzy8/P1+pVPb09GzdunXmzJmMemtjY+Pr6xsfH5+amrpjx47w8HBnZ2fqBt+4uLju7m5TRmS+tpF+pF+dhPAtp6vi2bNnFy5ciIiIsLOzQ++stbOzc3Z2njVr1pYtW0pKSiQSCdpeoNgnvk0WXUCWl5fv2bMnNDTUzc0Nh28dHR0XLlxI3rk7Pj7e39+PXlsbEREREBCwbt069DZc8n206keOHsGHLg4HBwdramquXbu2dOnSNWvWFBYWDgwMyGSy8vLypKSk2bNnh4SEbN269d27d/gdPDh2i4Yjl8sHBgaeP3++bt06b29vR0dHbL+tra1AIMjMzCwpKVFvkrUdNZzbU1/q6rM6feVTTcG5FBAyS86vta1t9ePt7Oxku8WBx+NFR0fHxcX9f+y9CVhTR9s+LoEECBCQTXYIm4CAggiIiGsRURFRUVFBRHGpooKCiFtFwUILuAGNsi8KQgDcLx7RAAAgAElEQVSBsAcIhiXJ973fv2+v79dq3ZdqF+3+vu3bfvwvGT0OJwtJSEJIzrm8ZM6cmefMPDPPnZm5zzwzW1bXrFmzBJy/6+np2d3dLbg6gp8eOXKEJ1F9+fJlwRmxp0ADsB1JdngEW+uYYQzrxlQRkkAMXcGtjPV8nhoAo6yrV69u3brV3d1dT08Pns6ZmJgEBQUdO3asoaGBZ3aekWC36969e52dnQkEAkIGg5N07e3tY2Nj8/PzOzo6uLOzWKy+vr68vLylS5caGhoi+4ABAWxkZDR//vwDBw5QqVTuvPxihoaGent7s7OzPT09VVVVkfLANQVhVVVVIpGoo6PDT5RyxsN2hNG3CCIJDoiBV4hAmeWFW1Y5+7ZUa93X19fY2Jidnb1hwwYvL6/p06fz/OpOqpHTp0/38vLasGFDTk5OU1PT7du3pVpl5RQO2xE2nkRwTJiAzLAOVRiR3gu3r3L2cGnUmsVi+fv7CxiPcY/QZBmDx+Ojo6OlUXGllQnbEYaTKEQSfCsSXqFEySwv3L5K28llUPGenh43NzfxwNDMzGz79u3j9HygoaHx0UcfyaCmyvkK2I4ki5MYfSvTHpWamhoTE2NnZ4fH4zVGLjwer6OjY29vv379+tLSUmQHA8r58MDAQFdXV05OzqJFi5Bzc9XU1MCpt76+vunp6S0tLWDnLofDodFo58+f37Bhg7W1tZWV1fr169PS0pqbm0WibxE3yGDHQ0ZGxooVK0JDQ/Py8oDLpuvXr2/dutXNzc3ExMTX1/eTTz7p6uoaGBhAdg8j1QEu+AoKCkJCQqysrLS1teETcO3t7Xfv3p2ZmSnTxpD7l0nP7FEDAsG3MhsuoIqh8O+F21fuO6NMC3j27Fmeq2C2trbR0dElJSVdXV19srpoNFpubu7y5ct5brlwdnamUCjj0c6ZM2ccHBy465uVlTUescqTF7YjyQ6PUIgk+Fbh8QpVfRnXF25l5enbItUUHFGRmJg4Z84cPT09lBslMpm8ffv2K1eutLe3CymWzWbfvHnzww8/nDt3rpGREew2GYfDEQgET0/PtLQ0Go3GZDK5ZYJx40cffeTh4QHvAwbUr62tbUxMTG5urvDlAcPXoaGhzz77bN68eUQiUcAHy6qqqhoaGkQikbtgyhwD2xFG36Iwjd+tjLEOKYZI74VbVpl7uJTqPjQ01NfXV1NT89FHH23atGn27NncYzZpx3h5eUVERKSmptbU1PBzVi+l6iuPWNiOsPEkgkXCBETCK5RAmeWF21d5erUMakqj0dzd3VH7usSjJSSbC4fDBQcH0+l0GShBeV4B2xGGkyg0E3wrM6xDFUOk98Ltqzy9WsY17e3tDQ4OFgB3RCJRS0tL+M9iVFRUbGxsHB0dBciEH+FwuK1bt2IfAkqv3WE7kixOYvSt9FqNh+SkpKSIiAgbGxs8Hq85cuHx+KlTp7q7u0dFRSFn04KcyAZWNpuNLIR5eXlpaWkRCAS1kUtdXV1XV9ff3z8rKwvsiAV56+rqjhw5EhQU5ODgMHv27Pj4+OLiYjB8QXb08ijf6CjkzF1AHufl5W0YucAKYH9/P5VKPXTo0MKFC6dNm+bq6nry5MmGhoa+vj6k5Ah9C9bdKioqIiIinJycdHV1YQKbTCZHRUWdPHly9PuV/U56Zo/6URd8K9JPPkoUlhelEPgWbl9l7+uj67969WqeC2Hbtm0b51mzo98j7B2bza6trfX19eUuFZlMPnHihLCCeKVLT093dHTklpyRkcErORaH1gBsR5IdHsHWOmYYw7oxVYQkEENXcCuje4DS37PZ7KGhobq6upMnT65atcrMzAyeoQG61MXFJTk5+ebNm0JC6MDAAJ1Ov3jxYmBgoKmpqaamJiyTQCAYGBh88MEHFAoF8bkCtwObzW5pabl48WJUVJSNjQ3IC/bdEolEMzOzpUuXpqen37p1S4xDvoHfF319fRRFDZdQTU1NS0uLRCLBpcLCsB1h9C2CSIIDYuAVIlBmeeGWxfq5lDTQ3d1dXl5+8uTJFStWuLm58fzwjnssN/4YBwcHd3f3lStXnjp1qqKioqenR0oVxMTCdoSNJxEcEyYgM6xDFUak98Lti/V2CWqAzWZfvHgRdaoiPCSbqLC5uXldXZ0Ea4qJ4nA4sB1hOIlCJMG3IuEVSpTM8sLti3V4KWkgNTUVdagQAEk8Hr9s2bKcnJzqkevatWvR0dFjQisejw8PD6+pqamurnZ1dR3zSxp1dfW9e/eKMQGXkjYUUixsR5LFSYy+lWmH2b9/f1hYmKWlJUzfGhoa+vj47N69GzmbFpQJIUHZbHZ3d3dFRUVCQsKMGTMIBAJ+5FJTU9PQ0NDT0wsICLhw4UJ3d/fg4CDIW11dHRsbu3DhQl9f3/Xr1+fl5SHkrvD0LZIS7J0tLi7euHFjaGhoenp6bW0tg8FobGw8c+bM6tWrLSwsnJycDh06VFZWRqfT4ZLD+q2qqoqJifHw8NDX14c1YG1tHR4enpCQACfGwtIze9SAQPCtzIYLqGIo/Hvh9sV6O6yBuXPnci94eXh4iOT2ExYokfCJEye4S2VjYxMXFzeeA3UyMjJ4Omc+d+6cRIqt8EJgO5Ls8AiFSIJvFR6vUNWXcX3hVlb4Li1qBYeGhhgMBoVCCQ0NJZPJWlpa8EoZDodTVVX18PDIzMxE/KOM+Qo6nV5aWnro0CE3NzdNTU3UPlcSieTs7Lx58+aKigpu9ANHb1RWVsbExHh6eiKn8gAi2czMbPny5cnJyVVVVchxIWOWB05QVla2Zs0aKysrIpEI1xQOA4LZzMwMzoiFYTvC6FsUpvG7lTHWIcUQ6b1wy2L9XEoaGBgY6O7uLi4ujouLW7ZsmZubG88xocQj3d3dly9ffvDgwdLS0p6eHuDjSkp1VHKxsB1h40kEi4QJiIRXKIEyywu3r5J3dWlUf//+/WpqavBIbGLD2trahYWF0qipksuE7QjDSRSaCb6VGdahiiHSe+H2VfKuLqXqMxiMgIAAFDzicDhTU1OeR6fV1tZ6eXlx78RVUVFRV1d3dHTMzc1Fitrc3PzBBx+QSCSe6QkEgpmZ2dmzZ4eGhpAsWEAaGoDtSLI4idG30mgvvjJ37NixcuVKc3NzmLw0NjYOCAg4cOBAbW0tnBMmQcEJZLt27bK3t0dOjQUbWHV0dLy9vc+cOQN2vgIJVCo1ISFh06ZN0dHRp06dunXrFixZyDBM3w4MDBQWFq5evXrhwoVxcXHA5V1bWxvYXWFra2tvb79z5868vDzgCg9xvAy/q6amBjjiMzQ0hDVgYWERGhq6Z88eODEWlp7Zo37UBd+K9JOPEoXlRSkEvoXbF+vtsAZ4niu2fPlynicswhmlGq6oqOC5Krdjxw7Ea70YBcjKynJ2duaWjHkjEFKZsB1JdngEW+uYYQzrxlQRkkAMXcGtLGTHUJ5kDAajtrb2+PHjHh4eGhoaKKpVTU2NSCT6+/vn5+fz3CnLU1FNTU1nz55ds2aNubk5aoY5ZcoUIyOjgICA+Ph47pNrWSxWd3d3TU3N6dOn58+fb2RkBDwnEwgEPT09Mpm8ZMmSo0ePlpSUiO3OrrKycvPmzU5OTgJO/SESiVZWVk5OTjxrp7SRsB1h9C2CSIIDYuAVIlBmeeGWVdruLZuKg5nv3r17FyxY4OTkxPNYDe4RnXgxdnZ2Tk5OixYt2rdv3+XLl9va2mRTR6V9C2xH2HgSwTFhAjLDOlRhRHov3L5K28mlV/GhoaEtW7aghqDcA0jZxEydOjU1NVV6lVVmybAdYTiJQiTBtyLhFUqUzPLC7avM/Vx6db9x4wbqS2sVFRVXV9fr16/zeymdTg8JCUFtq1VRUQkMDOzq6kLlYrFY165dAxv5nJ2dyWSyra2th4dHaGjo8ePHGxsbUemxW2loALYjyeIkRt9Ko734yoyMjAwKCjI1NYXJSxMTk6VLlx45cgT49wCkKfgfIUFbW1tzcnKioqLIZDKgbwkEgvrIpaGh4eDgEB0dfenSJTC1Y7PZHR0dV69evXTpUnFxcX19Pdgdj9CxfMs3+gHiPHlwcLC7uzsnJ2f+/PkODg7Lly9PSkqqq6uj0+lFRUX79+8Hzj83b9786aeftrS0IGffwnXhcDhUKjU+Ph44W4Y1YG5uHhwcHBMTM/r9yn4nPbNHDQgE30piuPD3f/79688/fPvy2dOnD+8//Prr+3fv3Ltz5/7drx/cu//44ZPnz19+//qXf/35F1wSSbwXlidsWGbvhdtX2fv66PqTyWTupa7Q0FDuAcrofNK9a2ho4C6VjY1NdHT0eI6OuHDhgouLC7fk5ORk6dZHUaTDdiTZ4ZGwkDGSTkK4ITJUSui9ItX1TWIZvxduZUXpuRKrB41GS09PDw8Pt7a2VlVVRX1vq6GhMW3atODg4KKiIu6dsvwKUV1dvXPnTnjvLLziZmlpuX79+vPnz9NoNFgC8NRSXV2dmJgYFBRkZWUFc7fu7u6RkZFpaWk3btxA/MHA2YUMV1dX79ixg1/ZQDlJJNKMGTP8/PyElKkkyWA7msz0LYaTaMSGW1ZJOvNEVZPJZLa0tFy+fHnLli0+Pj48vadwj+jEi3FycvLz84uMjLxy5Upra+t4vhScKHVNrvfCdiT7cQ5i1ZIYX4kMkpO8vojyBAXg9p1cPXOylLazs9PPzw8eLk5IWE1Nbfv27RhgSqnbwHY0yXEDw0kegAm3r5S6kJKL3b9/PwoYiURiWlqa4El6c3Mz99G2AQEB/FZHh4aG6HQ6jUa7NXK1traOZ7lSyZtMjOrDdiRZnMToWzGaQ/wsERERS5cuNTExgclLU1PToKCg5OTk+vp6cEYswnoiBCqNRsvIyNiwYYO1tTVM3wJHymD36kcffQS+p2CxWLdv324ZuYBvOjabjUgWvvTI27u7uysrKw8fPuzq6qqvr+/s7Lx27dqLFy9SqdSysrKkpCQXFxcrK6u1a9empaU1Nzfzo2/r6uqSkpI++OADbg0EBgZu3bpV+LIpQ0rpmT2P32r+UeOZRr767uU3Tx4+uXf33p03fO2Y/x48ePryh5//PULjjue9kyIv3L7K0J+FryPPdS55pm/Hc3rExx9/zHO3cXp6uvAaU+aUsB1JdnjEHxR5PBkn5rz67uVP3z4TAyrH+d7JQuHArazMvZ277gMDA5WVlQLoTC0tLRsbm7Vr15aXl3Nn544Bro8LCwtXrFhhZmaGOvUWTDjt7Ox279599erVzs5OMN7r7+/v6uqqq6srLCxMSUkJDAy0tbXV09PT0dExNTV1cXEJCAiIiorKycmB/cRwv12YmJs3b+7Zs8fb21vAaUBgf3BYWJgwApUnDWxHk8X2EbR9/fo1hpOINlABuGWVpz9PVE1ZLFZDQ8Pp06c3bNjg7e1tb2/P86NDnkNZISPJZLKDg4OPj09ERERqampjYyOYyE9UlZXkvbAdTdLxJDbvRmEjfAu3r5J0adlX8+rVq2ZmZihyQpa3KioqM2fO7O7uln3dleSNsB1hOAkjzJjhSTFnh9tXSbq0jKvp7e2NgkQymTwmt8pisXbu3In6RNvKympij5aTseom0etgO5IsTmL0rUy7wcaNGxcvXowiL83MzIKCglJSUoD5Idwt4jyZw+E0NzenpaWtW7fOysoKdp6Mx+PV1NQsLCxWrlwJnCSDXAMDA0wms7+/n8ViIQLFrmpDQ0NKSkpQUJC5uTk4bXfmzJk7duz4+OOPCwoKTp486erqamFhsXr16tOnTyMUMvxqMO1saGhITk4OCgoyMzODCWyw/3jTpk1il1AhM0rP7MccXsAJxBtq/PXHL98/e3hfCMqWB6d79/6zl6+/++HNm+GSCB8Wr8xAvszywu2rkB1Y7ErxXN6a1PStAJ+lycnJPBf+ysrKxFagUmWE7UiywyPhAWc87/3rj1+ePbwnNlQ+evz8ux8UGSdBK8CtrFTde8zK0un0K1euLFmyxMDAgEAgoCaEU6ZM0dHRcXR0jIiIqKysHFMah8MB3lays7N9fX2JRCJPP3jOzs7Jyck3b95kMBhgx21LS0tBQcHx48fXr18/Z84cc3NzPT09fX19BweH4ODg/fv3Z2VlVVZWtrS0iHfeLVzymzdv7t69e86cOQLoW0tLy/Dw8Pj4eDgjFobtaHKNrzCcFPx7BLcs1s9loIGenp6ampq0tLRVq1a5ubnZ29vzHLiKHeng4ODu7r569er09HQqldrb2yuDSmGvgO1oPOO6CcmLzbsFg+Tw8DDcvlhvl5IG2Gx2WloakUjkHo7KJsbV1VW8M+OkpBDFEwvb0YRgHbB08dbrMJzEcHLCTVJPTw8FhlFRUcKUKjs7G5VXU1OzurpamLxYGhlrQHo4idG3Mm3KjRs3LlmyRAz6FpxDFhYWZmlpCehbdXV1bW1tQ0NDMpk8f/783bt3X7hwAThPRlwuI8QtCAhfVST90NAQg8GgUCjr16+fPn26rq6u2shlZGTk5+e3bdu29PT0w4cPOzs7Awr55MmTYMzEXQYOh4PQwNz07ZIlSzZu3Ch8CZUhpfTMfsxfbjiByMOjv/7988snD/kTt/cfPPv+p19+/+3XX169ePo1/y25d+89efbyP3BRhA6LXGZIsszywu2rDP1Z+DryXPCapPRtTU1NWFjYggULQkJCsrKyUH5RhoaG9uzZw7O+2IfDQnYY2I4m2TRSclD54tWvYkClzLAOwtc3QTHeC7eykB1DSZJVVVWdOnXKzc2N220ymBzq6uq6ublt27btxo0bwujk9u3bt27dOnXq1IwZM1RGLniSCWIcHR3j4+MpFEppaWlJSUl+fn56evrBgwfXrVs3Z84cBwcHe3t7V1dXf3//DRs2nDhxorCwsKOjA4V+whSGZ5rq6urY2NjZs2fzpG9VVFRwOJyjo2NcXNyFCxd4SlDaSNiOJg19i+EkCkB53cItq7TdW5YVZ7FYTCbz+vXrBw8eXLZs2cyZM3l+h8dzdDdmJJlMdnd3X758eXx8fFVVFfgUW5a1U9p3wXYk3lgFsU4xxjni55UcSGLzbqXt/BKsOIvFOnz4MGqXGDySlF7YzMysuLhYgnXBRHFrAMNJDCe5ewUWI6QG2Gw2NzYKeVB3WVnZtGnTYPxUUVEpLS0V8tVYMllqQHo4idG3smxHzubNm/k5Tz527Jjg3bfnzp1bu3YtoG/V1NS0tbUtLCx8fX0jIyPPnDlTWlra1taGHPOA7NwdGhpCfCALX1UkC4PBqKmpOXnypI+Pj66uroaGBtjvq6mpaWxs7OXlFR0dvXnzZhsbGyHp22PHjvHbfRsRESF8CZUhpfTMHpkiChMQaQr61++vv7kv0FXygxe/w0fc/vH6mQAG986dh49f/iY6LyFSmVFKkFleuH2VoT8LX0eea1uTkb4tLS319PREqmNvb5+YmDgwMICogslkbty4EUmABNzc3JA0WECwBmA7mkTLbfIAlTLDuvFjLNzKgvuDsj09f/58bGysnZ0dDodTUVGBJ3UgPHXqVE9Pz9jYWCG/z6XT6aWlpXFxcY6OjjzpWxwOZ2lpGRYWtnv37i1btoSEhAQEBHiPXHPnzg0ICFi5cmV0dHRSUlJOTk5ZWVlDQ0NXVxcyOh1/A4Gzbz08PKZOncpdXxwOh8fjPTw80tLSMI9SKG3DdjQp6FsMJ1Hgye8WbllUo2O30tAAmGV3dHQUFRUlJiYuXLhQUi6UyWSynZ3dokWLkpKSSkpKOjs7gS8radQCk4nSAGxHk2U8KQ8gOVl0BbcvqumxW8lqgMFgLF26lJul4B6zSTBGQ0MjJSVFUl8KSlYhiiQNtqPJYvsYTgo/5ofbV5H6rZzUhc1mc8/Wz549K0zxysvLMfpWGEXJQxrYjiSLkxh9K9P23bp1a1BQkKmpKbfr4KSkpLq6OuSEWrD/FaFRaTTa+fPnw8PDra2tNTU1DQ0NnZ2dly1btnfv3uzsbCqVymAwhoaGent76XR6d3c3g8EA7joBfSvqkTnIe8FC3sGDB52cnFBOm/F4vImJScDINW3aNEtLy9DQ0DNnzghwnlxfXw/OvkVpwNTUNDAwcMuWLTJtDLl/mfTMnt8CEM944Zf4//z5m0d3+e+mfbMf9+7zn1Bk7N+/v7zPw38yvHn33pPXoyhfnsUcFSl8mUdlG7mRWV64feW+M8q0gAiLCQcmHX17+/Ztbmp2xowZeXl5iDZ7enoCAwPhaoJwUFAQkgYLCNYAbEeSHR5xg4OAGJFwQ06gUqQyo+ou47xwKwvuD8r2dM+ePSEhIQJOGtPX1/fy8tq1a5eQ9G17e/uVK1e2b99OJpO5l9XA3lYwZtuwYUNISMgHH3wwb+QKDAxct25dbGzssWPHLl68WFVVRafTpUE83LhxIyoqys3NTVdXl7uEGhoa06ZNCwoKolAoY54kpGy9BbYj4ZdyJsr2MZwUvo3gllW2Xj2B9e3v7+/o6Pjss8+2bdvm5+fn7OxMHrm4B3XCxIC8zs7O8+bNi46OBoeLS/DDlwlU1GR5NWxHk2I8KScgOSl0hTlPlrEZVlVVTZ8+nXuQJqUYFRWVLVu2MJlMGVdTCV+H4eTbdUtsfVIJe78kqoxygDxlypTIyEhhBGdlZaFmvpjzZGH0NiFppIeTGH0r0wbdvn17cHCwubk5TN9OmzZt4cKF8fHxVCoVlAZxeozQqC0tLVlZWVu2bCGTyUZGRj4+Ptu2bcvKyrp582ZrayvC3VZXV5eUlJSXl9fV1TEYDESOqJVE3tvd3V1ZWZmQkADoWxSDq62tbTVyaWtrW1tbb9iw4eOPP6bRaBwOB0hAFYBKpR4+fJjf6b/btm0TtZyKnV56Zo9ajBN8K9wy/d//fv1MgMPkdwTtvZe//R/qdX/+8OTdU/7U79cPvxNlE65wZUYV5O2tzPLC7avYPVnU2vFc55p09G1HRwe89Rap1KpVqxCFtLS0zJgxA3mEBLZv346kwQKCNQDb0WRYQpIjqJQZ1qGgVoz3wq0suD8o29Pg4GBfX18DAwN+K2Jg9+2OHTuEpG9pNFpmZuamTZusrKy4ZeJwOFVVVXNz8+Dg4D179hw9evTcuXNZWVm5ubmFhYXl5eXV1dUNDQ1tbW29vb2Dg4OifjsoTPNVVlZu2rTJ0dFRR0eHu4QGBga+vr579+6trq7GNmGg9AnbkfDU4PjtF5EgtO1jOCmak3m4ZVGNjt1KTwPg5O/GxsasrKydO3f6+vra2tqK7UWZTCbb2trOnTt3165dOTk5jY2NmNtk6bUdT8mwHcn9eFKOQFLudfX2JwhuX54dAIuUoAbYbHZhYaGGhgb3OE0aMYGBgQwGQ4Llx0Tx0wBsR3Jv+xhOvkE/ocfebxLD7cuvD2Dx49GAl5cXCgPt7e3H/OCYxWLFxsaqqqrCeS0tLTFHU+NpC+nlhe1IVBtEZs0ggLJfjL6VXqvxkLx3797Q0FALCwuYvgXnyH744Yc1NTVwHsQBMpvNbm9vz83N3bFjh729vbm5+cqVK5FTZtls9u3bt1taWoqKik6ePHngwIH4+PjU1NSioqLGxkY6nS7G9A+hb3t6eiorKw8fPuzk5KQ6csEMLjh/V1tbm0Ag2Nrabtu27eLFi21tbXDJ4RrV1tYeOHDA39/f2NgY1oCFhcWqVatiY2PhxFhYemaPAgXBtyjI4Jn4z5+fC8Hdvtl9+/TVH6Ml/P3r83tj07d37tz7+vHrf/89Oi/fO2HKzC+zzPLC7Yv1dlgDCIsJByYdfdvW1saTmrWxsUGgPj09Ha4jEk5LS4MVgoUFaAC2I8kOj/hBBM94IXFDrqBSyDKPp76Sygu3soDOoISPZs+ezY/IBBM8XV1dV1fXyMhIIc++pdFo6enp69ats7CwgKeIIIzH40kkkpubW0xMzPnz5wsKCqhUKvCNLBuulM1ml5aWhoSEmJubE4lEuITAbbKtre2WLVuysrJaWlqUsD8IrjJsR/JM32I4KepvGdyygvsA9lTiGmAwGHV1defPnw8LC5s1a5aDgwMylhMp4Ojo6OHhERYWlpmZWV9f39fXJ/GiYgIFawC2I1FtEDXakfb4Sq5AUs51hTQN3L6CewL2VFIa+OijjwgEAjxUk3hYRUVlxowZzc3NkiozJkewBmA7knPbx3ASoJ9Iv0dw+wruCdhT8TSwd+9eFAwSicSMjAzBXzy3trY6OTmhMvr7+3d1dfEsBovFYjAYXV1d7SMXoIR4psQipaEB2I4ki5MYfSuN9uIrMyEhYcOGDdbW1jB5qa+v7+npGRMTU1VVBeeESVDgxPjAgQPTp0+3tLRcs2ZNampqU1MTm80eHBxsbGz85JNPdu7c6e/vP336dCcnJ39//6ioqNTUVHAmLpPJFIwI8HuRvbMcDgfefctN3+LxeHV1dQKBgMfjHR0dP/zww8LCwq6uLrjksOTq6updu3bNmTPH0NAQ1oClpeXatWvj4uLgxFhYemaPzGSECYz5k//3798/ee8z+eun3/70r//8/fff//n3L9/z8KV87+nPf75nYf/69dvH7/O+3X374OE3P//+56tXr3747sXrpw/uI46U7z37FeV6mU8Fxiwzn3xvomWWF25frLfDGuC54DXp6Nvu7u7FixfzrEtERASgOpYtW8adYNasWcCRPqwTLMxPA7AdydJ+URgiDG7wg8rvXjwRGypffPv9q1ev/vrjVzGgUpgyo6qJ3Mo4L9zK/HqCcsbb2dmZmZlpamqiZnTIrba2tr29fXh4eEVFhTAqAkd1rF+/3tLSEhGCBLS1tW1tbVevXn3hwgUajdbV1YUc1SGM8HGmAWNLCoUSEBCgra2tpqaGFGzKlCl4PF5HR8fHxyc1NfXWrVtjfsg8zsJMxuywHcktfYvhJIBZkTAWbtnJ2DMndZmHhoYYDEZlZWViYmJISMjMmTO5x3XCxMyaNV2/3E0AACAASURBVCs0NPTo0aM3btzo6+sbGhqa1GqZjIWH7Uiex5P8QBKbdyNjVJ4BuH0nY/+cjGVmMpnh4eF4PB4erUk2rK+vn5+fL9I652TUpPyUGbYjDCffbEHB1iflp3dOhpJUVVVpa2vDMKiiouLq6irgM2s6nb5q1SrUobkqKiqBgYHc9C2Lxbp69erOnTsXLFjg6OhoYWFhbW09c+bM1atXp6SkNDU1TQYlTfoySg8np4D5oWT/h4s76XUv0QqcOnUqKirK1tYWj8drjFx4PF5XV9fJySkiIqK8vBzevoCQoBwOh8FgUKnU48ePu7m5WVhYBAUFJScnNzQ0DAwMdHV1Xb16NSYmxtvb29DQUG3k0tfX9/DwCA0NjY+Pz8jI+Oyzz27cuIG4WR6zTsju246ODgqFsmvXLnt7e3jfLf7dBV5HIBDc3NySk5Orq6t7e3sRAhgeS7HZ7MrKyqioKFdXVz09PZi+tbGxiYiISEpKGrNgSpUAtiPJWqgkpf3w8snX750eP3jy7StI+qvveO3KvXvv8eMn3zx79vTR/ffULMLRfv3o5Q+QiNfff/PgLrI99/6D59/DDydzGG5fperYY1aW5zrXpKNvBwcH9+zZw7MuHh4e9fX1jY2NdnZ23AnCwsK6u7vH1BKWAGgAtiO5xgMMKsfRPHArYz0f1oCxsbGenp6AzQ1EItHc3DwkJKS0tBTOyC/c0tLy6aefRkRE8HSerKur6+bmtm3bNgGTTH6Sxx8/ODjY09OTlZXl6empqqqKw+HA7Fdl5CKRSM7OzhERESUlJWJ4nRl/8eRfAmxH4zBHaWbFcFIs7cItK//9UCFLCA45ApNx7nGdMDE+Pj47d+7MyclpbW1VSBXJf6VgOxLLEGWSCQNJcdUMt6/890aFKSGNRpsxYwbMVUgwjMPhzpw5Ay+fKoze5LYisB2Ja4vSz4fhpLg6httXbjvhpC4Yg8GYN28eCgZxOJytrW1eXh531ahU6vz581Fuk6dMmaKiokIkEj09PSkUCpKrubl55cqVhoaGPNNramra2dmdP38e+0AQ0ZiUArAdiWuLvPNh9K2Umoy32MzMzN27d9vb24N9q+rq6ng8HpwgGxIScu3aNWTJCeFuwYikv7+/o6MjIyPD29vbxMRk1qxZYPmst7e3urr6xIkT8+bNMzQ01NDQAHyqhoaGvr6+lZWVq6urn59fUFDQjh07srOzwZm4CL3Ku5QcDjizlsPhNDY2njlzBnH4TBi53lG3b/6qqakRCAQdHR1fX9/09HQajcZkMhH5LBYLMLhsNntoaKikpGTdunV2dnY6OjowgW1nZxcTE3P27Fl+5VHOeOmZPW8wECf21bePYdfH97nI1R9eQOQrwsIKCDx48i2qIK9ePIJY3ruPvxnF7qIST6JbuH2Vs4fzqzXPda5JR99yOJz8/Hw3Nzfu6tjb26empiYnJ3M/IpPJiYmJ2ESUX9/gjoftSI7NH4PKcTUO3MrcfUCZY4hEooaGBvckDZkWEggEAwODwMDAoqIiYRQFjurYvn07mUxGhCABXV1dd3f36OholLcYYSSPP01fX19DQ8PJkydnzJiBw+GQz5ABfWtlZbVp06aMjIzm5mYMQnlqG7ajcRmktDJjOCmmZuGW5dn0WKS0NdDZ2UmhUOLi4vz8/LiHdsLEzJs37+DBg9euXevs7JR2aTH5PDUA25GYpij1bBhIiq9iuH15dgAsUkoaqK6u1tXVRUaSkgrg8fjt27dLqcyYWH4agO1IfGuUbk4MJ8XXL9y+/PoAFj9ODZw+fRp1ABBARTwev2LFCgqF0tzcTKPRrl+/vmvXLgMDA8GYSSAQtmzZ0tTUVF9f7+bmhsyO+eUiEAgHDx7s7+8fZy2w7AI0ANuR+NbIKyfmPFmA2iX/KC8vLyEhwcXFBeFB1dTUNDU1DQ0NFy1adOHCBTqdPjg4yBkhUMEWWEB/slis27dv5+fnBwYGWlpa2tjYBAcHFxYWtrS05ObmxsbGwrtjAYOLx+MJBIKmpiaJRDIxMfH3909JSbl+/XpPTw/CDcO7Y+HaAvqWzWbX1NTs379/3rx5RkZGMOWM7MRVU1MjEolmZmZBQUG5ubm9vb3gaw7UK4Brqby8vGXLlpmamhKJRFA84HjZyckpLi7u4sWLcBmwMGz2cuqc5N+w2+Q79+48/umvUf6KXr9+9fLh+72zPFnbBw8eP31wDyFokcNxAV69Effbi1EH69579uvot4x65cjN+7zcz8aKkVleuH2x3g5rgOc612Skb3t7e5cvX86zOkFBQbNnz+Z+5OzsfPXqVVgbbDa7c+SCI7EwogHYjuQUJ4eHhwVC5QjmvPr1GfwpzHuXBghs8oTKUXglIlSOyjsWMKKeyzgv3MpI02MBDocDDrBA9qFyT9XU1NS0tLT8/f3z8vIGBgbG5DXpdHpZWdnBgwcdHR0BLQrLJJFI06dPj4iIqKysFFX/YBzY29vLYDCQTxVFEgIIkl27dtna2sKlIhAI+vr68+bNO336NJVKZTAYIolVnsSwHcmj82QMJyGcFQlj4ZZVnv4sVzXt6uoqKio6cuSIv78/99BOmBh/f/+kpKSSkhJuV3hyVVMFLgxsR3I6nhQIkiNlxubdEIyODsLtq8DdWD6rlpOTo6+vD4/cxhnG4XDBwcF0Ol0+66vApYLtCMNJZJL+xoUytj6pwP1eolXr7e0NDg4WgIHEkUvA7B6VV0VFxcbGxt7eHhXP7xaHw23ZsgU7ZkiirTpKmPRwEqNvRyla2jeVlZUnT5708PDQ1NQkEAgIz6qpqenl5ZWamtrY2AgMCeZuESq0vLx8y5Yt7u7uJiYmc+fOvXDhQnV19dmzZ8PDw8F5ugQCAezoRahWwBNramrOmjUrJSUFODdGBPKjbxH+uKKiYvPmzc7OzsDdMcI6w+Srnp6eq6vr1q1by8rKhoaGkMVB5C0cDqe/v7+trS0jI8PPz49EIoG6g128wPHysWPHiouLpa3/ySVfemY/ejozxh3/JaS/fkHzDV+/+GXU4bSvX718CrlWfj/Eeecq+cGTV3++ef9fvz6/D54+ePojEIG899/fPhyd8e6TH/4tuNBIXsHJeD6VWV64fSdXz5R2aXmuc01G+pbD4Xz88cc8q2NnZ0cmk7kfeXp6Ip6T+/v7L126FBISMm/kWrduXUNDg7SVP+nkw3Ykp9PI4TGg8g3mvHr57X0elC0CffygEsYrUaESzssTDAVEyjgv3MqTrotKtcBaWlqampoCdt/icDg1NTVPT8+MjIzOzs6BgQHB5WEymc3NzWfOnHFzc4N3uIIZoKamppmZmfCumOF3MRiMurq6qqoqKpXa0tIixme/t27dOnHiRHBwsKmpKTwj1dfXnzNnzs6dO0tKShgMBuYSClY7HIbtSP7oWwwnRyGuSBgLtyzc4lhYZhrA6FuZqVp6L4LtSC7Hk2OA5JsyY/PuUTg66gZuX+n1IkwyTw0MDg7GxMQIOOkDHtQJE7awsKirq+P5LixSqhqA7QjDSWSefu8Otj4p1X6naMLb29vF9ipvYmISERGho6MjDFTyS0MkEs+dO6doapWb+kgPJzH6VqaN3Nzc/Mknn/j7++vp6amrqyN7WPF4vLOzc0JCQnl5OVi7R06fRRwRczic+vr6pKSkDz74wMTExMXF5ejRo9nZ2QcOHAgKCjIzM0MoW0CLqo9cwEexkZHRwoULP/744+bmZpge5q484jaZxWIxmUwKhRIcHGxmZobaLwvoW+A82cTEZOnSpYmJiWAUhUiAS85gMGpqalJSUmbOnAmoa5AXj8draWn5+Pikp6dTqVTu8ihzjPTMftRsZqwbvktIf3z/5B0L+37scu/pT3/8/U7kny8eff3+EXfiO3ef//SW7v3r9dN3Ke89e/Wvv4eHwXv/8+u3j+9ysRr3nv+GvOTdy+C/fMsMJ+ITllleuH2VuZ9z152b1LSxsZmk9O3AwMDMmTN51ohn5K5duwYGBjo6OtLT0+fNm4dKM3/+/Pr6em6NKXMMbEdyOY0cHh4LKl+//v7Fo68RDwTvkBDGPb5QCc4aHx4eFgMqZYZ1KKwV471wKytzb+euu76+PolEwuPx/KZnIN7Z2fnYsWO1tbVj7kwdGhrq7e29dOlSQEAAt2QCgaCrqxsQEHD58mVhiFJwcEZPT099fX1hYWFaWlp6enpxcXFTU5NI3/wCORUVFVFRUe7u7ogXPrC32MXFJTIyMisrq6WlhVtFWAyiAdiO5I6+xXByNFCKhJNwyyLNjQVkqQGMvpWltqX0LtiO5HE8ORZIDg9j8+7RMDr6Dm5fKXUhTKwADdDpdG9vb8GDVSGfamtrC3kgiIDyYI/E0wBsRxhOjpqzY+uT4nUpZc1Fo9GcnZ2F32IL4HHq1KlpaWlsNru1tXXx4sVaWlo8YROHw5FIJBcXl5CQkMDAQDMzMwKBgPKr7O3t3d7erqzql269pYeTGH0r3ZZDSWcwGBQKZcWKFebm5lpaWvD5r7a2tlFRURcuXGhra4OJT2QPK5vNBmeSxcTE2NnZWVparl27NjY2Njw83N/f38jICJDBwB0xcjytmpqakZHR3Llz9+zZU15efvv2bWR3LKpsyI5bcGBtf39/e3t7ZmbmvHnzUPtlEeGAggUlv3jxYltbG1xauBbA5d2ePXscHR0JBIKGhgbYJaypqWlkZLR06dJLly5hh/1wOJzWlpaa6mpKfj4lPz8jLe2t5aelXa+oKCsp6erouHvnzujJiFB3Ii0DoSTyyfv37y8fjBqyIOzs3XtPnjx78ezpk3tjuE2+d+fxjyN7b4eH//7t+SjHoQ8ePHn86OHj+/woja8R3hdVWnDLp8w806IjpZr38aNHXR0d1ysqrldUfJyejrQvaPGa6upWbPWZw0FxluB2ktK3HA7n1KlTPGvEHTlr1qyPPvooOjray8uL+ymIiYiI4IZuZYuZPDg5PDw8NlQ+5P5CBYHTtwG+UHn/3oPHjx4+f3yfD/srCCqlinVoYIXuhXzv3Tt3mH19AC3hX0MMLWF7NzMzMzQ0VFdX5zl5QyJtbW1jY2MpFEpHRwecnTsMiNLS0tKIiIjp06eTSCREyJQpU3A4HIFAcHd3P378uDBuigEZXFlZefTo0U2bNgUFBUVGRubn53d0dIi0+xbIuXz58qJFi/T19ZENHFpaWra2tqtWrcrKyqLRaEwmk7tGSh7DDy3LSkquV1Qw+/pEHVUKab+Qxb8P8s+L4eR7LYEQf129TYkhpFyZNkbfylVzCF8YfgiJzbtHz/EFDSblkcJ5B6gYTgpvCzJI2dDQ4OTkBI8qxQhPnTr17NmzMigt9gpEAxhOAjxU1PVJ3jiZng7PuAfH8t6E9BYsILwGqqurV61ahcxqBeOhqqrq7NmzL168iLA5TCYzOzt78eLFqM+4cThcQEBAQUEB4mm1p6cnPj4e5cGeQCDk5OQIX1ospfAawOhb4XUl1ylZLBZwgOzi4gLcEWuOXHg83szMbPny5SkpKbdu3QJMKrA3mBBlMBhUKvX06dM+Pj6WlpZz5sxZsGCBv7+/q6urnp4evJcXMKxEItHExMTHxyc2NhYhhgUoCH5Xb29vVVVVUlKSm5ubhoYGTNkiYQKBoKOjM2fOnBMnTty8eZPBYMASYPq2ubk5LS1t3bp1VlZWeDweqbWOjo6dnd3atWsLCwuVed2t8datwmvXsjIzYVPnF76QlUWtqfnn55+/m5uM/XfMZSABInjn/fv3l/fgzWFihR98+84J8r8EOw4dPYd8867773wswyX/8ssvf/75ZzmcRj5+9IhaU8OvQVHxWZmZhdeuNY7ggABrVeBHPJnLyUvf0mg0T09PnpVCRTo4OMyYMQMVibp1c3NT4KYXXLXJh5OAvZU/qBweHv7yyy+fP38udzvwhof/+fnn1JqaC1lZKGDkeYuhpYuLi42NDb9vb5F5oLm5eVhY2NmzZ5uamgRbGXiKuCm2sLBQU1NDfRpsZWW1cePG8+fPU6lUJpOJTCMRyWw2u7+/v6urq7a2Nj8/Pzk5efXq1QEBAR988EFsbGxpaakwO3cRaRwOp7e3t7q6+ujRoy4uLqqqqriRC4/Hm5ubBwYGJiUl1dXVIXNUOKPShqWHlrzHhPBQjH+Yb175G1LK7XgSQ0j5NGqMvpXPduFXKukhJMA/vljHHx6RJ7zzyh9IgpGkfM67MZzk1/MnPL6srMzIyAgZnYoaUFNTi4mJEen7vwmv8uQtAIaTir0+KRJOZoywudg+E4mbc09PT1ZWlr29PWprLAobtbW14+LiaDQadwFqamqIRCKc3tTUlNtd38DAQGJiIpxsypQpISEh3AKxmPFrAF62kiw3ge2+HX/riCCBzWbX1NTExcX5+/sbGxvDRKa+vr6np+eOHTuqq6thicAXMViWGhoaAvt3165d6+zsbGlpaWpqamVlZWJiQiQSYfoWhE1NTZcsWXLgwIGrV6+2tbUJHuuAFyFOm9vb2y9duhQdHW1vb4+4SgbELeKWWUdHx9bWds2aNZ999hmyGAcXGKkIlUo9ePBgQEAAqtYGBgazZ8/esWPHjRs3uFcAkewKHOjs6Mi9dAm2cOHDxQUFjx89QuZ7AgK8p4ICMkCPeOf9/dtH6P1hIjO4D7/59e17/njFww+zYPl3n/zyF1TKkSDoJ3JFS/zz88/zc3OFb1M4Ze6lS51j7ZRSSNNAEZbgdvLSt/39/ZGRkTwrJUakr6+vQja64EpNVpwcHh6WS6gcHh4GCv/iiy/A0hsaTMe65/27MFYu8Jxf3sePHhUXFMAYKHxYadFy8eLFnp6eU6dORc3HULeGhoZ+fn5xcXG1tbWCbQ087enpuXHjxtGjRz09PbW0tNTU1GCBJBJp+vTpYWFhWVlZzc3NqG/vwGd87e3tBQUFycnJISEhvr6+3t7eq1atOnHiRGlpaUdHx9DQkEhsa1NT09mzZ8PCwiwsLMCJvHg8nkQieXl5JScnX79+vaenR5h6KUMaaaMlP/sVxvr55pU/nARdRa7GkxhCyrP9YvStPLcOXDZpI6TgcY74OCl/IImMJDGchDsYFhasARaLdejQIQ0NDXhUKWRYRUVl1qxZ4Jg5wW/Bno5TAxhOvsFqxV2fHM948mJOjjJvMhmnZfHLfvv27XPnzvn5+RkYGMDfTJNIJFdX1/3799PpdH55P/vsMxSEHjp0iGdiNptNJpPhxJaWljxTYpHj1AC8hIXRt+NU5gRnb2xsTE1NDQ0NtbCwgJ0na2trW1parly5ckwqtK6uLjExcenSpaamphoaGjojF7xBVm3kwuPx9vb20dHRwK0xvKOXpwoQ2rW/v59Op5eUlBw6dGjJkiUmJiYot8wIfWtiYrJo0aLDhw+jjq1FRIENuP39/UVFRRs2bHByctLV1YVJa1NT08DAwKNHj3J/IcKzkIoU2dPd/cZDMuJBV9zA9YqKly9eCJ4Q8l0yE5xt5CnPvH/88Ih7R6yIMV9/846A/c/rp3w8fwqghO+9/BXN38LdY8JpiR9//PF6RcX425eSn9/T3Q1XTeHDPEnNyUvfcjic7OxssEmOZ9WEjySTyYmJiQrfAeAKTmqcfDP1k0uoRBbdgKqRfWZC/CC8TcLzd0HI7Nx5X754gaEl3O2FD0dGRgYGBpqYmMCTMe6wtra2vb39+vXri4qK+vv7x/xaDjgrLigoiIiIcHd3NzQ0JBAIyHwSOXE2Kirq3LlzV69evXHjRk1NTW1tbXV1dUVFRUFBQUZGxv79+9esWTNnzpzZs2evXLkyPj6+srIS+dRPyDqyWKy+vr6ioqLIyMiZM2fq6empqKjgcDh9fX13d/ctW7YUFhaKKlPIV0+6ZLJBS277FdLwBUxf5RAn4daf8PEkhpBwc8hnGKNv5bNd4FLJBiEBHkocJ+UQJFEjSQwn4c6GhQVooKenJywsjHukOmaMq6srcFIoQDj2aJwawHBSsdcnJTievH379jg7G5YdpQE2m33t2jVjY2MEDE+cODE0NIRKhrpNSUlB0oOAAJzcvn07nFhNTQ0lDbuViAZgCkDA/FeYGTRqPIntvpVIA4kgpL29PS8vLzY21t7eHt4vSyAQtLW1vby8Tp8+XVdXJ8ARMZ1OLyoqOnDggIuLi6ampsbIpa6uDk69BdwtkOzi4pKQkFBRUdHd3Y1yawyXGLCtSAzgbo8ePbp48WJLS0ttbW2EDyaMXMgeXGdn53379hUUFHR1dcGukpF3cTgccIbuJ598smDBAgMDA0AzI3JsbGw2b96clZXVomRHfrbQaDxdJedfudLc2Hjnq68eP3qEkLIvX7x4/OjRna++am5szL9yBYYDEL6QlSV4Gy7K7IVBCiQNz7y/PPtaRLKWi4i9++Snt/TrX+JJe/LDO9fL78qK9GEkMFG0xD8//5yn80/x2jcrM1OptuHypDMnNX3b2dk5f/58nvUSPpJMJq9ataq1tRXp3gofmOw4OTw8LB64jUJXKUAlatENdCSR0JLn78I7JB7jLyrvna++wtBSbFs+fvx4ZGSktbU1PBnjDuPxeB0dHT8/v8zMzPb2dsG+WMDXfkNDQy0tLbm5uXv37gUbfJGzeXA4nJqaGolEIpPJ3t7eISEh27Zt+/DDD+Pi4mJjYyMiIgIDA318fNzd3cHT/fv3X7hwoba2tru7W9R9t319fQ0NDWfOnPHz89PT0wMssrq6upOT044dOy5fvkyj0USVKba25TmjzNASZb9jWPvox/zyyiFOcre1SAgJ6s2vvqO1wvsOyYshJHdbyGEMRt/KYaPARZIZQkrQ9mFokEOQHP9IUoK6wnAS7u3yH6bT6Z6entyDVQEx5ubmJSUl8l+1SV1CDCfvSWHSzd0lJsV48scff0TWn3N4HWmUlZnZ1NjIXTssZjwaqKyshL/JzsjIGFMat0tkAS4K4uLiUDA7pnwsgRgagPkajL4VQ4FylIXBYNTU1Jw4ccLT05NIJOLxeITEVVNTs7Ozi4mJyc3NbW9vR0hQ4GIOuDUGJ4q1t7dfuHBh5cqVNjY22trawLmxuro6isq1t7ePiYm5cuVKW1sbyM5isbgd1iEv6u3trauru3LlSkJCwooVK8CBamB3r66uro6OjoaGBiCJtbW1raysgoODs7OzW1tbmUwmIgQs/CGlpdPpZWVlCQkJrq6u8BZhsPPY1dU1ISGhtLRUgEMAOWo8CRWlvq4ONmkQbm5sRPhaeMLGHX754kVzYyO3BAGn4SLLQNzSxozhmff7B3cRguH+g2ff//TL77/9+surF0+/5qJp+flAfvj9n+Ddf/8m+BhdfvIfPP/l79Gl59c+Ig2SeNZ39Hv43oG8XR0d3K0z/vZVnhEST0ZzUtO3HA4nMTGRZ73GjCSTyXZ2dm5ubmFhYUrF3SoATg4PD8snVPJcdAP4KSRajh8nAYxy2GwMLfn9cgkTf/Xq1cTERHd3d3h3LGpiNmXKFLBj1dHR8cCBA8KPuMDndxQKJSYmJiAgYMaMGVZWVsbGxrq6ukQiEXw1SCKRbG1tPT09Fy5cGBgYuGTJEn9//1mzZrm7u/v4+KxevToxMZFCobS3t4+55RdVXzabPTQ01NzcnJWVtXXrVmtra5WRi0AgTJ061d/fPy0trampCfv6m8PhyBItJWX78EBKDnES1RuRWyEREtRu/LrCEBLRvJwHMPpWnhtIlggpKduHEVJuB5P8Gh3DSX6aweIRDdy6dcvMzEzwcY/IaFZDQ+P48ePca5iINCwwfg1gOPlmbVNx1yfHOZ4EB+Vyz9nr6+rG3/cwCYgGxKBv09PTEagEAQqFgghEBVasWAEn1tHRQSXAbiWiAdhSMPpWIiqdMCGDg4M9PT1XrlxZtmyZqakpYHBhd8RLliw5cuRI3QgUwl6IEVp0aGiov7+/trb21KlTISEhFhYWgAAGjpT19PR0dXW1tbUJBIKBgYGXl9eOHTsqKysHBwcBd4vaawsUwWKxmExmVVVVUlJSSEiIh4eHubk5IG7Nzc3t7e2dnJxsbGx0dHQA32xubr5ixYrjx4/fvHmTyWQiwoE0hMpls9lNTU3nzp1bu3attbU1Ho9HaqqhoQEW4DIyMlpbW8fcCzJhDSbpF5eVlMD2nJGefr28/Mcff0TN08a8feP7orwcJYrW1MQz4/iXkFBi3xOuD178Dvsw/uP1M+EY3Mff/uutzN+/E3SMrgD5T17BbxZASIA2FHIyOU5d1VOpqEaRYPuWKcdnpzwZzclO33Z0dLi6uvKsmoBIBweHFStWpKSkVFdXK9WsVTFwcnh4WD6hcvxoOU6cfP369fDwMK2pCUPLcQ4xOjo6Ll68uHjxYgMDA2R3LDwxA2FAfJqZmQUHB588eVKAVyW4PCwWCzC4169fz87Ojo+P37Bhw8KFC93c3KysrAwNDUkjl7GxsbW19YwZM7y9vRctWrRq1aqIiIi4uLiPP/64sLCQSqV2dHSIMcYbGhpiMBiFhYVbtmxxc3PT1dUFtdDS0iKTySEhIVeuXOnq6hoYGIDLrIRhGaOlRGxf/oeUgjsSNp4UrB8lfIrRt3Lb6DJGSABuEsdJ+RxMCm50DCcF60fJn7JYrDNnzpBIJO4hKypGRUVl69atTCZTyTUm1epjOAn2pWDrk6jxOer2xx9/LCooQE3elWR9UqoGiAgXg769efMmagVgwYIFfX19iEwkUFlZqaWlBQOst7c38hQLSFADsI1g9K0EFStrUYA6ZbFYlZWVUVFR7u7uU6dOhU/AJZFIjo6O69evp1AoDAZjcHAQxeAiu1q7u7srKipSUlIWLFhgYmICdkLo6upOmzbNxsbGfuSaMWPG3Llzt2/fXlFRARhWxMUxUhKwH2JwcLC7u5tCoWzevNnLy8vBwcHGxmb69OkeHh7z588PCAjw8vKyt7cnkUiampomJibzmfMUmQAAIABJREFU589PSkoCezgQshbRJogZHBxkMpllZWU7duzw8vIyMDCAa6qjo2NnZxcWFlZQUMBkMnluC0YEKkygjovbE7BlFvV7yfP2n59/DqNDRno6T4ESn0Z+cxfssr37/Kf/jC7Y37+/vI9szOUfeH9yreDjfATJR76Pe1cCYfrJmJPJ8eiK0dsrTHO8K+/Yf7nbVxn24PKkMyc7fcvhcPbt28ezajwj7e3tN23aVFhY2NHRIequNWEMQZ7TKAxODg8PywoqBUIxF1SOSd+C7iEALceDkyAvm8XC0HL8Zshms2/cuLF9+3bkXFgBWxlIJJKLi0tERMS1a9dEOi+WxWJ1dXWVlpZmZGTEx8dv27YtLCxs2bJlixYtChi5lixZsnLlyvDw8JiYmISEhLS0tMLCwtbW1oGBATHgC4whOzs7S0tLDx8+PGfOHOA2GUw4iUSilZXV4sWLk5KSrl69SqVSlZnElT1ajt/2uYc+coiTwtimAIQEdRyPrrDxpDBNID9pMPpWftoCLonsEXL8ts8TN2QFkneweTdqaKoM827YZGQZ7u/vj46OhrkEnuHAwEAGgyHLginbuzCcfLdiia1Pco/QecRwOxrEcFJSoCEGfdvZ2eno6AiDp4aGRlJSEurQ3Fu3bnG7rI+Pj5dUyTE5sAbggQRG38KamWRhhHxtaGhISUkJDg42NzeH96QSCAQSieTj43Pq1KmamhruE3ARNndgYKC7u7u0tDQhIWHp0qUmJiYEAkFLS8vS0tLf33/t2rVRUVEffvhhYmJidnY2jUZDtt6yWKyhd9fg4CA4M6y/v7+1tfXy5cubN28Gy3AREREHDhw4evRoQkJCZGSkt7e3ubm5lpaWiYnJ4sWLDx48WFJSQqfTBwYGkCKBxkDqyGQyW1paMjMzlyxZMm3aNE1NTZi+NTY29vf3379/f3V1Ncgixhrf5Gr+FhoNtuScsQ6s5fFrySvq8aNHqAMJuM/B5TkV5CWMRxzPvM/f0rf3Xv72f6g8f/7w5N0YiLcj5Qf3n3zz8sd/v3V8/J+fngg4RveuIPkPv/9j9LuF7w8CFt141nf0e3jf3fnqK9m0r8Kfg8uTzlQA+raxsRG4MeBZQRDp4ODg6em5Y8eO+vp64fuzIqVUJJwcHh6WFVQKhGIuqBSSvgX9iidaio2TYAj7j//+bwwtJWW2NBrtk08+iYiIsLa2xuFwAuhbPB5PIpG8vb1PnDhx8+ZNkZbDBgYG6HQ6jUajUqk3btwoKysrLi4uLCwsGLkKCwtLS0srKiqqq6upVGpzc3NXV1d/f7944zoWi3X79u2ysrJdu3b5+vpOmzYNdg2tpqZGJBJNTU3d3d1DQkKOHTtWWFjY1dUlKX1OIjkTgpbjtH2w8x41ipJDnBS+G/BESFBBsXWFjSeF17+cpMToWzlpCLgYE4KQ47R9fst8sgJJbN49zL2uovDzbthqZBxmsVh+fn44HA7mHpCwiorKjBkzmpubZVwqpXodhpNg3RJbn0SNzAXf3vnqK9T6M4aT48SN27dv37p168MPP9TR0UEwMCQkpKKioqenR4DwoaGhzZs3o1CUQCCEh4dTqdS2traWlpYLFy44ODiglgiMjY1ra2sFSMYeia0BeJmL37hOsIkhT1FzySnIA8EBVDbBieHiil1nhcw4NDQEaNSOjo7PPvts9+7dzs7OmpqahJELP3KpqanZ2NhERERkZmY2NjYChhXenArTpZ2dnQUFBQkJCQsXLrSyspo6daqZmdncuXPXr1+/f//+1NTUy5cvV1VVdXd3I7kAfQv+h+nb9vb24uLio0eP7t279/Dhw6dOncrIyDh37tyhQ4fWrl07Y8YMMzMzGxubgICAQ4cOUSiUjo4O4M8ZSAbtBe/E7erqKigo2Ldvn7OzM3JoLnCerK6uTiaTN27cmJGRQaPRkD3BCtnooFI93d1ZmZmIaeRkZQl50q1gWwNPX754Af+CXuASLpL9ot7IMy/yFfDTVygK9e9fn9/jT9/ee/7Dr6O36/7nt5eP7vM7H/fOHUHyH//w9vTcdyUWtf/wXHTjWd93b+D79+WLFxeysmTTvlmZmT3d3aJWdhKl58luKgB9e/v27YiICDKZzF1BMpns7u6+cePGtLQ0Go2mVH6S4Z6pYDgJ774VBGU8AFBUqLwrSD4XVIpE34IGQqGleDgJAPTru3dzPv0UQ0u4548nzGAwamtrT58+7e/vb2hoqK6ujsz6UAHgfNjS0jI8PDwtLe3WrVvAxct43i7ZvGAMSafTKysrjx075ufnx69GOBxOXV3d2to6ODg4MTGxtLRU2fbgThRajsf2+eWV1ZBSBJwUtWOjEBJgHb/68h1KjjzAxpOiKl8e0mP0rTy0AlyGiULI8di+gLyyAkls3v2mEVDrKgo/74YNR/ZhGo3m5uaG4hXA8NXAwCA/P19pJ8UyaAsMJ0cWLUWddGM4ieGkJK2TxWLl5uYuX75cV1cXNXOfMmWKpqYm+PBawFfXZWVl5ubm3HkJBMK0adOmTp3K/UhVVTUqKkqMs40kWXPFlYUsc2Wkp2P07SRuZ7DNlMPhMJlMGo12/vz5+fPn6+vro3amTp061d3dfcuWLYWFhYgLZW4Gl8Ph9Pf3d3Z2lpWVnThxYs2aNba2tiQSydjY2NXVdfXq1QkJCbm5uQ0NDbC1IzwuEgDsaX9/P51Or6+vr6ysLC4uzs7OPnLkSHh4+Jw5cwAxbGtru3r16pSUlNLSUnCSGSyBm8qtq6s7cuTIkiVLTE1NCQSChoaGuro62GpMJBJnzZp19OjRqqqq3t5eZaBvKfn5sBlzb5AFczax/3/86BEs/3pFBSxKvCUkIIFn3vdn8Nx7+tMfbzfSDg8P/+fXF4/fbszl3np79+kP/3qf9H35/vPLM/7+lgXIf/qjSGff8gMO1KIbz/q+Lyyf0PWKClj/0m5fSn4+v+ooQDw3u2ljY6MA9C2Hw6mqqpozZw6qgjNmzNi7d29VVZXgb+sUoGXHrIKC4eSos28FQBmavpU6VIpB34K2Q9BSPJwE8Ik6YAlDyzHtQnACcEZsaWnp7t27586da2BgwD1JAzGAvtXR0XF0dFy3bh2FQunp6RkcHBQsX5ZPWSwWk8msrKw8cODAokWLzM3N1dXVUR8UI3XB4XA6Ojo2NjaLFy9OTExUtj24E4WW47F9fnnlcEgpXrdHEBJgHb/68hlIvo3GxpPiKX9ic2H07cTqn/vtE4WQ47F9AXnlECTHP5IUUN+3aMj/D4aT3H1+ksaw2WwKhcLNPejo6GRmZornxGWSqkL2xcZw8t4dqU+6xWtWbDwpnt4mY66TJ08aGhrynO0iM3oikRgeHs5vqZDFYp08eRJJLEzAxsamqalpMqprUpQZ5gUw+nZSNBnvQiJ8J4vF6u/vLykpiYiIcHFx0dPTw+PxmiMXCJiYmHzwwQcXL16k0+lgcQ2hfrlF9/T0XL9+/cyZMyEhIa6urhYWFtbW1nPmzAkNDY2Pj8/IyKBQKBUVFTdv3qyvr29ubm5tbW1vb+8Yudrb21tbW5ubm+vr62/evFlRUUGhUDIyMhISEkJDQ728vKysrMzNzZ2dnVesWHHq1KnKysrudzv/kOqAIoFbQCp3dHRcunQpNDQUnJgLu03W0tKysLBYvnz5pUuXYPfLCjw+6+zogG2Y5/G0/Gcowj5BnZMKr4mLt4QEXswz7+uHd99vsf36wfOX373+4Yfvnj18iOYhIBL33vPfeJG3b97yx/dPBGTkI//hN7+gVMNtGsLHIIMknvVFvQh1i+LOZdO+CuyiBMVuglvFoG85HE5FRUVoaOisWbNmzpzp6+ubnJzMbygmfO9VjJSKh5NvhmtyCZViL7qBnvbll18+f/6cpxNUFDZy32JoKSVrbWtru3jxYmxsrJeXl5GRkbq6OiBruadwwPmwu7t7XFxcQUFBS0uLeCfUSrYiLBZrYGCgvb29tLT02LFjCxcuNDc3JxKJoPw4HE5VVVVdXZ1EIhkZGZmbm9va2jo7O3t4ePj5+YWFhaWkpBQVFdHpdMmWSm6lTSBaijFGQnCAX145xMnxND02nhyP9iZpXoy+lauGm0CEBHDHD+sQMBQQ4JlXDkFy/CPJn3/+WbxlTWwkKVfmJpHC3Lp1y83NberUqUQiUVdX19nZuaSkRCKSMSH8NIDh5JvFTGx9UsCvkRCPUOvPCrw+yc+OxhM/NDR07Ngx7qk6v5iwsDAB+2X37dunoaHB05MBLBCHw5mZmd28eXM8JcfyCtYATP2IN85BjA81JsScJwvWvOSfIu6FWSxWQ0PDqVOnVq1aZWFhAdO34FivwMBAQN8ODAwge1tRBQKM6cDAQE9PT11dXW5u7uHDh4ODg93d3a2trS0sLJycnObMmbN06dLw8PA9e/YkJyefO3cuKyvrypUr+SPXlStXsrOz09LSkpOT9+zZEx4evnTpUm9vb2dnZ0tLSysrKzc3t+XLlyckJFy+fJlKpXZ3dyPn3cKFQerF4XA6Ojry8/P37t07c+ZMEokEPCcju2+RU29v3LgBFg0R3hcWqEjh3EuXEBu+Xl6OWKPEA9fLy5EXFRcUIPJRZo/ECxPgmffXZwI8JEOULUTK3n/2Ez/2dnj4X9/d553rPUkMiQKRXM5Ch8ffZ8SjJYoLChC1y6x9cy9dGn995VOCYtO3AMxpNFpdXV1fX598NsGElErxcHJ4eFg+oXKci26ge3zxxRdg6U2Y3xEkDYaWUjKu/v7+trY2CoWyd+/egIAAY2NjfvQtDodTU1MzMDDw8PCIjIz87LPPOjs7wThTSmUTRuzAwEBnZyeFQomOjvb29jYzMyMSiaqqqmDCqaqqqqGhYWRk5OzsHBAQEBYWFhsbe+zYsczMzLy8vPLy8lu3boHPAYV5lwKkmUC05DkmRAxccIBfXjnEyfF3Emw8OX4dTiIJGH0rV401gQgJMJAf1glGSAF55RAkJTKSxHBSrgxnYgvT399//fr17Ozs0tJS7MtmGbQFhpP37tzB1ieF+VUSnAZef1bg9UmJmySbzc7IyNDT04O5VcFhFRWVyMhIfn6zBgYGjh8/bmNjI0AIgUBYvnx5dXW1xKuDCYQ1gFADmPNkWC2TNYzso6XT6cXFxfHx8R4eHiQSCey+JRKJZmZmPj4+MTExhYWFPT09gC4FuZANryAAIsH/wPtxRUXF8ePHN27cOG/evOnTp1taWpqZmVlbWzs5Ofn6+i5btmzt2rVbt26NiYmJHbliYmK2bt26du3aZcuW+fr6Ojk5WVlZmZmZWVpaOjo6+vn5bdiwISUlpby8HN4piyJcEe52YGCgt7e3rKzswIEDCxcuNDExwePxBAIBOfJWU1Nz+vTp27Zty8nJaW1tVQa3yU2NjbAB//jjj4J/Asfz9OWLF/C7kG2gEp9G/vnqiQBileejB89/5k/f/vH9A2g7LxdTy0vg/W9/+z+UriSFCCLREqiPzmTZvk2NjZKqslzJUXj6Vq60LSeFUUicHB4elk+olMiiG+g5yD4zFBrzvMXQUtrm1t7enpeXt2/fPj8/P1NTUyKRiMPheH6Hi8fjSSTSrFmzPvzww7y8vMbGxtu3b0+IExTg/LmhoSE3N3ffvn2enp4GBgYkEklXV9fY2NjCwsLOzs7V1dXb2zswMHDLli2HDh06d+4chUKhUqnKdt4t6D8Ti5YSH0/KJ05KylSx8aSkNCnncjD6Vn4aaGIREgx+JI6T8jmYlFSjYzgpKU1icjANCKkBDCfB6iK2Pslzwi5SJGr9WVHXJ4W0LOGT9fT0eHt7c0/SiUTinDlz+B2HpKurm8//EL2hoaH6+vqYmBgDAwOUZFVVVQ8Pj08//RRxpCp8UbGUomoAZmSw3beiak/u0iPc58DAAJ1Oz83NDQ0NtbOzI5FIRCLR2Nh47ty5CQkJhYWF7e3tAwMDg4ODQ0NDMFMLh4dGroGBgf6Rq7u7+9atW4WFhefPnz9w4EBYWJifn9/06dMtLCxMTExMTU0tLS3JZLKdnZ39yGVnZ0cmk62srExNTU1MTMzNzR0dHX19fUNDQ/fv35+enl5YWNjQ0AA23YJiIOUHmkW4Wzab3dvbW11dferUKcDdos701dTUNDIyCggISEtLA2uFykDfFl67hhhwc2OjSD+HYiRuhthiak0NkCDxaeTwv797LBTJCu2pffj9n/zq89cvz/memAtJgN/49bNfudhgyZq6kLQEtaZmotq38No1yVZZTqRh9K2cNIQsi6GYODk8LJ9QKUH6FnQSDC1laSwC3tXf39/e3l5UVHT48OHly5dbWVkRCASep+ngcDg8Hm9oaDhr1qxNmzbl5OQ0NTXdvn1bgHApPWIwGFQq9eOPP16/fr27u7uxsbGenp6FhYWrq+vChQvXrVu3e/fu48ePZ2dnFxQUVFZWUqnU5ubmjo4OBoMhD26fpaQWAWInFi0lP56US5wUoH8xHmEIKYbSJlcWjL6Vn/aaWITE5t1i9wQMJ8VWHZYR04CoGsBw8u3mEGx9kt/yrCjx8Pqzoq5PimpiY6anUCioGbq6uvr69eu7urpAXhaLdfz4cRQRq6KiEhERMabTrL6+vtzc3P3790dGRkZHRx87doxKpbLZ7DFLhSWQiAYQdkDyu2/BPFyy/8PFlUj9FUwIoD8R+6FSqYcPH166dCmgUefOnbtjx47CwkLAmAKmVgB9y2KxhoaGAMuLyGQymTQarbi4+OzZs3v37g0LC1u4cKGXl5erq6uTk5OjoyPgbsH/jo6OTk5Orq6uXl5eCxcuXLNmze7du1NTU4uKimg0GpPJBPqHaVqkRZDI/v5+BoNx8+bN1NTUdevWWVlZqamp4UcusPUWj8dPnTp11qxZ27ZtKy0t7e/vZ7FYKFUgYhUpkJWZiVjEyxcvRPkpFCct/AFUzqefSta0IWnfPv2aD7EKk6yjwl8//fYVJOF98PtnD3ntrxUk//7Db354L+BtSBrd5osvvgCnPHK97W1EzqefTlT7ZmVmSqPKEy4To28nvAlkXwAFxcnXr1/LI1S+fv1aGk2MoaU0tCqGTODZ5dixYytXrnR1dTUzM9PW1lZTU+N2pgT24Lq6ukZFRaWnp5eXl7e1tTGZTGQwKcbbhc8C9t3W19dfvnw5Pj4+KCho9sg1b968VatWRUVFJSQkpKenX716FZzcAQaNwstX1JSKiJZyh5PS6DwYQkpDq3Iiczz0LZlMdnR0XLp06cmTJ69fv455DR1nmyoiQsrpYHKcLcUzO4aTPNWCRWIakKwGMJx8t/aIrU+Ks+CMygOvPyvq+qRkDZDD4QQGBsITcxUVldjYWIR5Aa9jsViffvqpvr4+nHL69OnNzc0SLw8mUIIaQNiBjPR0fiSCePFTxMsmOBdcXAlqQZFEIawnh8Pp7Oy8du1aQkLC4pErISHh6tWrra2tAwMDCGuL0Jz8AqhVLRaLxWQy6XR6U1NTdXV1aWlpbm7u+fPnT5w4cfjw4f379+/atWvnyLVr1679+/cfPnz4+PHj58+fz83NLSkpqa6ubmxspNPpTCYTJlnhFT2kCiABg8Gor68/f/78ypUrbW1tdXR0ELfJgMRVU1OzsbHZvHnzJ598QqPRkA3EsExFamJQlxYaDTGH/CtXUD91UrrNv3IFean0DpD/xz//37txjyCedVSaL7/4//4L3cj/9Y9/fvWV0BLe8sFf/b//QcuR6j2/yeQ//vu/EVUrWPtKVZ+ChWP0rWD9KN5TBcZJDoejVFDJ4XAwtJxwCwWeXWpra3NzcxMSEgIDA+3s7LS1teG5HwiDPbi6urq2trYLFy7cu3fvhQsXwAhNBmMzBoNRW1t76dKlpKSkvXv3xsXFJScnZ2Rk5ObmFhcX37hxg0ql0mi0zs5OBoMxODgogyJNeNuNWQBFRUvlwUkMIcfs5JMxwXjoW0dHRw8Pj7Vr12ZlZTU2Nvb19U1GDchJmRUVIZVtMInhpJwYFFYMhdQAhpPY+qTEV6Fls/6sMPbIZrNJJBI8MXdxcUFxt6Cyg4ODa9asgVOqq6tXVlYqjCoUsiIIQSB5+lZI0wV8rZCJ4eIqZHtIpFKAv+RwOP39/a2trVevXo2Pj09ISCguLu7s7Ozv7wf8KJPJ7OzspNFoDQ0NdXV1DQ0Nt6CrceRqGrmam5tpNFpzc3NTU1Nra2tPTw/Y4QocFDOZzPb29vr6+srKyqKiIgqFkjdyUSiUwsLCysrKurq6trY2cPgZP5IYVBw8RfjXgYGBnp6e6urq8+fPb9682d7eXkNDA7XvVlNT09jYeMGCBWfOnKmtrWUwGAj7KxFlyq2Q6qoqxBxk4DkZWCjsv6K6qkpayvmvz0WnXe/c+/J///fz//nHCIn7X//9j8//+b93ROZu79z78ot/SKtWguRyu3W63densO0rSBPSfYbRt9LVr/xJV2Sc5HA4ygeVHA4HQ8sJt7PBwcHu7u7y8vKjR4+uW7fOx8fH1tbW2NgYfF2nMnKB2aCKigoOhzMyMvLz84uKikpLSyspKaFSqe3t7VI9EBfQt3l5eWfOnPnoo48uX75848aN9vZ2ZOw64TqUwwIoLFoqGU5iCCmHxjWeIolB35LJ5OnTp3t4eCxevDg8PDwpKamsrIxOp4/pE2885VT4vAqLkEo5mMRwUuENFqvghGgAw8lR9O0dbH1SSJJHUDIZrT9PiMFI4aXt7e0wIztlypR9+/bxe8/ly5dRiS9cuMAvMRYvDxpACALJO08WZIXQM4y+lV4/YLFY/f39nZ2d1JGLTqeDpSuwq7WzsxMcZJuSkpKUlJSSknJi5Dp58uSpU6dOnz595syZ1NTUs2fPpqWlpaenp6WlnT17Njs7+/r162AVDJQcvKWvr6+np4dOp3d0dLSPXB0dHV1dXd3d3QwGA3FojFCzqE29HA4HoV2RbRA9PT1VVVVnzpwJDg62t7fX1dVF9t0SCAQ8Hq+mpmZsbOzv779v377S0lJwXBnggKWnVTmRTMnLQ6z3zldfQSYlxeCdr75CXkrJy5OeKv7niy/Ro59R3pJF3VMrZPqvvuTewyu9SnJJhieT18vLEVUrXvtyVV1GERh9KyNFy81rFBsnORyOckIlisTF0FLGBsdmswGDW19fX1BQkJaWtmvXrsWLFzs4OJBIJBwOp6KigtC3Kioq6urqBgYGdnZ2Pj4+YWFhR44cuXLlSlNTk/TIVOA8ub29HXyJ2N7eDn93KGN1TZbXKTBaKiFO/v/svVtYFFfWN174aqOCGQU1oImgAhptTRQTxUQxinjCGE9RiBH1zYyTIImHHNREiUYkEUSBKIIKRgFPiIqIiAlgBKJQ7/s9/8w83zcz35W5mGfmavLMzfvd+X/qtHv1rkNXdVdVn1ZfwK7qfVxrr1+vvX/7gP5ksNidx3oapW/Hjx+flJT06quvrlu37tNPPz19+nRTU5PA3fb19XksDiOoSSCEETJsnUnESbXebu77x48fX7t2rays7NixY9+G8efYsWNlZWXXrl0L4ZU0iJMWTGDi/KRN88/m4p6/cmtqaqIY2cOHD6tV5urVq1TkoqIitcj4PhAkQAgCpG8DQR2W10GgSAV+9O7du0ePHn3//fffeuutjIyMpUuXrlixIov/rFy58q233nr77bdXr169du3adevWrV+/fsOGDTk5OTt37hROYO7t7RWqq7ahFr4nMSn6FsYh9K2wb7i9vf37778/cODAmjVrEhMTIyMjqX23gwcPHjFixIwZM7Zv337q1Kn29nZhN3CYjE6he/Tr06cWcrYg61+fPiWQYSl9y/7X//cXL/bO+kjx/p8/+WXrLWX2wmASEhIhqF+qzXY9In1rl6QDpZwQx0luz0T4QiUhcREt/WhvPT09d+/era6u/uyzz95555358+c7nc4JEyaMGTMmJiYmOjra4XAIhO7AgQOjo6MTExMXLly4bdu2w4cPnzlzpq6urqmp6d69e52dndaxuX6UTxAVHcpoGa44if5kEBmgWlX107cTJ0586aWXZs2atWjRonfffffgwYM1NTUPHjwIk3GxmgDNeh/KCBneziTipFk2opjPnTt3li5dOmbMmOHDhz8X9p/hw4ePGTNm4cKFd+7cURRXsL9EnDSfvsX5Sdvmn4Pd/Pj6y3ff/vGPf1Rr2cmTJyn6try8XC0yvg8ECRAuBunbQFCHtXWAXCnLsjdv3vz000+XLl06efLk+Pj4MWPGjJU+L0ifF/nPOP6TkpIya9asTZs2nTt37uHDh0+ePCF0KSRl1cKwdBgm8YWXggja29u/++67vLy8efPmvfjii9HR0WTf7eDBgwUqd8SIEdOnT8/JyTl9+jTZDQwzsVaa/s69/ORJYr2//fYb4FgtDMLb409XVFgqg//+5X//Xx/pWEPJ//p//ncgkLeSTCvKykJbv1JDbf0fmPTtrVu3FCu2ZcuW7u5uWwUUcoWFPE6yLBvmUMmyLKKlHw23r69PuInj5s2bFy9eLC8vP3jw4LZt21asWDF79uykpKSYmBiBwR0wYMDAgQOjoqJGjx49YcKEl19+eeHChTk5OXv27CktLW1oaMDDjf2oR5ZlQxstwxknESH9a1k+lq6fvn3ppZdef/31DRs2HDx48OzZs01NTT/++GMIb/PyUbBGk4c2QqIziThp1CL0xO/o6HjttdcoegAfGYZ57bXX7t27p0eGwRUHcdJk+hbnJ589s3P+ObjMTa22w4cPhzA7ceJEtbtvly5dCmMOGTLkqnXXI6pVF98bkQAhCJC+NSK24IwLSVOWZZuamj755JNFixbFxcUNHDhQ2NsqnEhMPQ4aNGjo0KHjxo1bsGDBxx9/fOXKFXIIMyFf9QTk3CrZcdvX1/fkyZNHjx61t7c3NjaeOHHi97///RtvvDF69GhSmUjpM2TIkOHDh0+dOnXDhg1xcTX+AAAgAElEQVRFRUV3794lCpEXQb4KsQBluhZytu5Zw3KtFul//dd//y+7Pv/NX5prdYv05w/l7K4Ba59gufprGywxp0yZIidKFy1adP/+fT824fz58/JaJSYm/uEPf8B5Nx/1AvuztZbjnjss18cm6EkezlDJsiyUtrserH2C5epRU8jHefLkycOHD2/dunX69OmDBw9++OGHGzZsyMjImD179owZM6ZOnTpp0qTk5OQJ/CcpKemVV17JzMzcvHnz/v37y8rKGhoa7t6929HR0dPTg9vF7O8tsD9baznuucNyLW112OIklLC77K19guVaqtnQzlybvh0/fryw6fbVV19dtmyZcLDB1atXu7q60IE0t2PA/myt5bjnDss1t0Xy3MIWJNGTlHcGU958+umnAwYMgPQAhgUJDBgwID8/3xQhB1QmEK/ckczaJ1iu1QJBnBSkba1G3XO3U79W9x8b8l+1ahWFtOvXr+/s7IRF9/X1FRQUPPfcczCm0+lsbW2F0TAcaBKAtvDs2TNDF9G6WxWdlqG+Vns0VCSsbqCJMpDrQ0hN6vDkwsLCtWvXjhs3juxtFe6UpR6HDh06ZsyYBQsWfPnllw0NDR0dHQLb+uTJE8jaQnoYhmEcEiYX3JK6PXr0qLm5+dSpU/n5+cuWLXM6naNHjx4yZAhVmUGDBg0fPnzKlClr164tLS29e/eusJyE5BPIijCxbtAW1IzLivewXBObg1lREoBytkKPannCcqkqhcDj/Pnz5UTplClTGhoa/Ni6Dz/8UF6rxMTE3bt3I4fho15gf1br81a8h+X62ARM7lECUNpWaFMtT1iux0qGQ4T+/n6yDq+5ubmxsbG+vr6mpub06dMlJSWHDh367LPP8vPzt2/fvm3bttzc3G3btn344Ye7d+/ev3//4cOHjx07dvr06YaGhtbW1u7ubuIlhoPoAqGNsD+r9Xkr3sNyA0EOoVcHKGErNKiWJyw39KRqW4u06duJEydOnjx53rx527Zt+/rrr2tra+/cuSNwt+hAmqsj2J/V+rwV72G55rYIc4MSgHK2Qo9qecJyYX1CIzx9+nTIDWAYSmDKlCmhoWXYCtif1fq8Fe9hubA+GDZXAlDOVuhRLU9YrrktCsncamtrHQ4HRBuHw7F06dLr168L7f3xxx+3b98eExMTERFBog0YMGDz5s2PHz8OSZmETKOgLSB9GzJqpRsCqU2BQGVZtr29vaKiYtu2bRMnToQUqUP6REZGCmyucEzx5s2bv//+e2HfrUADC/QtYWrpUqVnIQIhboWAMDFHZvpu3bpVU1Nz5MiR//zP/3z99dfJgcny+25jYmKcTue6desOHz5M7o3wWAepLqHzH5qubYcn//bbb6Tc48XFoSPNwGsJkfOxoiLUr1n6ycnJUSRKFy9e3NHRYT9b0NfXV11d/corr8hrNXHixEOHDpnV8LDNB+0oHFSPWg5wLf/8888dHR0tLS1Xr169cOFCdXX1qVOnysrKToDPyZMny8rKqqqqLl++jPStXxSKduQXsdtQKGrWBiFbV4Scvh3Pf5KTk6dNm5aWlrZ8+fLt27cfP378+vXrDx8+tK4mYZ4z2lFodwDUrxX6HTRoEOEGMEBJYODAgVbI3L95oh35V/5Wl476tVrCpuT/8OHD119/HVKzBHzGjBmTkJCgiMwxMTE1NTWmVAAzsU4C0AaRvrVOzgGUM6Fvf/zxx5qamvz8/JSUFHJAMTlCmQQGDhwYHx+fmZn5+eefNzU1kcW8kBL2rnn9/f0//fTTrVu3Kisr9+7dm52dPXfu3KSkpFGjRkVHRwvkMbnpVjjVOSYm5pVXXsnJyTlx4sSdO3eEiyEhH+xdTYIxVXVlJbHeX58+VVusZO77X/HqeOv7yl/+8pd///vfl+vqUL+mC/v06dPjx4+Xc6WJiYnp6ekHDx6srq7+3pbPhQsXKioq9uzZk5qaqlilqVOn1tfXmy6BcMsQcTK0NY5oGRT67evre/z4cXd398OHDzs6Oh48eNDe3n7//v0298/9+/cfPHjQ1dWFhyf7Ra2Iln4Ru6WFIkJaKl57Mlejb6dNm7ZkyZI//OEPxcXF9fX1ra2tDx8+xG0T1ikFEdI62fo3Z8RJ6+RPOAMMKErAOsn7K2fESX9J3upyESetlrC5+Z8+fXr06NGKsKP4cuDAgR999BEhesytDOZmogQIQYB335oo1YDOitC3Dx8+vHr16t69e51Op/zKW0jfPv/88+np6du3bz9x4sTly5ebmppaW1t/+OGHhw8f9vT0PH78uK+vT2PjmrBV9/Hjx729vT/99NOPP/7Y2tp68+bNy5cvV1ZWfvXVV7///e8zMzOnTJkyfPhwUq7D4YiMjCT07ZAhQ+Li4lJTUzdt2vTNN9+QY9nJ7bkBLXQLKgfdo7/99a/m0rRquf3tr38lkFFdWWlBs8I6S8ExEoQP6VvUr1nd4v79+7NmzVKkbxMTE4WtDK/Y9Zk6deqECRPUKjNv3jzhWHiz2h6e+SBOhqreES1DVbPYLn9JANHSX5K3olxESCuk6pc8IX07fvz4lJSU6dOnv/7666tXr965c+fJkyfv3LkjnIzll+qFT6GIkKGna8RJq3WqyBPgSyIBq+Vvf/6Ik/bL3OoSESetlrAV+T958uTo0aMDBw4kaKMRGDBgwNatW3t7e62oCeZprgQIF4P0rbmCDdzcCH3b3d19586dw4cPz5o1a+jQoQKDK5yiTDhU4eXQoUPj4uKcTufixYvfe++9PXv2fPPNN9XV1deuXWttbe3s7CQnKsubLdCrvb29XV1d9+7da2xsPH/+fHFx8eeff75ly5bly5fPmjUrKSkpPj5++PDhkZGRgwYNElhbQtwKdYiLi1uwYEFeXl5lZWVrayu871aDOZbXJ2TeXLt6lVjv3Tt31AhXc9/fvXOHFHrt6tWQEabfGwIdI0Fl3Y8eEVGjfs1S0OPHj/Py8hR3u6rRqH55P2HChLKyMrNaHc75IE6GnvYRLUNPp9iiQJAAomUgaMH3OiBC+i7DgMoB0rcpKSkzZsxYtmzZzp07T5w40dDQ0NbW9ujRI+1V1AHVnOCtDCJk8OpOXnPESblMrHijQRjgVwzDWCFz/+aJOOlf+ZtbOuKkufK0P7cTJ06MHj16wIABGngbHR29ZcuWR48e2V89LNELCRCCAOlbL6QXlEkIffvzzz//8MMPpaWl8+fPHzFihECdCvfeQvqWhKOjo+Pj46dOnfrmm2++8847H3zwwb59+44ePVpeXn727NmLFy82NDRcuXLlGvhcuXKloaHh4sWLZ8+eLS8vLyoq+uKLL/Ly8rKzszMyMl5++eWxY8dGRUVRRzeTTbeRkZFRUVEjR46cMGHCm2++uXPnzjNnzjx48ECQexjedws73L3WVmK9Z06fNpemVcvtzOnTpNB7ra2wPhj2TgJyx0gQPtzojPr1TraKqRobG9944w2/kLL6C33vvffw9BJF9Rl9iThpVGKBHB/RMpC1g3ULdgkgWga7BhEhg12DivX/8ccfL1y48MUXX6xcuXLhwoXvvPPOJ598cu7cObKUWTEVvjRdAoiQpovULxkiTtopdg3OAL8KSfoWcdJO+7KuLMRJ62RrZ879/f11dXU5OTnjxo2jSNyIiIiYmJjMzMzjx4/jvls7leJjWYSLQfrWR0kGTXJyZ21fX193d/eZM2eWLl0aHx8vbMCN5D9kJ66wGdfhcAgk7tChQ4cPHx4XF5eQkCAcNDpnzpyFCxdmZWWtW7fu3Xff3bp16/vvv/8H/vP+++9v3br13XffXb9+fVZW1sKFC+fMmTN9+vTk5OTExMS4uLgRI0ZERUUJORPKlpQ1aNCgqKio+Pj41157bevWrUVFRQ0NDQ8ePBDwJcy5W5ZlH//8M7Te3377TY1zNev9b7/9Bkv8f//zP+Zel22onv/iP4aSkMhepLXCvNUcI6Ge/+9//gdK2379Pv75Zyta7fc8+/r6ampqBBTSz6faGXPZsmV37971u6BCowKIk//6178I9BkKeIGTQv5W9BxESyukinmiBKAE/I6W//zHP+zHK/v9WChzs8KIkGZJMgDz6ejouHTp0rfffrtz585PP/309OnTN27c+OGHH/COcJuV5XeExHG3jxpHnPRRgF4kR45WWwJeiDTAkyBO2unHWtEZECetkKp/8+zt7b1161ZxcfHmzZsXL168cOHC9evXf/nll1evXu3q6vJv3bB0oxKABIG5Y1hG50ShoSlCWF2jTcX4ggQIfdvf3//kyZPvv/9+3bp1EydOHDZsGEXWCsSqwKcO5D9kJy7hXIcNGzZy5MgXXnhh4sSJU6ZMefnll2fOnDmL/8ycOfPll1+eMmVKUlLSiy++OGrUqGHDhkF2FuZG6FshMGzYMOG45oyMjO3bt1dUVNy+ffunn34iSiStIG/CMFBz7hyxCBvO14UnJzc1NgoGbsh+KUwIorTm9i5tx4hIqamx0V/6rTl3ztwmB1pu5eXl06ZNs5OU1VnWnDlzGhoaAk1cQV0fxEkCKYYCXuOzub0F0dJceWJuKAENCfgXLb3GHHOHr1bjpIb8vfgKEdILoQVXks7Ozrq6upMnTx4+fLi0tLS1tRWPSvaXBv2LkAI0IU56oX3ESS+EZkoSbfISvzVFyIGWCeKkITeSRPYC281VPeKkufLE3FACVkiAsAO4+9YK8QZ6nv39/Q0NDbm5udOmTRs+fDg5xJgcoSy8IdxtZGTkEOkjxBHeREVFDRs2bPjw4SNGjIiJiYnlPzExMSNGjBg+fPiwYcOioqKGDBkicLcOh0PKY4hwYjMpd9CgQYMHD/7d736XlJSUkZHxxz/+8fjx41euXGlra/vpp59+/vlnHLLCLgXPJzlWVGTpBk1q6+3f/vpXHEZCXegM//nPf/73v/9NHDXtADw/2Wb9hvzJ2H19fWfPns3Kygqce3CnTp26efPm27dv6+xLGE2nBBAntXFG7VsvhpFCVjr14jGazmGkUCiipUd5YgSUgEcJ+Bctvcac8KRv0Z/02J8xAkrAXAn4FyEFbwdx0pBOEScNicv0yEjQakvAdIEHQoaIk2oja+33XmC7WepGnDRLkpgPSsBqCSB9a7WEAz3/xsbGvLy8uXPnjho1atCgQUOHDh01atSkSZOcTmdSUtKYMWOGDx8+ZMgQst2WMK8au3LhtloSJhywnL4dNGjQkCFDhg8fHh8fP2nSpDlz5qxdu/azzz47c+bM/fv3Bcq2v79fuLW3v78/0GVqY/3KT5wgNkx2xGo7B959C3eCnjl1imTihasRjGl9V+lf/vKXv//970YPVDlz6pT9+i0/ccL39gZ+Dn19fT/88ENxcXFaWpp/Sdzx48cvWbLk7Nmz8ICBwBdgENUQcZKgrv6A19jue8cwNIwkLUK09F3ymANKwI9o6TXmhBt9i/4k2ilKwF8S8CNCCt4O4qRO1SNO6hSUpdG0yUv81lLh+zFzxEkyONUf8ALbfVcx4qTvMsQcUAJ2SoBQA7j71k6x+78scvjwrVu39u7du2TJkvj4+CFDhsTFxb322mvbt2//7LPPtm3btmzZMqfTOXr06CFDhsA9sgIpS94IJx4TZpcKDB48WNhlC6/UhbSuUK7T6VyyZMn7779/+PDhs2fP3rhxQ7jpFolbje5CLXDr7+vT7yXoj9nf1weRgmy9Da4pM9Jem90jsofMi3KpLWX26Dfkt95SBvX48eNLly599NFHGzduXLx48XxbPunp6cuWLdu0adOBAwfwpltKI6Y/Ik4S9NMf8AKvhMx9UZ93w0ihXERLXySPaVECggT8iJZeY05w+aK+9DT0J32RHqZFCfguAT8ipODqIE56VCLipEcR2RbhP/7jP5CjVZPAgAEDbFOEzQUhTuofbpOYXmC7L2pFnPRFepgWJeAvCUBSxtzxL9596y+d6ipX2MnKsmxLS8vXX3+9evXqF198ceTIka+99trWrVsrKysvX7783XffffHFF5s2bcrIyJgxY4Zwhe3zzz8/YsSI6OhoSMrqp2+FmNHR0SNGjHj++edffPHFpKSkmTNnLl68+L333tu7d++pU6eam5t/+umnJ0+eCC0h9K2uhoVfpOrKSmLGZaWl//zHP4gfYErgn//4R1lpKSnicl0dzNYLV4MkD6K03nUr4hgJTfauvZfr6ojwbdBvdWWld43FVCiBQJYA4iQBXp0B7/Dq2bNn3nUDgpZel/vs2bNLFy4gWnonf0yFEiAS8Bda+mL7QZSWyNlQgCAk+pOG5IaRUQKmS8BfCOmL7QddWu+0hjjpndysS5WcnKxGXuL75ORk6yTv95wRJ3UOt0k0L/xY77SMOOmd3DAVSiAQJEBmunD3bSCow6Y6EEK0v7+/tbW1uLg4JycnMTExKSnp/fff/+6771paWrq6utrb22/dulVXV1dRUXHgwIHt27evWbNmwYIFL7/8cmJi4qhRo4YNGxYZGUn24JINtYqBgQMHRkZGDhs2bNSoUYmJiS+//PKCBQvWrl27ffv2gwcPfvfdd/X19Tdv3mxvb3/06NGTJ0/IUclko7BN0gm2Yrq7u6EZm8vwUdztydJS6oZdL1wNX9wUf6U12ikox0iotneyom4dtlS/x4uLu7u7jTYW46MEAl8CiJMEPHUGvMMrL+hbCi29LvfZs2e//vqrbb+GiJaBb/VYQ+8k4C+09MX2gyitUaVQCIn+pFEBYnyUgLkS8BdC+mL7QZfWqMoQJ41KzJ7427ZtQ5pWTQK5ubn2aMEvpSBO6hxuk2he+LFGNYs4aVRiGB8lEGgSgDNdJu++FTDI3L+wuoEmyiCqD6Rv29vbT58+nZ+fP2/evKVLl5aUlLS2tnZ3dwukqcChdnZ23rhxo6qq6siRI7t27dq6devq1aszMjLmzJkzffr0yZMnJycnJyUlCfdHJoBPYmLi+PHjk5KSUlJSJk+ePH369Dlz5mRkZKxevXrr1q27d+8uLCysrq5uamrq6uoifC3LsqR05G719KuWO3egaZSVlv769CnxBrwO/Pr0Kdx3e6yo6Mnjx+ZadLDkpkcLQpw///nPwh23JjbtyePH9ui35c4d/S3FmCiB4JIA4qSJoKSRlf5egWipX1YYEyVgpwQQLTUgzsev9OsREVK/rDAmSsBOCSBC+giDHpPr1ybipH5Z2R+zvb09OTl5wIABahRmeL6PiIiYNGlSS0uL/Rqxs0TESY9A52ME/doMIpz821//Ss0/4/ykfkVjzJCXACQFfAQQKjlDPZvyCKsb8rqxtIHk8OSOjo5Lly4VFxfv2bOnoKDg+vXr3d3djx8/FiIIfx8/fvzTTz89ePCgpaWlqanpypUrtbW1FRUVRUVFBw4c2LNnT15e3vvvv5+bm5uTk7Nhw4Z3+M+GDRtycnJyc3Pff//9vLy8PXv2HDhwoKioqKKiora29sqVK01NTXfv3n3w4MFPP/1ElYisrVHt32xqgtZxrKjoT7/84jVx++zZsz/98guV4U8PH5pixcGYiR51WOEYEVn99PAhpQ7T9XuzqUlPMzEOSiB4JYA4SSDFuoCe7oFoqUdKGAcl4EcJIFpaBJJ6dIoIqUdKGAcl4EcJIEJahJBCtno0izipR0r+jdPf319TU5OZmTly5EgkcRmGGTBgQGxs7KJFiy5cuNDX1+df7dhQOuIk4qSh6egfHzygJjxxftIGO8UigkgC0EDMhRe8+zaguwGhbx8+fHjt2rXq6uoTJ05UV1c/ePBA2Jv7mP/09fX19/fLW9Lb2/vgwYNbt25dunSpqqqqtLS0sLDwwIEDn3/++SeffLKb/3zyySeff/75gQMHCgsLT5w4UVVVdenSpVu3bj148KC3t1eep1AuOTZZHgHfaEvgIrj2TzDsy/X1XlyF+89//ONyfT2EhmNFRXfv3FH89RVQQ/Erjy+DKK225BWPIpE338f23rxxg1KKifq9eOGCdhvxW5RAaEgAcVIOTYpvvMYr7X7iES29LhceIHPX/USKY0VFiJbaesFvUQJyCdiMlqbYviKaab+0uVy5nOEbjwgptMXHOqM/CWWOYZSAdxKwGSFNsf1//etf2nio9q2PmGO0XG2NIE5qyyfQvu3o6Ghqajp79mx52H/Onj1748aNjo6OQNORdfVBnFQDVeq9FxirrbXgwsnffvvtwvnz1FQnzk9qqxi/DUMJQBuBc18Unuh5pDAH6dsw7E7YZD9LQL7G7VhRUWtLi04S95//+EdrSwsEBSGssdGTMns9SEHiBFFaNb3qdIyEJvveXvmSNFP0i2eSqOkX34ekBBAnCQhrBLzGK7U+oxMtvS6XcmH7+/rkv2W+/xoiWqrpF9+HpATsREuzbF8D1hS/srlctX6iEyGFJvheZ0RINUXge5SAfgnYiZBm2b4iDHp86TvmeCwCRlBTAeKkmmTwPUogYCWAOAnBTS3sBcaqaTy4cPJPv/zS1NgoH7Pjvls1/eL7cJYAtBRq7ksNW9TeU5iD9G049ytsu98k8MODB8eLi6FhC+Ezp0+3trT837/97denTwmb+89//OPXp0//79/+1trScub0aXmqk56u0aXMXg0dFN8HUVq5Og05RkLzTWnvn3755WRpqVxT3un3eHHxDw8eyFuHb1ACoS0BxElFTIYvvcYrec8xhJZelyt3YX99+hTRUq4OfIMSMCQB29DSRNuHUOYxbHO5cuEbQkihOabUGRFSrgt8gxIwKgHbENJE2/eIivIIpmCOPFu1N3ItIE7KZYJvUALBIgHESTWsI++9wFi59oMCJ3/77bdfnz790y+/tLa0UNfcCjOcx4uLcbW0XLn4BiXAsixkAeRzXwRP9AQozEH6FjsYSsA/Eujq7KyurIS27V34cl0dIXrVIIAye7Voiu+DKC1U5J///Od///vfii3SfmlWe3/77bfLdXXe6RSmqq6s7OrshE3DMEogfCSAOGkRXsEu5K9hJGkadxcAoiVUCYZRAsYlYA9amuUjEfPXGbC5XCh+v/uTiJBQHRhGCXgnAXsQUgA0m/GKoKjN5UJFIE5CaWAYJRCkEkCcJHCqGPACY2FPCCWc7O7uhk3DMEoAJUAkACfzkb4lYsEASiDoJfDDgwenKiqghesP154//+vTp4q+BfXSC1eD5BBEaYXe8Je//OXvf/+70ft7LGrvn3755cypU/p1CmOeqqjATbdBb+HYADMkgDhJAIoKeI3Pglr8PoyEzfn16dNa2YU6EBI1woiWZtgZ5hEKErAaLb3GHHOHrxA6PIa9qLPQFQLKn0SEDAX7xDb4WwJWI6QAR15gDsGxIEqLOOnv7ozlowQskQDiJAFkKuAFPgsaChl/svzECdx0a4nVYaYhJAE4Z2Xu+Bd334ZQN8GmBK0EWu7cqTl3TvE4ZWj8QvhkaWlTY6PGTbeUn2EuZMgz13jjhYtDcvMiLdlD5kVaX8r1mPbXp08Vr4uQK/dYUdHx4uKac+fQMQpaa8aKWyUBxEkCNSTgNdYF1DCSNOfZs2fC5TqKxynLARPR0ipjw3yDXALWoaXXmBNcvmjA+pOIkEFumlj9gJCAdQgp+DOIk9Cv0w5bISvEyYAwM6xEkEsAcVKOXV7gVWj4k8eKimrOnbvX2hrknRqrjxKwQwJwzsrc8S/St3boD8tACeiUwL3W1mtXr1ZXVlZXVn5bVCRY/rdFRZfr6i5duPDDgwc6t9tS3oYXrgbJAdMSUXgMeJTVr0+fdj96dLmujjsp9OhRol9B49euXsXttjotBaOFswQQJwkWecQcElMeCPC0f/vrXwlawl9DRMtwtn1su1EJqKHlpQsXLtfVdT96ZNSrDHDckAOducNmxfzVXloqK0RIo7aA8VECcgmoISSOu9VgTfG9pVinWKLw0mO5iJPyPo9vUAJGJYA4SVDII+aQmPJAwKZVxMljRUVkxI2srVGTwfhhLgGkb8O8A2Dzw1EC1pm93J/QeBOwrkaw1xnqNxz7N7YZJWCGBKAdheo0fbBjHVV/L35ToJbN6DWYB0ogHCUA7ShALpigwEHj0QvcILmFfFqo2XDs2dhmlIAZEoB2hP4kwU89gaDAWKhfM/oL5oESCEcJQDtCnNQDjyQO4mQ4Ggy2OSwlYB1O4u7bsOxQ2OhgkIB1Zk/cCD2BoHA1qIYERZ2hfoOhP2IdUQKBKAFoRziMpJBQ+zEocFJoAtRyIPZCrBNKIBgkAO0I6VtteCTfBgVOQs0GQ0/EOqIEAlEC0I7QnyQYqCeAOBmIHRrrhBKwQAKIk6HtP0P9WtB9MEuUQFhIANqRuf4k0rdh0YGwkcEoAevMXs9IjMQJiiEZqa0QCIo6Q/0GY//EOqMEAkEC0I7MdY8oVNF+DArMoZoQRHWGWg6EXod1QAkEowSgHYX29FPwYh2puSF8hpoNxp6JdUYJBIIEoB2hP0mwSE/AEF5RGdqWFuo3EPob1gElEIwSgHaEOEmhmfajbVhHVcNQuVC/wdg/sc4ogUCQALQjc3ES6dtA0C/WASWgIAHrzJ76Udd+NPSTT2WFaSmBwEeoXwX14yuUAEpAhwSgHZnrHkFr9RhGrPMoIhLBC1lBLevoFBgFJYASUJAAtCOkbwkiaQe8wCuSoW1poWYVFI+vUAIoAR0SgHaE/iTBMT0B27COqoyhcqF+dXQHjIISQAkoSADaEeIkhUjaj4bwisrKtrRQvwrqx1coAZSADglAOzIXJ5G+1SF+jIIS8IcErDN7yiHQfrTNXaCqEfLlQv36o39hmSiBUJAAtCNz3SMKkbQfQx6vqObb3F6o5VDotdgGlIA/JADtCOlbCtPUHm3GOlINQ+VCzfqjZ2GZKIFQkAC0I/QnCRbpCRjCKypD29JC/YZCf8U2oAT8IQFoR4iTFJppP9qGdVQ1DJUL9euP/oVlogRCQQLQjszFSaRvQ6F/YBtCUgLWmVrPXUsAACAASURBVD31o679aOgnn8oK01ICgY9QvyHZgbFRKAEbJADtyFz3CFqrxzBinUcRkQheyApq2YZOhUWgBEJSAtCOkL4liKQd8AKvSIa2pYWaDcmui41CCdggAWhH6E8SHNMTsA3rqMoYKhfq14buhEWgBEJSAtCOECcpRNJ+NIRXVFa2pYX6DckOjI1CCdggAWhH5uIk0rc2qA+LQAl4IwHrzJ5yCLQfbXMXqGqEfLlQv970D0yDEkAJsCy0I3PdIwqRtB9DHq+o5tvcXqhl7PUoAZSAdxKAdoT0LYVpao82Yx2phqFyoWa96xuYCiWAEoB2hP4kwSI9AUN4RWVoW1qoX+ztKAGUgHcSgHaEOEmhmfajbVhHVcNQuVC/3vUQTIUSQAlAOzIXJ0OWvu1su1FbfrykkPuUlNc0tnUHRjfqul1bXV5ylK/WmdrGez1mVKuH/+jOqddYdHm+BsuTZ6D1RsjcO7mIaT0mFiQgxXb916oX/52Y0GM8UyJYZ/bUj7r2o6GffCorTEsJBD5C/ZrSYYxm4ur4VMhDRj4DiIf8ff26s/l7AWNLymtudPazrNxs5W+MFup7DkZL1Iqv0mStJB6+E7qEh0jka39KA9qRue4RtFaPYcQ6jyIiEbyQFdQy6XaBFqBwVO0RVFtuOPI3ILquoO858MUo115XDVhj6KEvT/NiBXbtzGunUk7QjpC+JYikHfACr0iGtqWFmlXSfPi+E5FMUwB8HM0Y+GV4SADaEfqTBMf0BGzDOqoyhsqF+g3YHi1Clqd/oP6C1wdeGA3qQUmQpxAdvFAPemqF9L0rBwOZuxJhyFYJQDtCnKQQSfvREF5RWdmWFurX1o6lXJi+Ua0EJT0eSQDlUsS35s+naRan8KWrIVRIIa7tr/TpwvZqBWaB0I7MxcmQo287LxfvWJWa8DuG/jhGpsxZt6/yvlka7rxcVf+j/sz6287tWvlafHQEVS9HbPKC7MMNHMfg5ae/cU9yZATDRC0vf6wni5MrxzIME5nywQ09sRXiXNo4dhDDMC9mn1X40tdXXV8vGMkwzODUz4xqqr+tcM6wAbx44zbV/KRRkcq1iZQW4KMjNj4ldXHOvso7PbRSBNExjnml3fRXGsV5/ZV1Zk85BNqPtrkLVDVCvlyoX687idcJ+9sKZnK4ofJxRMcmTF2w5sOjMpTzGUCMVrn3dlXVHb2JWo6sdEa72uSYV/Dg1p7ZDoZhHBknJKv98atF/JvZh9r69GbsHu+elMPhDilT9whKT4YaopSB8juFJvuso8oVowYyDDNlxxXlMt3fEnkWGZCGexY+PEE7Mtc9ohBJ+zHk8Ypqvs3thVr2obNYmLS/fvs4dUB1YRJw1QIYmq7kTR4C6uwWdETHpaTOX7vj64Y2RfQjLuIpC8WtN2sadfsb907lfvgcy0p0Ocx6ywmSeNCOkL6lME3t0WasI9UwVC7UbJB0Rluq2XlsTiQ3MHx+jQIcddR/vTFtcqyDA+4hqR/r9jNtqTkW4g8JQDtCf5JgkZ6AIbyiMrQtLdSvP/qX5zK98CR9HvEZm3mTnKioVZ5nHcWc3TxIpYfBTnFOUmp+3PqqJ56FpRWjvbbqugKPY3DyVquEMP4O2hHiJIVm2o+2YR1VDUPlQv36vZuLI2Vm3LY6NUzovf7VkjgBWKKnbKs1wM64t86K+TT3Ejw/aY2+GcYxLD45NX31nvJrCuDmOXNfY/h3us/X2tueHtqRuTgZUvTt7fLcmSMFAk8wYkd0bGxsdCR0FZ5zbqjwdspe0ntvXeHGmSMH65zaZlm2o3aXe8UYh4OjD8gnMn7eocZHUv7G/iN9K8jr9v55RKajM7/pVJeiNn1LlDI4ZfnxZjd2B+lbyhvw+GjIXaByC/m0ENbVe6tV33igb4kZMDFv7D4HvQSfB4oGWtTfdi5vQZIDMK/aiW/vnydxt47Y+PjY2ORttU8CgSMx2hDtZsJvFZvss46QvqXQyPNjyOMVJQKb2+tftIQWpxaWZp1c0KkScq20C2Bo0h5ASi2LTl5VeBX+OvDCCRT6VhF1pZlHpG+LkL6lME3t0WasI9UwVG7gI6Qaclr7Xp2+7ajIGccTtwKcIX1rrSKCJHdoR+ZOtxG71hMwZPtUhpiWEgh8hPoNzC7phSfp84gv1OjbjtoDKyYNl+0DMTx5G5g9JBBqBe0IcRIijMdwUOAz1K/f+5sn+tbF3UbEzvjIe+6WtWY+zaj89I2+GcfY9C9vyLaZGS3MaHykbw1JDNqRuTgZOvTt7aNvxYsjsZhpWR8erb3tIvB6WmpKPlk97XmB3hvs3HTBpx5vbGqb7Ty9Ygy3k4lxjFuQ+3U1OTC5p+t2bWnekikC3xCZ8o53tTJK39bkL3A6nbOyvvR2oTGZmwuo3bc38yY/xzCOSan83rtorX11In3rSF5XUFzi/iksLNi349050u7t51I/hnuUkb716JdQEYLCTfFXnSGsG/o9MCUyoW9Hp3/gbgQlJSVHCwv2bM56RdiUwDBxq8p/IIX6DCAkJ88BOb2hmUZa5xs771CzazWMPJOOii2pTqczdUOpt8ceGN19K6+DZkP0f6ncZJ91ZOw3zr/+HLQjc90jChm0HxHrtOUDv/VCVlDL+s3Dzphk0m181mcyRIUvysmmVTksBAw0iQPIiISM/bDu3E/D/t073l3sHCutlotZWHDTXc439y541el0vrn7ovt7u5/k4mVZtr/t2IrUaU5n6lZf93bY3RxTyoN2hPQtBCWNsBd4RXKzLS3UrCldJUQyUaNveypXj+HOkWKik9/afaS8qra23pzLjEJEbuHaDGhH6E8SHNMTsA3rqMoYKhfqNzD7uBeepM8jPuvp2+gZW908SdlD1S1hIaDUfF9236o1x9jANjC7R4DUCtoR4iSFSNqPhvCKysq2tFC/fu9y4lBOefct5G5nf1LvmvozXm3l+TSfF8cYrYja6JvDzMKC/buylyYPE076cryUe1a2ftpoccbi+3e6z1hdAyA2tCNzcZIRsMDcv7C69kivv3HvTP7gXG7lRZWLaXAvvf3k2mn8lJPjld26zoR0T06ejHkAreKu0LjlJXdJFiDQVZkzXajVvIIW8F5v0Ch9qzdf1XiBSN9KDl/StjNH53M9QUvFEn07W/Xg056LedOE87djVpW7zmH2I31rroViboEgAftxEto0oW81TkG/d/Qt4TQSf+1LUJx/h61wD7fsms6ZbVTmN9ChMZiJe5YqTwFD3yo3WaXW+l8b+43zrz8H7SgQ7BrrYIUEoJb192M7Y0pOiOOV3U06yw1gaBIHkOREO1mLeq8XrhX3rjmmfNLodk6JLLJ/XlghXv+0xLxSoR1ZYaeYp78kADVrXn8J/pxU6Ntbe97gx90xiwoVB+bB33BsgVcSgHbkL1vGcq2TANSvVx3E8kReeJI+10mN71TOWDrCxMjhybHLvlO8akNWgtR8pG9logmkF9COrLNWzNlfEoD69Xu/E4dyCvQt4G7j533h7SGmUgOV59P8Rd+qj77Z7saDc0b+B7/6cJ7Nd5b5d7pP0lTQ/Id2ZK4thwZ9235wwfP88Ufj1oNdYgrq7bm4edIwhmEiEt75XuFrna8MTW33HlsSz5UYr15iZ9ni5zg7HJp+yLVjWGddWBbpW5btrVybJKm164gg8IRNair2TN+ybHf1uwJxBcktpG/NRZ8wzw3Cum5zNy2iHvqWZVs+nzWCPzlAazu7aXWSZWRw/v2msOpiRFYpzMlgJjCpajhg6FvlJqvWW+8Xhn7jWP/6c9COwhxSQrj5UMt6e7G98aRZpzChbznh3v5qSSzveWtfV2GvHlylWYH8rtyDMwTtKIThIgybBjUbnH3Tmlor0rc9FzcmcuytxgSZNbXBXANdAtCOwhBGQr7JUL+B2Re98CR9bgjStz6LMMwygHYU8qARhg2E+vV711ahb13crS8XUILWKc+nBSB9y7LspS0v84PvqGUlD0ETLA/6d7rP8uaZXQC0I3NhJBQOT5b4S0bPFBK3F9YRnZi6oVThBtz2msKPNmbOTXVOSnGmpqWvzi+obHM7Zrm37quPcnOXJkdy+9ZHpb6dm5ubu+OY5inEvV8vGOmBvmW7itfOTktLX5J74r6863Q2Fe9+NytdrFV61uavpDNGhLhS8/kL1XpazhRsy0qf5UxJSXHOWZK983hjB5Xl9ZKPuVrvqyRUcXf9Nzv4N/dZtqP+m7ysNzkJpDjTMjfuKblGokn5wN23vdfLvyASm5u1cb973aQk3P+etu8P7lifmcbVzelMTc/avF/h5m1jTqSYf49INghUa/fxVfyUYhzcOAtrooe+ZTsL50Ry9ygPTT9EdvL5kb41d9M9dRyH9qOAONpx1L7FtGqSefbsGYR12D/tCeujb9nzOcm8i5C0re6JUDF3AOmqKfgoNzc3v+C8DCi46P1t5/bt2JKbm3fcfXtWR33pruylaanTOKBKnZ+VvfN4/Y+w4f3Np3bv2LI67UW+9HFLOKjN+0r1ToubxVwpa4UrxgenZHDRpfjySXwB8XJ3HGxwg3eu/Hu1hzdnLRB/AjI37i/nDnS6V/7pjtzc/MJLBAogfdvf9v2RHevTpbas3fF1AziT2WNDOhq/25v7lpCc+93J3JhfeN79dwcKhoS1muyuI5KEC3RLxXE4nJqm+BvBsur0bU/LmX2bstLnOp1OZ9rinH0n7/T0+9efg3aEOKkBOPKvggifoZbdOnTAPHgx6RbA0ORx960gd3G1MuOA63vay3bn5+bm7Sm/RZRz/ejHubl5+6ta2Z6m4i3LUp3O1LQVWwrOQ49XHzRJWfbcryn8aE2mgNXOtMzV+YWu3LRQt/PiQaWfJC5f3n9ezYEbD46Z3BDgjuw3gu3kf9R2fM39fPS0lO3blJk2i/8hU4NTqc4B8B/aER6eLIdExTdBgZNQswHQ0QKmCkr0bYc4SIzSPPLK44QA10bBmRQc4O7mswdz3+LdWmdq+up81/C593bVl9JImRuYVzR3KwrI8zC558oRHr44LFX6dNQe3sGN8Hl0ckXovV11KG/Nm2Ld0hbn7D5yQWEOxJUgbEPQjtCfVMRDtZeIk6ZYjReepM8jPo2Zt67r5Z9u5B0tbsCYe6C6rdtfu285gN3xbqYww8n7aPxEonjqsiD8jqovd+TmzE/kbqyLiJ+dzYHhruq2bh2Tt/pA0kv3T1/mbEvZ7q25ubuON/f1N5/Ky3qdG2dnas2smtLlvMgEcTK0/WeoXy+6h7lJlOhbwN0mZBQ1a53/pAM3tObT1Ojb2/zEIDewLXc/waWzqWxf/hqBSxJGhmpjSWUx6Rp991e8zd+86Zi9Tzy3Vc8o27OHCaukb7pPnObdsatCQQtkNsBdRFwpAiQuAU7pMTh3CioSxOAJ7chcfzIU6Ntr+TP5Kf649Wdc59wCxbsHe7o65dMx3KT214sThfNy+cykP5EJGV+4zlJvF/eiSd9y/6M9HAlSlz+Djx7zxr6rZPbfvU5qT711+7PE4+lgiYxjfKbrwmpC3y7dfXBF4nC3iNyFu3ELC67CAuRIJFARA1I2lRRkSfcHk2wcY9I+vgDYCJYV6dsXsj7btSCBP36KRObKG5/1DZyS44vuqtmzWJYzF3lU6nsVbmNIDScSNsIt3HF0GY9i47bV8gxTz3nhTqPfqexm1kPfEnJrODiIFelbtWGb2vugGM5RlbetzhDW3Tq0LQ+kh8P95fKSJWNJ/vi66B5RACLCr9v0vSub63tmcxARDc736LlycOVU4cJvCBwMEzV9zbdkKUy/tP0dxNHY1lYuHGAAInPwIpxiKudICN14yA18Wo6s5G/OdsuFA9uDaydQpyMQ+ja/YNNU/tx+mCgidga5gUOzIb11e96ULhiGGTCRCRmHPJwDo9VkSkeSPtrPbElTKi5meja1ckiZvu2o3TVnzBC3ijJcVffmzuG07Jht8ykuQrugHZnrHlHIoP1oG25Q1QiTcqGWpf4cWP+9mHQLYGjSNYBkWVa6HCRqUeEDSR9khd8p6Y24inFC9rcHF4x1AUh0hnT7uH5o4rJUBCKGYYalvH2cH0BqoK408+hYVvJYqh73/17572eOHOyqmxSKjJ/9ifuyIdHldsz+orZoceJQKaL0n3e5Dbr6sCLWhqEdhfb0U7jhJNSstX0ouHJXoG/FPRYR8cu/U5oN4Fe56ZkQ4AQhuIKDnR+cKVwjLOyWgIBziSZnn+piW4rXTqM93ugp22qp+Qqdw2RxFkJl33D7gbnc6uXBzo+JL812XlQaqnOX/q4qvBmwSOWvXgbtCP1JCkW1H4PCF4X69Vcf0y7XC0/S5xGf8sxbf9upjdOEow0BqkUnr9397lRuE4udhye3l+XMEc56AVURgo6x6V/ekGQqTQjDWOM21bR6mLzVDZLeuH+6M2fZ86tHDWSYmFWFxSvGuHzLIWlfyKZVpQb76T+0I8RJbWCkvkWcNNpnZfQt5G6XC4M+lTx14obh+bTbR98SSI1RaR/DfSC3j66VLqaFEMSFIxO0q0paoGv03X18Oc+/OKQ1iB5H2To9TLEaiqNsxek+6QdL8bh7MhtwljSP39hzauMs4YRTNylFxM7YRt1/GuTgaR1OhgB9K1Gq0Rml3fquVoCdiA/3u44RT1664+vy2rr6+uri3euF2ZyI2NlfiFvHeq+XHyoo2CTcszs2/YOCgoICsORfljH3or/5yBxxft8xJnV5fkFlY5vywlsq+e2vFgnOyrCEeVsKymrr6+urivKWTBEWXExYc0rY7ibRt4INRE3KfG9fYVl5ecne3IXSzWQzvgBrIuR+nkRFREc7mIjYqesKKhub25obzx6UvKVRaV+4hoISfcuX5xjpXJ5fUFxeXl64b5M0sw8n8rgVFjX5rwpj12EJGVsKyqpq62urinatfEVoXWTC29+56GFlJ5KSjPujOF6NSPmAOHDnc17iqudwazhJJTFS6nff8mNyQc7wmmRBdIxjntc9jdRBT8A6s6ecCe3HoHA1qCYERZ2hfvX0B3Pj6KJvpSPmmOgMMs9FAUh/8z5+IOdaAgbqeTNvMsf2gXMRbu6dO0aAjrFpG/aXnOHAoOSLjbNeFBaCjM08LEBNf9v3hQUFu5bwe38dU9ZxUFtQocpotp8p/Kqg4KP5Y7glt0NSN/DRxfj6OJKuypyXBGdoTCpfsdrasoJt8/nZeYeD+wYebi9ipgC60ePmZu8sLCkvL/lKwmcmMmXTZV4QGg3prt4yjjvHwZGY/sFX5TX19Y31tRUHc+cJTqHK9ByRrlaTKR3xaboq106GDayvr68tP7Q5M0n6QSkF+6cV6Nv+5gLxhyya+5UUYDwvCzDxSN/+618UEOl8DAq8otpic539i5bE6jQC0hhGY5UJnTpgoYlldQ0gOf+2fjsPYsyEbDI8IwM2mr4dmZAQzTCO2HGpaanO+OdeyCrlyQND0MR21+8WV8zwQMS567XVB3MXCe7uYOcHDT39GqirSN92VOUIySNip67khwC1tRUHdywXx+HuXIvkcsfExw9mmJhpgstdcnTXmtniIsVoZc+TVr8/nqEdIX1LYZrao81YR6phqFyoWX/0rEAtU0bf3t6/UD64g7XXPSHAJRJcwYjY2FhHhINDj4OFJeUlBduk4fC4tLTJDsYxNm3DnsLicg4lZggjX3cHz8AwWVqvnPRRvXgiDqm85NWTGT2W7bmSN00oMGZa1s6jVTX19bVnCj9a4eRvRWHiluHVv0R8fADaEdISBIv0BAzhFZWhbWmhft01HyhPkk9lwJP0ecSnNPPGQYewpyVm+pqdJVU1/Ph0UUI0N2rlP/bRt+JCcMaRKM4b1NfXVhfv2zpf3HXjmL2vSdBfR31pQcG+FZM4jI9IyNjNzQUUN3R2a03eGgFJw+6fkcwl+tYRn8Cd2jgsYWpaWmpC7LCFBWRxZKD0UmhHiJMUmmk/2oZ1VDUMlQv16/c+507furjbwSlvu28Ao2uqGzeMzacR7nZs+mc3wBLA7tqtwkByWEpGPk92cNNshZ+QGU4wF0pXFTzrGX13nVyZwINw3KYawQ8U6VuVUbYBD5PnrQxM90k/WLrp285zG/lrTBlHzKw1olNaVvDezHh+cwgcPgc/eEI7MhcnQ4C+Pb9x7CDf7rBp+XzWKO6XnqNpHwETYvvbTq5I5DL/XdpngL9UmNqGqeThe+XZ7ssxHLEJU9OzNu8pPNOgRuV2HlvMX0z9nHOT++ZXbqqLM1rHlE9vc/vhJGeCYRzjVpW47U+/J54Q5Xhtt+jZsCwr9/NcVET0jE/cJNBbt+cNfqAbs6zkB6ld4tycsLIYzPizZH4f8hyketQSFe7itKNvCasvXsgizIGSEykVrPifsEfCTjshjoQmzJQdF+WpPNK3HbWfi7eCO2YIQhYyEUSH9C3lE2g8GnIXqHxCPi2EdXkvtfqNNNHDqO6+7eE2DQisqjTPzlVKBiBK6/352ktm6DoXgUycTc89C6GDZbsqc6bzZUUtAtNJcnpDUyzKF1fIM5Hvvu2v3y3snHiBOjyg8+Lmac8JQ1UIay7MjJ3nvk22t1JYO8KMI8dNsywrrwPL9grul9s+Cb55t/fP41HXLQeVhis3WaYjcpm3Y/KaUvdlvL11+a/zxbnUpHR4ctexJfxB1tEzPnIdR8GtzpF+I3D3LYdYFIjpfAx5rKPk4EV7/YuWKtbn9lqCO2Zs+nu71T7uxwXLYSEwoInVT9+SayaiXOeUqNK3DMM8l/qBdD5Sr3AQTrd40IJOaBKvY5e76/eOvsXTFK5fELl4eYd5r7DeyLX7tue8cBFmRPy8Q2ClI78J76DgCkambLogjdKJT6vgcot1MDDx6taHrH+AdoR4ReGS2qMXeEWysi0t1Kz1/Sh4SpDo29+lfVBe8hVZY/FcqtueCdAeYxMCxBWMiM8oAqe59NdvT44QeA5uDy5wd3vly4sJpOgaJneWCZMDE3O/B9XmgiLigdNu6vJn8H513LLCm26Re5rEgxBiyREIbt+H7QO0I3On2wgm6AnYhhtUZUK+XKjfwOzkXniSPo/4FGbepHFozLwCN+joqP2DdMyAEfrWMWXljl1qfjG8XElqPiADpPvRRqV/6T56ZVkJDN33pyo0h9e18uStIZAkWK3T/TOUuUTfiic3iL8aKmdG+rf3QjtCnKRQVPsxKDAW6te/Pc3l2HCzao+uf7WEbNscmyk/7BNU1jBu6JpPu12yjudo+U3/0qiQL7X9wNzR/Jnty8GeNKE+4leMrn2GHunb3utfrRTWCkckiBtFWFakbxVH2QS1dHmYrLHpPgXEdimBzAaQ5d3crb2KTml/40Fhb+Tz4sJuNgTAE9qRuTgZAvStuOd9SNoXYIBE+k5Xc319rdKH8KZSz3Ot3iKJuVPaxIN5k8jZoUpT2zCFcri78UTekilKB1fyW3JLrlFHGElH0inM4PO8S2R0bPJ6nlIlZql0VrB4jPDza8g2CDn7Ii4f5s8avSKr/ZXN4yM5Ajv9S0m8ojVGxK8664Zc3FT+sSXxDMMMkHaesSxbuTaJJ5sVtyN0HVs5jv+WXJym5nXJ6iW9EM+mdsz48h48+56cjiWvJCvSt8y4Bdmb+TsyXX+y16xMd47lyQzOf3op9yzUC9K32k6J/NugcFOoattWZwjrUne27z+hb59zLncZgBjKzsqcmxIrnSQZOw9OS8kHiiJIOqYAkOQaItybGxH/jjTJJG7GJTtT3Vor7fQd7PyYbKNXnH93S+X2oOx7yTORcSS9IkwpzWSRaTgl+lbhV4NjgrlpO8fCwoekdvI6sGyXeMxdKlwbxKfovHhk976CkrIbrmMJSE5UQLnJMh11fb2AOwJLCbQ5qmbzJE7XwzO/kUCeHuX2t4l3gU/MdTlhUlXEOuDhyUiHUFiq9ugFxvoXLaWurvVf8iSFxR7Kf8FYi8tKDguBAU1G6NuesvmDB3BnHrg8cDJgI24nGViOk1YKE0kagybO3eXRFS5JlPK6mTf5OUd03PTc04LbJhevIn3bcXyVuEjRdf6zlKXrIJaYVeXiYadaLndP5Yrn/oNhGOhyu/IKgBC0I8QrNYCi3nuBVyQH29JCzQZARwuYKkj0LUDkqOnZ3yrcac1XWYJxBddOcUJAom/dFknzOYljZ27Czt2R669+l19oQrZNGB0miyv/IhKIay1IW/TERpOVND3nV3BHccLzb1x66W8umMmdgKp4cI4rWriFoB2ZO91GMEFPwDbcoCoT8uVC/QZm35YgCCCWLEh5kj6P+OQzbzd3Tee23sqXF7OstADF0OHJsiaAF26DZan5Lvq2v/HrFWnTUhKmivejuamt99ib3PabSHD8HsvKmyOkoQe23FuDIGnM/TOYuYu+jV1GDjxza27APEA7QpykUFT7MSgwFurX751OHMoxcQuy5orcrbCzhIlZ6L64BFbVOG54nk+7d1zibqWTAkGJV/Yuec2ZMOa13XImRbpmSOWaOZCJa/QdETtjDT05m52dtSA1Qbro0zFufTnZWacxyjbmYRqd7pMjNmgOmQ0gM4cat1tyM7EOR/SY1I+5wwtDAjyhHZmLk8FP3/aULZYmj+hlWVwPEn+tgaMgBsnCVXFzPc3/Sd2vU5i2hmM5JQ9Aiu7hf2fTmcJPsrNed8aLO7qkirldZ0t4UMpFI5n3AFJRciYUx2AtggcGNkao07cqRw2f3zKFq6Tr9FTRGmGepGLCsuKI+HckSxWJATC1R+JygW5xHBu1rESgOtS8LrdU4OGSsG3id7KbIW7vn8fDO9w3LKaT6FtJ9sr/5fdBiqLD3bfargn8NijcFFhhc+GVypl6hLAOurRNQULfKnd/6a375d9c3WQDRZbtEXcDTNkBvBbpCuqXpC0CUokOeCA5bO2lLS9zxQL/RnH+HSZxDyv7XvJMZByJONEGL7oGpsRusAAAIABJREFUOYussxJ9mwS32IpJpJ8M6UYK7rW8DizLXhKglYmalPnh0drbEnUKSvYcVG4yrSOJVHgBrOOBeQtEOxO7SsJt+jeuW2Q45OwLbB3efYu7bymQU3704nfBv2gJjUUtLI1hGEd0bLzKZ0yqa22KIiwECDQZ2H3bU2yAvpXPSRmEJnFdo/uxKC6NQM9YBXXlhyeLDqHLxXXlx4U6j83nbz8h4AlcbtepNlIa0eMdkVUqvQms/9COkL5VhifZWy/wiuRhW1qo2cDqc/6tjUTfRibMTE+bLC6hjh63dN9FRY/L6ISARN/KV1qLo+/BsvV50orAmPVVwql3RofJbP+FrfwkJjwxhTvHnl/a4nopRSPja0oTovcIPVsqRhg+QjuyczxIEEMI2IYb4VYu1G9gdm8vPEmfR3z0zJs0g698jkj/ha38lRlGdt8yDlW3OD5hlTgByClEar6LvtVUk7j+D24aMUTfGgVJQ+6f0cwJfRv4mAztCHGSQlHtx6DAdqhfTQO040uJvhXnJZ9L/aC2/rB4RiZ3aCjcu6WzPoq44WE+rbxkrXA2MrnlTWdhLNt7a88bHCWhwrO45yPuvpVmYVX+RyevKrwKuCCJvpWPsqUdGjqJGKPTfZqITdO3kpvqWKS0WprtcY3hQwM8oR2Zi5PBT9+KN71Ta6+ILXimbwW/h3HEzcpU/LwqbFEnczeEEnbjKkiBugPdzQ1lBR+tTpsg7fVkXlhDzhDmthEIty0C41TOmjgTEgMKo7XsmsXdcAOpVtrPI5f3xJO5e5gD23E0gwcd8axmVrr7FgjEFV8gJLg9XsK7nrLF/F4EQpa7ovIh4CMKxA/tRFLxqcfuivX8INYxPfcEvcW6ZDM/lOU2hVC8vkTfOkYmuH9SUlKcqWnpK3J2H6luVrifWOoqePettnPi+jYo3BRXdfmQbXWGsE51bBseJTKVcUTHuZtBQkqK05k6P3PN5v0llyjbUaZvWXH3Klxu0l2xntth4JhCXKt+8ZDMmFXljxUb2H18Fb/kwrUpQZH1VEzLv1T2veSZ0ByJxECoQHrvsSXciShwQCXO2QGm2VUrMTe39TTyOnDD1DbxhHzRO4uOm5a+Or+gjJwM4cpTNaTcZArkpRPmmWEpcxR/5OancOuXGdcaJpq+leqvfF94v6hrpG+RvqXQVPnRC4z1L1qq2h/4QhrDKE94gYiuoGRWGSf6xZcBAk366VvyOwLWvpABG7371n2HBNdko9AkHZOwTFpo4hKmPCQXr9LuW9XD/6UMRW+cDH01XW5lQJay8v9/aEdI3yrDk+ytF3hF8rAtLdSs//tZ4NRAom+FDfHdjd+uSIziPa6o13ZflI+vpVGe3gkByRWkzn9iWVYcfQ9NP0SVwgEId4SARN8aHia7Tkwhp8xxp93wywHhllzx14SJSkxbrOT4LXDGc0cFRLhtXAsczfmnJtCOzJ1uI5igJ2AbblCVCflyoX7908M8leqFJ+nziI+eeQMErXjoiFutO4/xi/aM0Lexy76TvFy3rGQPUvMV6dvezuaGqvKjBfvyc7NXpqdOipcu4oWTD4boW6Mgacj9M5o5oW9V77SSictfL6AdIU5SKKr9GBQYC/Xrrz5GyhWHcrzfNlK69uLe0aX8KSYMvNqGJHEP6MQN5eGb6BNGx0TzE5QMwyic4u5eXk/bjfqqisKCPTty12amz0qJl84yNETfOmLi5ZOzqWnpWRvzC+SH84n0rXyUzW2wMULESANnvdN9mohNZgPEITvhhhW2vrjLMDTAE9qRuTgZAvSteBWWypHivZ3N7p/63fx5QYxEKIpeiziBrv5veCZZTU9Pbbt3OcNPHfUH5o/hDjgi19kSilTPEn7JmYharkCKGKBv3RevuVohcSpkcTFtja6o0n4yF30rbUSDF9PC+Kx08p60RY92It0i0w9dwlnN6krjv5Gd6SrStw5lbKILAc/SwB7pW23nxPVtULgpruryIdvqDGEd9DKbgmTa3eg4gRooCtWVBntkd6Z4dwLcedBfsZ5fqkLi0C2VzpSTZrVUtk/RyVzPyr6X5IuociT9bYXCIXJKB3JyuQuIoUjfHu6QDUl107fc8QPNJzanTyQreCQoi0pMe/ur+h9dLVMNKTeZ0pHkXUnZq/13QSX9GyduFHZklHbL2stye0G4tdgOpG+RvqXQVPnRC4z1L1qq2h/4QrIyM+lb/0GTx9t3xJZLK2QZyYXjjhXYOHYQwzAvZtP07ZDUj+8AiYGdFmqQJL2XoOnkkjEc30CfGuqeqfQkR34l+lbcJEfYWSk1+d/+Ob8IkvyWabrcyoBM8vJ7ANoR0rfK8CR76wVekTxsSws16/duFkAVcKdv+SUjBeK+DWbc+jPk6DmhyoYnBCT6Vj6c1E3fGh4mc1UVdwm7dlqIqDtlx0UifDjpKSGpwn9wvwlJGr4BaEfmTrcRTNATsA03qMqEfLlQv4HZy73wJH0e8dEzb+KSXEaRQ+XPNeT4ADvp2/Yze96eGT+Exi9HjMDgek3fGgVJQ+6f0cwJfStNUAdmD+VqBe0IcZJCUe3HoMBYqF+/90JiR6PSPmtwXdrYfmzJeB4QHBPWnFI8TIVlDeGG8vBNnPnnSnLEJ8TzHG7MwoIWJbH03i7fudg5WuJ5CVxFxccO4zNQvEeSyknv6Ns9mUjfykfZrEEP0+h0n/SDpfhjQWYDRPpWJGXBxh73VrieiNKJEBUDwH09v5q/KySgwBPakbk4GQL0LTmC0nVkkEv/8pDYjwl9K/b4iPh5+QVHCtU/R2tbpczoqW3pvcL/jvpvduTmrFmzU3ZNrFvkjuOr+FUkjnkFD/gvxDOB4a5ZtwTgQdOZMEDfuns/rgIeHV3GIZEjWbrYkrZGV1Q5fSsxGSrb2lgCK1IE2omEmVNhbucuf6gdd1ih4ic6UsDQCdluWzWQvtX2Lahvg8LVCMY6Q1in+rYNj+bSt2S31gtrTnFbDcQDJ6PgAcKeBoSsxO/avvtWcm4kFKLFL3AGVtC3Qkk9bZfLCj5ak/lqQix30bj4cSRvq1Va+OxWOy13k6zCk7wrx/Q1X6r/xBUWFpbdED1j+jdOumJ83jdI31JYIz0iTkqS8PzfC1n5Fy3dbE7lgViZ6mI1WUJxfOJQXVkic5DoLCyDJr0DyGv5r/FeVhS5GtYr+lYvNAkDadcCQVoebs9y8SrTtzw7Kz+mRcrLxe8KZ1FoutzKgCxl5f//0I6QvvUMVXwML/CK5GxbWqhZ//ezwKmBjL5lWZbs24iIX/Wd28W0hicETKBvDQ+TOeFKN9dGLSvhGOhu4WwbBzkli4sjXSE0bunug1qOX8kllanPwNGifTWBdmTudBvBBD0B23CDqkzIlwv1a1+vMlKSF56kCn2r162Sb1eVr6V2b0HlClvp25avFyRK4+KYBOeczKyNW3YfLKm63tbTIy3p28Rdlyh+1CYS6YGtFyBpyP0zjsCByEBIUnX7D+0IcZJCUe3HoMBYqF83xfvjQWLyyC4yqRKdp1cIm9+YuOUld6W35L9R3FAevkn0rWPymtL7PZeFs1GZ2HmH2qhDm3uv73lD2BDMMI7YhJlpmatzduwtKKm50dkt0Zb+oG8NephGp/ukHyxd9K10nithlIiy6EBogCe0I3NxMhToW+kobUZ+ASrdHTheQbjLltC34s4qJlr/RfEKHoBCQfwrafe3Yrd2Jepv3ue+/UukXQenfiY/vJRl2bbGC/WN9zr5qXZNZ8IAfasmAXF6zjGvSNxnZoS+lY62hkc8uZrN3XKxmz9FivDWal4XTCSGJdtWp+2l2zcZ1wplLi3St9q+BfVtULgawVhnCOsK/dviV2bTt+L1rtzEek//va8WcTtKozNKwdSYBNQqdx6wrHSvoeu8ZcX5d3XBKPte8kwkR2q25H6dXz2G2y42IquUOuaOL0ucvreOvgUt6r1dW7pr5SvCflx1RoGkUG4yPZhvKxB+X3QTS/RvnCQxl2pIDbipQ+FmXNx9+y/cfUshsfKjF78p/kVL2NvVwtIYxszdt9xifP9Ak076Vry1kYmF+/KJi6hj961BaJLWBSuvI+lubqitv90mrc6WI78SfSsRNglw+g8qWVTB8Ezx10HT5VYGZJidf8PQjpC+VYYn2Vsv8IrkYVtaqFn/9rHAKl2JvmXZ9oMLxgp8wITss9DrE4eHuicETKBvDQ+TBQG3H1zwPMMwwzMPd7I9J1cmMAxDzRh0H1/Or61RPfAmsDQVGLWBdmTudBvBBD0B23CDqkzIlwv1Gxg9jq6FF56kzyM+euatv3HP1EjuSCVpS4l7JcV5VJt23947upQfETvGZ37ZAKYU+Dop+m90c6Ta0wNbfvRqDCQNuX/GERjpWwqQPDyGPF5R7betvQGFk6r0Lct2VG0R7qONiJ19qNmNTzWOG8rDNwFdyQ637to/JHPYSB+hLPE4zOCUt483PpIwR/wvTW/6g7416GEane6TfrBc5yaCtouQS055lLbxKEZm2c479bXXmzu5yytDAzyhHZnrT4YCfcuy7QfmcncTMkzMwoKboN8oBKXLVl30rTj6YlRYwM7TeWuyc3fsPeo6ylLBA1AoiX8l/dIzozO/0VjfKq6cZaLI/bXiFV/u/IdUijhlJnCiUhG+Hp7MMLKFLVx5rovBbojFk7k5ty2twpf03bdScrXD7iQKlhSt5nVJTXf9F3E2Iv4djZ3N4mQfE7Wo0LUwB+lbyiHQfrTNXaCqEfLlQlh39Wu7QqbTt1KGcZvO3Dowl1uCRi/a6KkULmCg34tN7vqan42Ciy1u7XmD3/rv2p2mKR5l30s+iS95J4S+7RWOYRe4Z6oIqV3Kd9/qPjxZ1pCeprJ9+blrVu6pkm+xFVEXnApCVYo8KjeZGsyT/XDU7B7J5fpX763JzttdUCkdbUr/xoF1NgonxpzPeYn7+UX6FulbCsRVHr3Adv+iJbEUjYA0hjGXvvUHNHGN1EXf3t6/UFho8mI2f+iCKB3iInqmb41Ck3RxTtwmBdjsFVw7MsxW/Pnob9wrzEsuKxGvYBePIVU5zUmuVk2XWxmQNbqNzV9BO0L6VgWf6Nde4BXJwra0ULM2d6qALk6ZvuV3r4qnNyVvq3PNtRmdEDCDvpX8PZUz4WXDZFHeHcKyueiM0rYTi0dyZ5kuKhSO7xIjSFjHqJwr01K8ZV12bt7+8muQwA5obVpfOWhH5k63EUzQE7ANN6jKhHy5UL/W9yZvSpC7HB5z8XnEJ595E1etjc78Rg4O3RXr+U1m9tC3og+sckGeOB1KvD5eVvLmCCKkB7ZgPZ9ekDTk/hlHYKRvKUDy8BjyeEW137b2BhROatC3LNt7fsvLwkGbz0nX4vLW7gVuKA/fZOjaez5nOl+i2xHKIkGrzCX1ipyO+/koKsCua/QtSysuZFE4PNkgEWN0uk+K7yKwSN36m/fxw23GRd9KK7YVndKOo8u4KQXHjE9v94UGeEI7MtefDA36lu1vPDhTHInFvbn7nBpR2lH/zcZp3HpVhnHRt+QM3udSP5MYStL3CC5ActfQ72vL57NG8QXGvLZDpWKd5zZO4k9Fj3VtViOE7ux9TaQ2QqC7lr9okIkRDk3SdCaM7L5lmLEyjrm7diu/zMQBboUkc3N66FtW3IenyKx3nludyGEgIHfVvC5KBqzk4DLUwchUPGkJIQMRDelbyiHQfrTNXaCqEfLlQlin+q0Nj4SVJD+rOguVuTIknci/vpC5gt/rKZ9h7xW2CDCOGZ80uq2S41Za1W8XVrRBclect3Io77UiBUsBZd9LB30rHT3HRL2246L7YJXcruETfavUENfwWPaDJcIgOf1YaqD8v3KT5ToSGVZm3Ppy6rI3tr+tcD4398dt3VCjb1lWLCgy5Z0L0uY2oTb9bSf5qUOkbznEokBM52PIYx0lBy/a61+0lBue/I3kk5hL3/oFmvTQt111BSuFVc9M7Lwit1OkiIuoh75ljUFT5zFhDdDozMP0yTSdZQIQES5ZCXVZaUzoIPSt9IZ5IatUBsXtXy94gXPgwahb0+VWBmR5b/HXG2hHiFcULqk9eoFXJCvb0kLN+qt3BWK5KvQty7LSwe/MYOfHZOxvdELADPrW6DBZEnOPwEbELMhawM15gQkEKcbNXdN/x8EXDdHc9x0V6+P4uQlwbbmULoz/Qzsyd7qNYIKegG24QVUm5MuF+g3Mbu6FJ+nziE8+89YrrcqVj9Zb9oobZuyhb8W6wYXdRHEExNzXOotMBhjSCikUJ2+NgaRB989Y5nj3LQVHHh9DHq8oCdjW3oDCSU36lmV7ruRN4/0cxvFSLjlMxQvcUB6+ydGV7Tm/MZFfugyOUBaXCytthCOTbIzKKmECaHzAdPrWqIdpbLqPTCZPzKVYod5LErMO5plbPuevK4qIX1VNH6UgbsWUZj5DATyhHZnrT4YIfcsPRbYkD+P2szMMMyxh5sodB8trrze3dXR23m+uv1C8b+uK1PHCRgGGYSIT5n1RT9bbEo7WMTb9swuueaiuuv2Z8Q4uz+dc89osy17aPJ67oXCwc0NF4+3m5jb36X53M2S52SKRWmYcI50Z+QVlF5rvdfb09PR0tjWeLd69fmb8EL7WUe5MrcT7OpJXFV4lRXTUf714zFCuCSmbhBu8NZ0JY/Qtw0S9mnuCTIp11H4+Zww3rR+R8DbY4Urm5ihD5Rou233Lsj0XNwvktCP5rYKLZHasu/nUxlnCKfExy1xbY+VOJC1P/llaycIkbat7ohhDeikiBdxbjPQt5RBoP9rmLlDVCPlyIaxL3dW+/+QXF/ys6ipdwZWR0kl3eHN45r4YVoxBwDAyft4ntT9K6dh7VbsEqGGi3Y4W6RAu3mbiFu4719zc3Eb/2JMMhICy76WHvmXZ9iNLXuRxOGZ69oHqxns9PZ3N9aV5C5KEZX0M4xN9q9iQS1umCCv43nBbctR7/SuBF3EoLk9zb7Nyk+U66m87JnC0TPSUd0tukh+U7uYTG6fF8A2HS5QUFimTcfKotI8vSIrgYFxMjvQth1gUiOl8DHmso+TgRXv9i5buRqf85MWkW8BCE9l9GxGfscf91sSCfXvyslfOSRBGywzjkK8IIS6iLvrWIDSxdfkzeNiMmp594g5ZStJ5cdfcMRyOgV8QRdSVyFoXfcuyXSfXTuQxMGp69reuPHuajqx1CqOGCWtOEd9V0+VWBmTlHuOPt9COEK8oXFJ79AKvSFa2pYWa9UfPCtQy1elb1+CUgaNvYxMCptC3rproGiYTUfeez0nmgYv7Axc+khgdFTkCRzs4ZflXriPEOJd75sgBXLLYDPfFNyRpmAagHZk73UYwQU/ANtygKhPy5UL9BmYX98KT9HnEpzDzRhyzyIQMF3T0NB1Z6ZQGxfbQt5zLx6NczBv7XHOhLNt7vWTzVGHfDodjq+CMpCAQJnrGR1XXuKkD0VFUnrw1BJJG3T9DmSN9S8GRx8eQxytKAra1N6Bw0gN968azuAakxnFDefgmR1duw0n1u+N4xmlU+pfCtgdp0x0zNvOwtBGC+4XpqP96xSTCPpGjRjV+fMynb416mAan+27mTeZprOgpm8pvibOLPU1lO9IFBo1hXLtv3USX9kE1Ydx67pdtSeXFFENOSw0B8IR2ZK4/GTr0LW8kB1ZMGk4GM8oBR9yr2YdvkEkf0YJajixJFj0SR0yCc05aWmpK/GAhh8iE5aWkh3Hxu44siXdl7pjx5T16Jxlllx1kpORKRoViXs09TaaHhOT9bSdXSzY/LD45NS0t1TlWwICI2NmEftZ0JgzRtzHxfJMdseO4slLGCAKJiJ3xiYvq5ijajWO5eyIVWR8F+pZl+5u/XZzIUc4c6yw2RFi4wp137b4pWcGJpITJPYqLjhlpjYZCFPJK3IzPMC+sEc/3Q/qWcgi0H21zF6hqhHy5ENZJd7UtYAV9y5LbphlV6vFeeba0zsYRmzCVQ7WEkSL2RidvKncdcs6da1S/nb8bW0TLF9YQPkBRTsq+lz6OhFtokjcLALtYJjMq9e3Fk7gKDk0/RFhP9Tk7lu0pnj94AEdm7nOdM6zckM5z4tIWhnHEjpuWlsb/7jwnlDzM+QG1z1WpzcpNVnQ3O6p+Ly0kYqQflMRoUfQcDpPWsawCfcuyvTX5r4tOqCNuEvcjMT6WW94UNS0tlVuJg4cnI31LgbjKoxfY7l+0VDI9+p0Xk26BC03S4ckSCir/j4yf/VFVKy0Il4tI4FrjWCcutRFoYlm25eCS8QJuOaLHOTkgmsQDEcM44pYVuu5PUURdJfqWW769dy53eST3iY4T8oyPFteDjk3/DA4ZNF1uZUCWichvL6AdIX2rgk/0ay/wimRhW1qoWb91rwAsWIO+BXNw7vtTDUwIqLuC4ugb+o2CeDgAiYhgGLfbv4wMk11Sln50GIaJ21Qjv4aDZdneuv1vCgwuwzjGpMxMS0ubCV3uKvo4FlfuYRmCdmTudBvBBD0B23CDqkzIlwv1G5gdXDJqA+e4+DziU55566jYIpyJxTBRY5wz01KnJfBO0ajUOfyRmDbRt9wJT2MG8s6ZY4xzfmZWVlbmXGc8N1J2xM7IznqV8wbdZ2KlA+cFl46c6qk2eWsAJI27fwYyR/qWgiOPjyGPV5QEbGtvQOGkR/qWZdnr++eJ01PSijTjuKE8fFNEV7Dql9za2bJXWEPMMNHxM9M5mFqQJjApjrgF2Ut4LCVYpPHjYwF9a4yI4fxGQ9N9946+JezGYxjHsPjklJQxwpD8udQP8hZwd5u6E0a9dXveFOOLjNu0hFhuVyTDOCasKSV7CA26r4qHK2jI2Y6voB2Z60+GFH3Lq6K9rvBjbqOtOCst/Hjzv/IJM5fkHgCbaynNddUVvOfaUiCkc8TNWvNlg7TTiCTobz65etrzUglx66u0N4Dy6TovH9myzClRwqRajCM6MW3D/lr5FJiY6mDOPMFhkpJEJaa/V9HMXewsfDSdCSP0rWP2ofrqvAVJIgJyMouZlrWzwv0ycC/oW66enRcPrp1NpsP4tkQlpr39CT33p+xESm0V/0uMrD7vVjpSj4nOKOroZ1kW6VvKIdB+tM1doKoR8uVCWKd6uA2PltC3rHQSpsNtEy3VnO7GbzfPneDCGQ5q4mZlfQhhTUrSW7NnsXhEJ8MMSfsC/K5LUVz/lX0vvRwJl097TcF7manjY6MjHY7o+JQ56/ZV3u9pEg5micr8hhSlPmenTN9yzpBiQzovc8DIn/EgITzDRI9bkPstJAxIubKAcpNV3E22u/lU3pKXRapDLM8xMmV+PlkxJxagSN9yLt31kvfnp4A1UtHj3tx97l7VFm5+EOlbpG8pEFd59ALb/YuWMrtTeOHFpFsAQ5M4gHSBkhRyOKJjE5JT01fnF1S6Nqq6yYOs8NNL33ILcvVCk1BSe82+1dK5NULNHCNTMmT+pALqKtO3XK7tZ/a8PTVWXLUpZDosZd67BefphZWNe4Rx+PJy8fZc0HplQAYR/ByEdoT0rQo+0a+9wCuShW1poWb93MkCqnhN+pabg1s5QTD20W6XB+mdEFB3BY3Rt5zM9A6ToXxFwFE87YbEu1f12YrUF6QpC6G5UYlpG442kkPISNxwD0A7Mne6jWCCnoBtuEFVJuTLhfoNzL7uhSfp84hPdeato/7rjWlwtB41OevLhs6T/B0WNtG3nH/Y+O1qCsGix83NPnChs7+/eR9/W5NjXoFrwTTb03RwyVRpksG1mlxj8lYnSGrOuKq6fzozR/qWgiOPjyGPV5QEbGtvQOGkHvqWZVsOzB0rODe/SxMvAjOIG8r2q4aubOfpFfyykojY2YcEoqTz8t6Vr7jNsDmiJ6W/d5Q7+OSKcG6ru5+p+BNkCX3LlWTMwzQ03dd7vXDznDHi5hNOCxx9dvhGT48gPXf6lqvL7aqdiyeNhk5pZPzMdeCIViKaoAZPaEfm+pOhR99KGu+531hfXVV+vKS8vKq2vrHNxXdKMZT/dzY31FZVlJeXV9Vf76Q36bol6Wm709jY2Kw7ZyFxZ9sNLv+SkpKS8qra69KZHm45yx66+LZwLbkh45JlkQ2/oMafPW2Xa6sqqmrrm00vq0dsCJe5QbkZblXwJ7DO7CmHQPvRNneBqkbIlwv1G/y91XgLOu/U11bz8OwJBnu6mnmo1QZk4zXQmUL0uuT+h870rmhqDenpauZ+rcq5X6v62xRb4EpuVqjnfmMtVxz30whWAunOvrezuaGKT63v90t3xl5FhHZkrntEIZL2Y8jjFdV8m9sLtexVNwnJRNZDk81iMwZNvW2NFzgcK6+qb+5Qraka6ionkPKsqm1s7gAHEijHDrq30I6QvqUwTe3RZqwj1TBULtRs0HXLgK2w/gkB05pg2TC5p7Opvor3+6rqzB/dm9Z+P2cE7Qj9SYJFegKG8IrK0La0UL9+7mq2FW/MrVKoVk/bjfqqivKqWv1TqQq5+PxKmJzkh576hsmd9/mpA9qR05i8tRQkLc3cZ+kaywDaEeIkhWbaj7ZhHVUNQ+VC/RrrGYEX2zBu+NiEzjscWvI4pbLE2ccCfEtuzMM0NN0nDp/180dANfe0h9tBCp7QjszFydClb33r3mGVmqJvw6rtgdxY68ye+lHXfjT0k09lhWkpgcBHqN9A7ofhULe6/VmZWRu3yDZacQc4txXOieQOQ3Zb2xsOQgmSNkI7Mtc9gtbqMYxY51FEJIIXsoJaDpKOaU41EZrMkSPmwksA2hHStwSRtANe4BXJ0La0ULPY2VECKAHvJADtCP1JgmN6ArZhHVUZQ+VC/XrXQzAVSgAlAO0IcZJCJO1HQ3hFZWVbWqhf7O0oAZSAdxKAdmQuTiJ9651GQioV0reBqU7rzJ5yCLQfbXMXqGqEfLlQv4HZA8OnVtf3zOYO8VA487mrcu1k/iSQKZ+9u5p4AAAgAElEQVTe9nDHefiIK6BaCu3IXPeIQiTtx5DHK6r5NrcXajmgup/VlUFoslrCYZU/tCOkbylMU3u0GetINQyVCzUbVl0aG4sSMFEC0I7QnyRYpCdgCK+oDG1LC/VrYrfBrFACYSUBaEeIkxSaaT/ahnVUNQyVC/UbVh0bG4sSMFEC0I7MxUlGsGdz/8LqmigFzMoiCSB9a5FgfcwW2pG5Foq5BYIEoH597CqY3EcJ9DcX8NfnMJHxs7cUlNU2NjY3NtaWH9qcPpG/m8ExYc0py8809rEN4Zoc2lEg2DXWwQoJQC2HVU9HaAordVvdWGhHVtgp5ukvCUDNWt2LMH+UQKhKANqRv2wZy7VOAlC/odqHsV0oAaslAO3IOmvFnP0lAahfq/sS5o8SCFUJQDsy15aRvg3VPmOgXUjfGhCWjVGtM3tzQQRz804CUL82dissSlkCt0vWJQ+L4Dba0p+oyWsO31FOhG/9LwFoR95ZIqYKfAlALfu/z9lbA4Qme+UdyqVBOwp8q8ca6pcA1Gwo92BsG0rASglAO9JvfRgzWCQA9WtlP8K8UQKhLAFoR8Fi+1hP/RKA+g3lfoxtQwlYKQFoR/qtT09MPDzZSr0FSd7dtYezuc+BCz39QVLlsKgmNHtzN91TR2poPwo4oh1H7VtMqyaZZ8+eQf2GRYcO+Eb2t31/ZMf6xanTUhLGxMcnpDjnZK758Ghta8BXPKwrCO0IcVIDcORfBRE+Qy2HYXdHaApDpVvRZGhHeHiyHBIV3wQFTkLNWtFzME+UQDhIANoR+pOKeKj2EnEyHAwE24gSYFkWcTK0/WeoX+zwKAGUgHcSgHZkrj+J9K13GsFUKAHLJWCd2auNvhTfB8WQjKp5UNQZ6tfyzoQFoARCVALQjsx1jyhU0X4MCsyhmhBEdYZaDtGOjM1CCVguAWhHoT39FLxYR2puCJ+hZi3vRlgASiBEJQDtCP1JgkV6AobwisrQtrRQvyHahbFZKAHLJQDtCHGSQjPtR9uwjqqGoXKhfi3vTFgASiBEJQDtyFycRPo2RLsMNiv4JWCd2VM/6tqPhn7yqawwLSUQ+Aj1G/y9FVuAEvCPBKAdmeseQWv1GEas8ygiEsELWUEt+6efYakogeCXALQjpG8JImkHvMArkqFtaaFmg7+fYgtQAv6RALQj9CcJjukJ2IZ1VGUMlQv1658ehqWiBIJfAtCOECcpRNJ+NIRXVFa2pYX6Df7eii1ACfhHAtCOzMVJpG/9o1EsFSXgUQLWmT3lEGg/2uYuUNUI+XKhfj12BoyAEkAJKEoA2pG57hGFSNqPIY9XVPNtbi/UsmI3wJcoAZSARwlAO0L6lsI0tUebsY5Uw1C5ULMeuwFGQAmgBBQlAO0I/UmCRXoChvCKytC2tFC/ih0AX6IEUAIeJQDtCHGSQjPtR9uwjqqGoXKhfj12BoyAEkAJKEoA2pG5OIn0raLA8SVKwP8SsM7sqR917UdDP/lUVpiWEgh8hPr1f2/DGqAEglMC0I7MdY+gtXoMI9Z5FBGJ4IWsoJaDs59irVEC/pcAtCOkbwkiaQe8wCuSoW1poWb938+wBiiB4JQAtCP0JwmO6QnYhnVUZQyVC/UbnD0Ua40S8L8EoB0hTlKIpP1oCK+orGxLC/Xr/96GNUAJBKcEoB2Zi5NI3wZnj8Bah4EErDN7yiHQfrTNXaCqEfLlQv2GQXfGJqIELJEAtCNz3SMKkbQfQx6vqObb3F6oZUu6EWaKEggDCUA7QvqWwjS1R5uxjlTDULlQs2HQkbGJlkqgt7m+uqSwsLCwpLyqrq2nn+3hP76UaSyHXmPRfamYe1poR+hPEizSEzCEV1SGtqWF+nXXPD6hBFACeiUA7QhxkkIz7UfbsI6qhqFyoX719gmMhxJACbhLANqRuTiJ9K27pPEJJRAwErDO7Kkfde1HQz/5VFaYlhIIfIT6DZhOhxVBCQSZBKAdmeseQWv1GEas8ygiEsELWUEtB1kHxeqiBAJGAtCOkL4liKQd8AKvSIa2pYWaDZjuhhUJPgn0t53aOO15hnwcUz69fWHj2EEMw7yYfcrb9lSuGDWQYZgpO67oyeHHrxY5GIZxzC7q6NcT38Q40I7QnyQ4pidgG9ZRlTFULtSvid0Gs0IJhJUEoB0hTlKIpP1oCK+orGxLC/UbVh0bG4sSMFEC0I7MxUmkb01UE2aFEjBTAtaZPeUQaD/a5i5Q1Qj5cqF+zew3mBdKIJwkAO3IXPeIQiTtx5DHK6r5NrcXajmceje2FSVgpgSgHSF9S2Ga2qPNWEeqYahcqFkzewzmFV4S6Dq25EWRunVEx8bHx8Yv/677ItK3xCr1BwzZL5UtpqUEovFoSFaIk+GFZ9haayQA7QjH3RroJP/KEF5RyW1LC/VrTQ/CXFECoS8BaEfm4iTSt6Hfe7CFQSoB68yecgi0H21zF6hqhHy5UL9B2kWx2igBv0sA2pG57hGFSNqPIY9XVPNtbi/Ust+7HFYAJRCkEoB2hPQthWlqjzZjHamGoXKhZoO0c2K1A0AC4jbZ51I/bughO19v7l3wqtPpfHP3RW9riLtviVnrChiyfSpHTEsJBD4iTnprwpgOJeCSALQjHHdDhPEYDgp8hvp1aR1DKAGUgBEJQDsyFyeRvjWiB4yLErBRAtaZvUf3AkYIClcDVthciKRy1n40JCuoXxu7FRaFEggpCUA7Chbbp2DEEG6EZ1qo5ZDqvtgYlICNEoB2hPQthaVqj0GBz1CzNnYoLCq0JNB5bP7gAdyxxftaTG0Y0rdq6KL8Pigwh6p6UNQZcdJUu8bMwlQC0I5w3E0hofYj4mSY2gw2O/wkYB1OIn0bfr0JWxwkErDO7LV9C+rboHA1grHOUL9B0iWxmiiBgJMAtCMcRlJIqP0YRNgOtRxwXRArhBIIEglAO0L6VhseybdBgZNQs0HSGbGagSeBzsI5kRx9u6jwgamVQ/qWwImuQFBgDtWSoKgz4qSpdo2ZhakEoB3huJtCQu1HxMkwtRlsdvhJwDqcRPo2/HoTtjhIJGCd2Wv7FtS3QeFqBGOdoX6DpEtiNVECAScBaEc4jKSQUPsxiLAdajnguiBWCCUQJBKAdoT0rTY8km+DAiehZk3pjP1t5/bt2JK7Y1dFc58sw/ay3fm5uXl7yu+Sr66XfEze3KstylvzZqpzUkqKMzV9dX7B+TbXSbxCihYhh+ONfSzbdb3k0zWZc50pfPSszfurbvWQfN0D3Y3f7c19Kz11mpOLm7Yke+fxxg73KOCp535N4UdrMhdwNXE60zJX5xeevw++B8H2msKPNmbO5WOmpnF1rpTVWYzeIdUhha9wWubG/EJ5A7nI+mOybO+92qJd2SuFpvEZz89Sat31o5yc91e1sj1NxVuWpTqdqWkrthScOVX4UW5u7pbdx+6AVrmCPVeO7NiSm5t3tP6R6yUI9bed2r1jS272m+MiuKtvE9M35Obm5u7YVd3Wx7JE3bdACiHYe7vqUN6aN9NSp/EKWZyz+8gFLgn1Uadve1rO7NuUlT7X6XQ60xbn7Dt5p6f/x68WORhuD3BRBznAmcvQiDypCvz/7d19lBx1nS7wiu520EzQTVAT0ExcTUAMuBAURuXFIwQDQSBeXIMsQc/ecw83RC9hLxrQBMUwYTIJyZC3mSRMJskkhLyRNxJikpkkM5OE6T2Ki7hH8I/1HqN3RcMer+IBDnNPd3X/qqb6ebqqe6qru7qf/CHVT1dX/erT/ft29Xyt7qA33fNI55OmBgZZqM06GfSFpfUkUEUCqpPVff7sfn6r6GWrQ5FApALueRTu+aTat5E+kdqZBIILlG7aB/kkZtaJxUcyM1p7IRZjdj+/wV8VWlMCEnALuOdRuKdHnqqS/2Ysao7nEGI0Zvez7H72tSwBCQQXcM+j6v7zU3xrnRl5QfXZ/cwGfz3kWbO/83+kO3lj7mg9nbPaxq9d8LeWZX1kxhpzV9ONH0wnT6ye/bnRqQ7goH8jJ361rcvdirO3MGLqgnXfva4+1asb9C/x0WkLc9qQh1bf0zA6ke4uDlp51KUznshtyh5tv/+q898zaMX0jZETb1s8uCHds/3RG8a/L3fN4fXXP+xtdvZteuALaAzW8Prrf7Dd3RkNvmYy2bVh1mfH5SDYIxr1mfvWuprZfY9ed55lWX8/4/F5113gjLnu+nnfuS69hXF3PZX7fCWPLr419aQkLv7fu3N7q6nnsH/9N8Y4mzNL9tbM073CPN2pha4N94PnzrLqJty6YJdrzMlkErdv4XM0vP767868Kqd9W4jnoFEWdsM9j3Q+aWpRkIWC6pVng5E91v38FvbK0NoSkEBWwD2PVCc91Sz/zchqnWcYBe3X/fxmn3P9VwISKEzAPY/CrZNq3xb2TGhtCUQmULpp73lTz3+zoLd8z6b0WA+I+6b7+Y3sRaUdSaDKBNzzKNzTI/ds9V1WrfMlMisUYeV+lqvsBazDkUBkAu55pPatqUj5F4qoV2aDkT3W/cyG8nIqrn07cuzYOssaWX/VnXPmNbe0LJj7jRsufL/dDPzw9BWulp7dEUyMHTvashLnT75t9vxFLS3N8+679ZOj35Vef9TU5sOuA+le9ZWL0u3JxPmT//Gh5tWdnZ3tLT+4e8rH61JrJ/5++pIu19o9nXM+OTK9nboJX7rv0Zb2TZ3tbfNmfnFcuvt7zqR7N2evBu7fPu+q896d2oZZs7Nt0Zw7Lj/vHMuyho2+8uHU9cGZfz1t96Rb2onx1977SMtTnZ3bO9ufnDfz6rHZze4ofM1kct/3P5vqfFuJMVdM/1+PtT6VOrTWJ+fdd9OEkeledWLCtzpNRzbTvj2vvr7OshKjx01umDxp7Lkfnrakt6vpmvQhD3a2B9T96HUfsizrPQ0P5/a57TX6D3Y0z58/f+5tE4YNs6zERdMenJ/6t2hzqumO2re9T8+6xG7Tj7pkmj3s9tULvnXzpL9LP31jpi5wrsyG7dv+PfOvcj1Hre2d7a2Ns6Z9Mv2Eprfhuvo2uHz2GSjyv+55pPNJU8eCLERW6zyDKWi/7ue3yJeIHiaBmhdwzyPVSU9Fyn+zoHrl2VRkj3U/vzX/YheABIoUcM+jcOuk2rdFPiV6mARKLVC6ae85Ich/M7LTBc8wqn6/7ue31K8lbV8C1Srgnkfhnh55KlL+m1VfrzyHH/Hxup/lan0l67gkUGoB9zxS+9ZT09jNiGudGUZB+3U/s6G8iopr31qWde7kb5vmaGokvU/ffeHIVDtu9NTl2aap6QhaVuITM1e6O6/9e+Zfnu7qvffaH5i8p+3r6WtDExdNXzK4Adm3afbn0g2/MXesPp498H3fuSLVREw3X91XxCYPPPbldMtxxBczzcV937niA3DN/oNLbx6fusL4fQ0PZq8D7lt6S71lWedM+nY2yexw90NXp8cw7pub7D5r8DVTl73aLeHPzHk6O/7Mf3vaM3d96j5zV6Z9m3a+N91bTSaTfV0p2O6mGz+SOpaxt65xnFOb6j9o/6LtCP9ftMW/fQvat5tmX5bupo+ZumDXoGH37sxcFjz6+iXO9da5V99mRmvVXfatQZc492164POZDq7Tvi3Ac9BgCr/hnkc6nzS1KMhCQfXKs8HIHut+fgt/degREpBASsA9j1QnPdUs/83Iap1nGAXt1/386hUvAQkUJ+CeR+HWSbVvi3tG9CgJlFygdNPe86ae/2ZBb/meTemxHhD3TffzW/IXk3YggSoVcM+jcE+P3LPVd1m1zpfIrFCElftZrtIXsg5LAiUXcM8jtW9NRcq/UES9MhuM7LHuZzaUl1Gx7VvTwnRG8ewDV6a/C/ey7x0wV7JmOoKDe7r2Q7q//9lUj/VdE+/aktlG5uLR3MZk+v6n774wdaXs+6cstNu9/dsfsC8h/cycnc4gMku7Zl10bqJuzKUzV/Ymk9ljTFw5N3fN5NHHpqb7iB//9jZ72JmBnTPZNHSzm+/a8KM5c+c3L9uRaVgGXzN5YPHMhskX1tff5OptZzebXHf7B/7GsqwPTzffWmzat+BLkrNN7lG3tphOdmpTux+6OuVf5+6nml0MXgjYvu1dd3N6YB/Mmru3kmrAD09dwnvl3H3Z3Nu+zXaUrY/NdL5/O7vyrlmXpL/L2mnfFuCZ3UiR/3XPI51PmjoWZCGyWucZTEH7dT+/Rb5E9DAJ1LyAex6pTnoqUv6bBdUrz6Yie6z7+a35F7sAJFCkgHsehVsn1b4t8inRwyRQaoHSTXvPCUH+m5GdLniGUfX7dT+/pX4tafsSqFYB9zwK9/TIU5Hy36z6euU5/IiP1/0sV+srWcclgVILuOeR2reemsZuRlzrzDAK2q/7mQ3lVZRtbRb227fW6Ftz23EnHpuabt+6f3g10751X2Jrhr3qK+NTV5HWf7XDjnpX3Xxu6vuNXV1Ms25qYd2dE9JX92Z2/ZzdrUxchn/ntdf5CudtoK/s2nK2l2mauxvvuTj9rb4jLpzyPx9r320uDnY9JrMYfM3cxzpJ18rbz09dAfyh3PbtoEuZzSM2fm18SnpwV3Xf/ZemuqEfmrbEOXLzCM9C9pAHX6frvfo2+0O5I6Y2H/NsIH0z0391Pbne9m3P4lvt65XhL/Vm+/1XNh7N/F5yOJ5orJ7MPY90PmlqUZCFguqVZ4ORPdb9/Hqeet2UgAQCCrjnkeqkp5rlvxlZrfMMo6D9up/fgC8JrSYBCXgE3PMo3DpZkvbtE83NZsSnT5ufbPEclG5KQAJU4PTp02YSPdHcHO6097yp579Z0Fu+Z1N6rAfEfVN1kr76dYcEggmoTtZIjVW1DDYhtJYEqICnWqp96z4fy7McixobeoUsrn07bOK92Utmnddh/5O3pXp1iYv/xfkd2UxH0NWYdNa327Gmfdu/Z+4nU1dzWiMnXjUF/btmYuoLkK1E5ureVV/5uP1dzbmNZGcf6aWlt1yQfuCYK9Bmp0z5tP2jtqZt3H+w6Qb7h3LTXVyrbswl194+e/6yzQd7PFsOvqbrgd17Ote3ND8yd843Zky7sWHS+LpUKzb1z6WUufp2+MR7ze/suraQ3HjPp1IPqLvaND6z1yK7v1za/YjBy8Hat0ce+WJ6aCPGN9yA5K6bNDbVbh/mDNLbvjUN2h9mG7TucfQ/eUfq+mvn6ttkUZ7uTQZa9lRIfe7OUxVz76rNOhnohaWVJFBFAqqTsah1nhJd0JhDP5+sope/DkUCgQRKWictez6H+7+rV6wwnafjxwd9h0+gI9ZKEqh5gRPHj5tJtHrlynBnqLZWCQKqkzU/ywUwVAHVyUooZRGMQdVyqFNFj695AVXLCCpVuXYReoUsrn17ziTQVszTvv3IDNBjzbRvx2auvs2OxG5l8v9NXGx/y/HSG88fdPEunfjdj153Ht+cc8/7pywx2+jZ88Td134s8+Osziojxjfc9kjnEbNaMpkMvmaya8u8O6+ur0u1qN3/EqPHjk6kwtz27Xsme39/1951//bvplvdI8zls/Z1q8Pq78pcyuweYu5ysPZtpvnqHitaHpZ9BpNJb/s2czVt4volPZnra91jyfwesKt9W5ine1uFLKtClqt8Rbbf0OtkIa8vrSuBahBQnYysXpVrR6uWLzd/gu5zfWFJNbx8dQwSiESgpHWyJO3bjvZ2M+2PHD4ciZJ2IoGqEjj84x+bSdTR3l6ut3Dtt3QCqpNVNWN1MOUQUJ0sXYGqqC2rWpZjemmfVSWgallRNS3cwYReIbNN08K+PLmU7dvEpdO/tyDfv2U7elO9QPua2tQP5fpM38yVrMPGXj17/o/ybPix9uc8W+o9uGXZ/G9Nn/Lp+tHDncZlYsI3273/h3X/NbtW3j5+hL2RRN2YSZOvmTb97jlzf9Taubu3d8PXLsBfnszat8nkoe9c8XeWZb2n4eHnU4POXOV88X1Pew4B3wzWvs38mK417ktz5uVxW9C8Mfv90t727abZl6UOOXH1wsDtW3vA/p74wAKlqpDhFqUK3FrodTLQC0srSaCKBFQnK7CyhTuk9evWmT9BH+vurqIXrw5FAhEJlLROluTLk3ft2GGm/YHnvB97ImLTbiQQZ4Hn9u83k+jZnTv1JU6erwHJf9M+j8m/Drs3sseqTsZ5gmrsFSGgOhlZvfIUzIj3q2pZEfNNg4izgLtabtu6VV+e7Klp7GbEtc4Mo6D9hl4hs+3bUXe05v4EUqYb5752tunGD1qWVZL27cH5l6e+PDnxD3N2Bpl/2Ss7cWuwZ8/m9s7dB9ONXvtHdq26qcvTN4NsPGedvt3tS+6/5R/s63GzTdOctVIBXLMv81XP1pjPz1mbbri6H7vu9g/8Teq3bKetyKaZljNv3yYPPPKl9FdVp75Kur/t62PSX1uNfwY4u1Hnv8Hatz2Lb0p/efI4+Mu1ztacJW/7NvP1y4O+T9tZO/PLuIOvvnXuzixBz5y1CgncFVKfu00hCrhQUL3ybDOyx4ZeJwt5fWldCVSDgOpkZPWqXHVyx7Zt5k/Qh3UZXjXMWh1D1AIlrZMlad8eOnjQTPvdzz4bNZj2J4H4Czy7c6eZRD8+dEjtW89JTP6bsTi1Up2M/zTVEZRZQHUyFrXOU66LGLOqZZlnmnYffwF3tdy3d6/at566xG4WUa/MpiJ7bOgVsr9zzoRhwyxrxNTmY57Xvvkx2mjat+YS0nMmP5jT4EwNbdsj/zR9xqw581ftTQ800/yzxtzV6r0WNpnss1u2w+rv2pJMHsj8hiv5XdiulbOmz5h533cfs78VuXfnsrmzZ06/5QGw2UPf/2zq11ozXxccfM3kutvPT11fCw+tP9O3tj40zXx7s3/7Ntm17IZz35365di5O1fdOYFt3POcZm4Ga99mv6LZIhf17lt0z3+bMXPWQy3P9Ga2623fZl9diavn78sdybo7P5G+NvfKzC/4FuCZu7ECEneF1OduU8QCLkRW6zzjKWi/odfJAl5eWlUCVSGgOllQzRlKvSrXYw8+95z5E/TePXuq4mWrg5BApAIlrZMlad/2njhhpv2mDRsi1dLOJFAVAhs7Oswk6uvtVfvWcxKT/2YsTq1UJ6tipuogyimgOhmLWucp10WMWdWynNNM+64KAXe1PHrkiNq3nrrEbhZRr8ymInts6BXS9A4/NtPzJcR9G+/5VPriSyuq9m0y08+zxt3R4v09pv6DC6457912k9Ju3ya7mtL9S+uDU37obfd2LbshvfJHZqzoTSb7Dy64auS7LMs6d/KDO7xzvG9d5jBNczfTav3glIXZ7wQ2j8n8jO7wifZP/wZfM9PXfO+1P8jZphmA5frx3QDt22Tf0lvqLct6b8NtN4//W8saAVukZuiDFoK1b5PJXfdf+r5Uh3X01Y0HXxi0hWTy6JN3pC75taxPzDS/t+tt3yaTu2ZdktrC8IlfXT/40uf+g0vt58hyrr4N7ukZS2E33RVSn7tNEQu4EFmt84ynoP2GXicLe4VpbQnEX0B1sqCaM5R6Va7HHj92zPwJunPjxvi/ZnUEEohaoKR1siTt21dfecVM+6VLzP9pNGo47U8C8RV4ornZTKJf/epXat96TmLy34zFqZXqZHynp0ZeIQKqk7GodZ5yXcSYVS0rZMZpGPEVcFfLF198Ue1bT11iN4uoV2ZTkT22BBVy16yL3pPqwtVdfFfLs5nLKHt3Lrvv2rGJYen2XHTt2/6DTXaP1qq7+OvNu7LXdCZ79jzxtUtGpQdjmqypCbpp9mXpBvOIS2c8sdd0B7s23P/Z89NHdNnDe+ymo2mRJi649sH1Tieye9NDU+zDPHfyg5mucDK58Z6L05sd9fk5a13d1r5tj9wyLmWSMFejBl4z81O1VuLib7YfcWpL775l912bup43/e+91/4ge8hB2rfJnvZvpBuo6cHWXb+kK/WTwIH+BW3fJo8+eafdoz1n4k2P2Fcnp3dwoPX+y89LdcSt0de7Oru57Vuny/uBhm+vz46wZ8+K7BOaun44c/VtIfKBDpOs5K6Q+txtiljAhchqnWc8Be23BHWSvJgUS6BKBVQnC6o5Q6lX5Xrsv//iF+ZP0CuXL6/SF7IOSwIlFChpnSxJ+/btt99ufvxxM/O7u1wfc0oIpU1LoEoEuo4eNdNnyaJFb7/9ttq3npOY/DdjcWqlOlkl01WHUSYB1cnaeV9QtSzTJNNuq0TAUy1fe+01tW/zn0aae2v2fPLAY1/OdhATI8dOmDjx/NHpxu25k++ddV3ql24ju/o2mUwebf3vl6evlLUsa+TYCZMbGiZPGl9nXwVsjfrMfWuzDU57wu6bd+NH7TsTdeMmpda+0B68lRgzdcEu16ze96MbJ2Q2kxhVP+mqhobJE8eeY/dNh9fftMTp6SaTXWvvvnCkfVdi9LhLGhrSK59rJyMn3etcSBp4zZ62e9KtX8tKjLqw4YZp06ZNufaK+rpUg/zcSbfd3nBe6juZMxf1pn5A99HrUkme375NH9rTd390uD2qD01bMljGdei5i4Hbt8lk36aHvmB3cC0rcf7EyxsaGi6vPy8jWTfhrlb3ddKgfZtM9j01+3P2bwZbiTEXpp6jj6afoxGXNExOvfBc7dsC5HMPKljiqZD63G0KYMCFmq2TwV5fWksC1SCgOlkLn7vffPPNRQsXmj9E9/X1VcNrV8cggagESl0nS9K+HRgY2L51q5n2O7Zti4pL+5FANQhsf+YZ9/SxPzvF4qOR52OexuwB8dxUnayG6apjKJOA6mQtfIw0NVPVskzzTLutBgFPtdS5mSksvgtxsSpBhezbtuDuq87PtCdT7cDEmCum/3BHb+/SWy6IuH2bTCZ79qyYdeOnMl1YuzlpJc6beM1sc3HwoJl66Km5t18+Nn0BsbPy9f/S+tygtVI3ujfN/6er6tPfBpxZ0z7S723OXhXqPKRry7yvXGmuP4RyGSEAAB9OSURBVM6sXjfuupmP7zCX+dprB15zd8s/e/Y+fOzlX56z8vlk8uhjU1MNzsSEb2/LXC4crH2bfGb2Z9Kd1EEXJTtHwZYKaN+mNnGg9cGbJ38407LNWIwY3/CPj20/MXgPsH2b6kZva/7naya+36hbdeO+MGftgdZ7Uo1hd/s2mUwG9hy866C3PBXSLgtxmfvuIqYxuzVyl0tQJ4O+xrSeBOIuoDpZI5+7t3R2mj9E79yR8+MScX8da/wSKKVAqetkqdq3P/nXfzXTfs3q1aUk0rYlUG0CrStXmunz05/8RB8jcz+A5U/i8vFVdbLapq6OJ0IB1cka+RhpV3tVywjnlnZVbQKeahmXcyT3mZ7G7NbIXS5Zhew7uH19a0tLa3vnntx2ZvQTpff57e1trS32gHr89p8ZfEtLa+eeo/lX7tqzub31ydSGO7d1eXqxnkf2du/pTI2hObXy7nzfMBZ0zew4W1vbtx8t4HpZz8CyN5994MqEZQ2r/6r5+dnsPeH/t7drZ2dr+glp3VTUK6Sva89m+wV2MD97MpkM6lnwYXoqpD2/VHNy6wxL4mJVsjpZ8EtOD5BA7ARUJ2vkc/cLp0+bP0SvWrEidi9UDVgCZRQodZ0sVfv2T3/6k5n2TY2N3d3dZUTUriUQI4Fj3d3uufOXv/xFHyPZx0WWx+VjpOpkjCamhlpRAqqTtfa+oGpZURNQg4mRQG61jMs5kvscT2N2a+Quq0LGaEqWeKi7Zl2Uumba/BZviXcX+83nVshaO7+qneNVnYz9dNUBlElAdbJ26uQfXnvN/bfo48ePl+lFp91KIGYCEdTJUrVvBwYG2tetMzN/bVtbzOw1XAmUSWBNa6uZOB3t7eZvNPrTlaHwXYiRlepkmeaZdhtvAdXJ2vkYaQq+qmW8J61GXyaB3GoZo3MkM/01ZkPBFlQhyzTDKmu3Bxbfmv7y4cse3mN/5XJlDa8CR5NbIe0ppprDSk1uHiMr1ckKnIMaUuULqE7W1PvCxo4O8+foTRs2VP7rUyOUQCUIRFAnS9i+/dmLL5pp39TYePjw4Uow1RgkUMkCPz50yD1rXvq3fzOfkWL00UhjNgK+C6qTlTwfNbbKFFCdNIWlpt4XVC0rcz5qVJUsAKtlTdWNGvmyu4GBAVXISp6JJR5b9+oH7poxc+aMaZ+2f5r3w9NXDP1LmEs85orYPKyQ9imW6qQ51fRdiJGV6mRFTDwNIlYCqpOmBsao1g1lzL/+j/9w/0X6yJEjsXrBarASKINANHWyhO3bgYGBdW1tZuavXL68DIrapQRiJbCipcVMmfXr1pn33dr585M55Bo5PVKdjNUE1WArQkB1sgbrpH3IbatWmbdInVVWxGzUICpbAFbL2jm/sutG7RyvPndX9nQs3ej6lt5ygZX9N7z+tuWV8EPFpTvc8LYMK2St1Y1aO17VyfAmkLZUEwKqk3aRrKm/xz69ebP5xL1KfZyamOg6yCEJRFMnS9u+9fwfN3Zs2zYkEj1YAlUtsP2ZZ8zbZFNj45nf/MacK9TU6UKtfYxUnazqaa2DC1lAdbKW3xde/vnP3e+SOqsMeXZpc9UlwKpl7bQzdT5ZXa9oHQ0V2P3YVyZPHF8/cdJ107+z/qC+NplCue9gFbLW6katHa8+d7tngZYlkF9AdbI2P3f/5je/cX/ifm7//vyvE90rgVoWiKxOlrZ9OzAwsHP7dvfM11co1/LLWseeR8Bzuf2eZ591nyuofevRyH8zdn+aVJ3MMzV0lwSMgOqkp/TFrtYN/b1s65YtOqs0M0ILEmACeaplDdaNs2fPeopnwJuxs9L5JJsRyiXgFshTIe3iELu5P/TzK9VJ9ytEyxKQgOqk51yxpt4Xtm3daj5xP9Hc3Nur32RQSZAAEIiyTpa8fftfr7/e/PjjZuYvWbRIMx8854pqW6Cnp2fxokVmmixuavp/f/pTLZ8u1NpHUNXJ2i4AOvpAAqqTnjeFWquT9vH+n1//WmeVgSaMVqphgfzVsqb+/FRrdVLnkzU873XoQQXyV0i1b3PPNvMnsXtPUZ0MOlW0Xg0LqE7m1r3Y1bqhnAP/1+uvL3H9gXp5S8vpU6dqeELo0CUABCKukyVv3w4MDJw6edL0pZoaG1ctX97f3w8OXZEEalLghRdeWPHkk+458vJLL9X46cJQTjVi+ljVyZqc/TrooAKqk7lvCjGtdUP/6PuzF190v2PqrDLoLNJ6tSHgWy2HPgdhOfINtV9fIrPCUKx0PlkbE11HWaSAb4W0p+FQ5qAea0qZ70K5rFQni5w/elhtCKhOwtpVrnpVrv2++NOfuj9xt61aVRsvfx2lBAIJRF8no2jfnj179rl9+9wzv6O9PZCHVpJADQisf+op9+zo7urS6UJttiVUJ2tguusQixRQndT7gvt94ejhw+73TZ1VFjmv9LBqFPCtluX6M5D2C8s4DIdopfPJapzZOqZwBHwrpD0lhzgHa+eLiN3nZrCa5Q/L6Kw6Gc6M0laqUUB1EhauMtarcr2nHNi/f9An7vXrq/H1rmOSQDEC0dfJiNq3f/zjHz0/V9a2atXJkyeLQdJjJFAtAidPnly9cqX7HXHHM8/Ac4X4fjQq16lGHPerOlktM1vHEaaA6iR7U6jl94V33nlHZ5VhTjNtqyoEAlbLGvzzUxzPCYcyZp1PVsWE1kGELBCwQtonXaqTeU4+PXfF1Ep1MuQJps1VhYDqpKe+uW/GtNYN5XzyD3/4w45t29x/r25bvVp9nKqY6zqI4gVOnz7dtnq1e15E08eJqH179uzZN998c21bm/sIW5YuPX78ePFmeqQE4ixw/NixlqVL3TOife3at956y32K4F6uwdOFoZxqxPSxqpNxntMae/gCqpPud4Hc5Vp+X1C1DH++aYtxFgheLWu5buRW0fxJfK1UIeM8mzX28AWCV0i7JsR37uevaeze2jxe1cnwZ5q2GGcB1UlWIWv5feGtt95av26d+6/W6uPEeZZr7EMV6OvrWzn4ty8j6+NY9rlaNP975syZdWvWuGf+4qamQ88/P1Q/PV4CcRM49PzzzU1N7rnw1Jo1Z86ciWYmai+VLKA6GbfZrPGWSkB1spIrVSWMTdWyVHNP242bgKplJVSkShuDKmTc5rHGWyoBVchKq06VMx7VyVLNOm03bgKqk5VTlyptJKqTcZvNGm+pBA4eOLB08WJ3H2dta2tkfZxI27dnz579/e9/7/m+u6bGxo729p4TJ0oFrO1KoJIEek6c8HxJelNj49YtW1577bVKe5/WeMoloDpZSVNWYymDgOpkuYpP7ParalmG+aldVpKAqmXsqlaUA1aFrKTJqrGUQUAVMsqCE9N9qU6WYWZql5UkoDoZ09oV5bBVJytpymosZRA4ffr0hvXr3Y3bpsbGjR0dv//P/4xsJkb35cnuLyI4cfy457AXLVzYuXFjX19fGZ4H7VICkQj09fZu7OjwvPKbGhtPHD/unh1s2S4K7N78uR6b38d9b+VYqU5GMi+1k8oSUJ10lyPf5cqpV75DNSuUYsyqlpU1jTWaSASKrpalmINmgudZ0H7z4HjuCtdKFTKSGamdVJZA0RXSnozhzkHPBM9zU/vNg+O5K1wr1cnKmsAaTSQCqpOeqpL/Zrg1J/++3PdWzn5VJyOZl9pJZQmcOnly+zPPPNHc7Gnl7N+795133nFPVbgc4vwtT/t2YGDg33/xi8WDvzy2qbFx0cKFT61Zs2/v3tOnTlXWM6bRSKBYgdOnTu3ds2ddW9uihQs9E35xU9Mrv/wlnOS5YYjTPnfjeRLtNw+O567QrVQni512elzMBFQnPcUk4M3Qa05896tqGbM5r+EWKzD0aqm6EbDQDQwMVI2VKmSxE06Pi5nA0CukXR+qZu4HLHc6Xv19MmZTXcMdgoDqZMDC6FlNdXJgYODln//c8zdt++a6trb9+/apjzOEeamHVpZAX1/fwQMHNm/a1Pz4457X/NLFi3/24oue+sBuhlg3yta+TX0k/uMfd+/a5YEwN9etWbN/374jR44c6+7uOXHi5MmTlfVkajQSQAInT57sOXHiWHf3kSNH9u/d6/mxZ/Pybmps3L1r1+tnz7JJnpuHOO1zN54n0X7z4HjuKoWV6iSaZ8riLaA66S4dpagb7u2z5erbr6plvOuCRo8ESlEtq2/usypn5zrejIM+d6MppizWAqWokKob+Stq7r3VVGN1JhnrgqDBQwHVSXfVqqZ65T4utlyK41WdhBNNYawF+vr6jh8/fvTIkf379m3s6Hhy6VJ378a9vHP79j//+c9sxuXmIc7BcrZv7QP77ZkznRs2uDm0LIHqFtiyadP//d3vcid2/iTEaZ9/R557tV8PSJ6bpbNSnazumqCjyxVQncxTasxdpas5ZhdwoZL3q2qZO5uUVLdAodWykucvLDjVdBUsO0BPXrrnSBWyuquBji5XoNAKaU/G0s1Bz2T33NR+PSB5bpbOSnUydx4pqW4B1ck8pcbcVbqaY3YBFypzv6qT1V0TdHS5AsuXLfvFyy/DSZonDHH+lr99ax/nq6+8kuc6xVw4JRKIo8Ca1auDX2XvKQEhTnvPlvPf1H7z+7jvLbWV6mQcZ73GXKiA6qS7quRfLnXNYXuv/P2qWhY677R+HAWeWrPmV6++yuYpyyt//uaOXGPONWFJECtVyDjOd425UAGdT7IqkZsHqRu5j7KTan2s6mShM07rx1FAdZJVtty8Wmtd7pEGr+2qk3Gc9RpzoQIbOzpOnzr15ptvssmSJw+xblRK+9Y+2t+eOdPb07Oxo6NQTa0vgUoW2NTR0dvT87vf/jbEqZunQOTepf3mmrCk8q1UJyt5smtsRQuoTrKilCev/HqVO/gox6xqWfR81AMrWWBTR8eRw4df+eUvc+dXkCTKOegej/br1si/HI2VKmQlT3ONrWgBnU/mLy/w3mhqTu6uK3+/qpNFz0Q9sJIFVCdzy5FvUvn1KvcQohmz6mQlT3aNrWiBLZ2dL5w69frrr0czj3znb2W1b81w33jjjZ+/9NKxrq5dO3Zs3rSpo7191YoVSxYtKtpdD5RABAJLFi1avWJFR3v79q1b9+/de6yr6+WXXnrjjTfMC7tCpr0ZT5AFjTmIkr1OxFaqkxFMau0idAHVSU9JibhumL3X1H7feOON/hdeeP7Agf17927bulVnlaHPa22wFAJ5qmVNzV99ebKp20EWinht6HyyFPNX2yy1QJ4Kac+UIuaCmWJ6rKHwXagRK9XJUs9obb8UAqqTngpWI/XKHHXEx6s6WYpZrG1GILB82bI1q1dvWL9+144dfb29v3r11b/+9a/lmkdsvxXavmXDNXmQhYhLlRmS9msofBdk5UtkVpCVofBdkJUvkVlBVobCd0FWvkRmBVkZCt8FWfkSmRVkZSh8F2TlS2RWkJWh8F2QlS+RWUFWhsJ3QVa+RGYFWRkK3wVZ+RKZFWRlKHwXZOVLZFaQlaHwXZCVL5FZQVaGwndBVr5EZgVZGQrfBVn5EpkVQrRS+9aoDloIkXjQdv1uaL9+Qs79snIs/JZk5Sfk3C8rx8JvSVZ+Qs79snIs/JZk5Sfk3C8rx8JvSVZ+Qs79snIs/JZk5Sfk3C8rx8JvSVZ+Qs79snIs/JZk5Sfk3C8rx8JvSVZ+Qs79snIs/JZk5Sfk3C8rx8JvSVZ+Qs79snIs/JZk5Sfk3C8rx8JvyWOl9i0G8zDhlUiqxxIYEMsKoJBIVgQGxLICKCSSFYEBsawAColkRWBALCuAQiJZERgQywqgkEhWBAbEsgIoJJIVgQGxrAAKiWRFYEAsK4BCIlkRGBDLCqCQSFYEBsSyAigkkhWBAbGsAAqJZEVgQCwrgEKiEK3UvsXGIRLjHZBU+yUwIJYVQCGRrAgMiGUFUEgkKwIDYlkBFBLJisCAWFYAhUSyIjAglhVAIZGsCAyIZQVQSCQrAgNiWQEUEsmKwIBYVgCFRLIiMCCWFUAhkawIDIhlBVBIJCsCA2JZARQSyYrAgFhWAIVEHiu1b7GThwmvRFI9lsCAWFYAhUSyIjAglhVAIZGsCAyIZQVQSCQrAgNiWQEUEsmKwIBYVgCFRLIiMCCWFUAhkawIDIhlBVBIJCsCA2JZARQSyYrAgFhWAIVEsiIwIJYVQCGRrAgMiGUFUEgkKwIDYlkBFBKFaKX2LTYOkRjvgKTaL4EBsawAColkRWBALCuAQiJZERgQywqgkEhWBAbEsgIoJJIVgQGxrAAKiWRFYEAsK4BCIlkRGBDLCqCQSFYEBsSyAigkkhWBAbGsAAqJZEVgQCwrgEIiWREYEMsKoJBIVgQGxLICKCTyWKl9i508THglkuqxBAbEsgIoJJIVgQGxrAAKiWRFYEAsK4BCIlkRGBDLCqCQSFYEBsSyAigkkhWBAbGsAAqJZEVgQCwrgEIiWREYEMsKoJBIVgQGxLICKCSSFYEBsawAColkRWBALCuAQiJZERgQywqgkChEK7VvsXGIxHgHJNV+CQyIZQVQSCQrAgNiWQEUEsmKwIBYVgCFRLIiMCCWFUAhkawIDIhlBVBIJCsCA2JZARQSyYrAgFhWAIVEsiIwIJYVQCGRrAgMiGUFUEgkKwIDYlkBFBLJisCAWFYAhUSyIjAglhVAIZHHSu1b7ORhwiuRVI8lMCCWFUAhkawIDIhlBVBIJCsCA2JZARQSyYrAgFhWAIVEsiIwIJYVQCGRrAgMiGUFUEgkKwIDYlkBFBLJisCAWFYAhUSyIjAglhVAIZGsCAyIZQVQSCQrAgNiWQEUEsmKwIBYVgCFRCFaqX2LjUMkxjsgqfZLYEAsK4BCIlkRGBDLCqCQSFYEBsSyAigkkhWBAbGsAAqJZEVgQCwrgEIiWREYEMsKoJBIVgQGxLICKCSSFYEBsawAColkRWBALCuAQiJZERgQywqgkEhWBAbEsgIoJJIVgQGxrAAKiTxWat9iJw8TXomkeiyBAbGsAAqJZEVgQCwrgEIiWREYEMsKoJBIVgQGxLICKCSSFYEBsawAColkRWBALCuAQiJZERgQywqgkEhWBAbEsgIoJJIVgQGxrAAKiWRFYEAsK4BCIlkRGBDLCqCQSFYEBsSyAigkCtHKsrel/5WABCQgAQlIQAISkIAEJCABCUhAAhKQgAQkIAEJSEACEpCABCQggfIKqH1bXn/tXQISkIAEJCABCUhAAhKQgAQkIAEJSEACEpCABCQgAQlIQAISkEBGQF+ejK9wtnnwfX6pHusn5NwvK8fCb0lWfkLO/bJyLPyWZOUn5NwvK8fCb0lWfkLO/bJyLPyWZOUn5NwvK8fCb0lWfkLO/bJyLPyWZOUn5NwvK8fCb0lWfkLO/bJyLPyWZOUn5NwvK8fCb0lWfkLO/bJyLPyWZOUn5NwvK8fCb0lWfkLO/bJyLPyWQrRS+xZjh0iMd0BS7ZfAgFhWAIVEsiIwIJYVQCGRrAgMiGUFUEgkKwIDYlkBFBLJisCAWFYAhUSyIjAglhVAIZGsCAyIZQVQSCQrAgNiWQEUEsmKwIBYVgCFRLIiMCCWFUAhkawIDIhlBVBIJCsCA2JZARQSeazUvsVOHia8Ekn1WAIDYlkBFBLJisCAWFYAhUSyIjAglhVAIZGsCAyIZQVQSCQrAgNiWQEUEsmKwIBYVgCFRLIiMCCWFUAhkawIDIhlBVBIJCsCA2JZARQSyYrAgFhWAIVEsiIwIJYVQCGRrAgMiGUFUEgUopXat9g4RGK8A5JqvwQGxLICKCSSFYEBsawAColkRWBALCuAQiJZERgQywqgkEhWBAbEsgIoJJIVgQGxrAAKiWRFYEAsK4BCIlkRGBDLCqCQSFYEBsSyAigkkhWBAbGsAAqJZEVgQCwrgEIiWREYEMsKoJDIY6X2LXbyMOGVSKrHEhgQywqgkEhWBAbEsgIoJJIVgQGxrAAKiWRFYEAsK4BCIlkRGBDLCqCQSFYEBsSyAigkkhWBAbGsAAqJZEVgQCwrgEIiWREYEMsKoJBIVgQGxLICKCSSFYEBsawAColkRWBALCuAQqIQrdS+xcYhEuMdkFT7JTAglhVAIZGsCAyIZQVQSCQrAgNiWQEUEsmKwIBYVgCFRLIiMCCWFUAhkawIDIhlBVBIJCsCA2JZARQSyYrAgFhWAIVEsiIwIJYVQCGRrAgMiGUFUEgkKwIDYlkBFBLJisCAWFYAhUQeK7VvsZOHCa9EUj2WwIBYVgCFRLIiMCCWFUAhkawIDIhlBVBIJCsCA2JZARQSyYrAgFhWAIVEsiIwIJYVQCGRrAgMiGUFUEgkKwIDYlkBFBLJisCAWFYAhUSyIjAglhVAIZGsCAyIZQVQSCQrAgNiWQEUEoVopfYtNg6RGO+ApNovgQGxrAAKiWRFYEAsK4BCIlkRGBDLCqCQSFYEBsSyAigkkhWBAbGsAAqJZEVgQCwrgEIiWREYEMsKoJBIVgQGxLICKCSSFYEBsawAColkRWBALCuAQiJZERgQywqgkEhWBAbEsgIoJPJYqX2LnTxMeCWS6rEEBsSyAigkkhWBAbGsAAqJZEVgQCwrgEIiWREYEMsKoJBIVgQGxLICKCSSFYEBsawAColkRWBALCuAQiJZERgQywqgkEhWBAbEsgIoJJIVgQGxrAAKiWRFYEAsK4BCIlkRGBDLCqCQKEQrtW+xcYjEeAck1X4JDIhlBVBIJCsCA2JZARQSyYrAgFhWAIVEsiIwIJYVQCGRrAgMiGUFUEgkKwIDYlkBFBLJisCAWFYAhUSyIjAglhVAIZGsCAyIZQVQSCQrAgNiWQEUEsmKwIBYVgCFRLIiMCCWFUAhkcdK7Vvs5GHCK5FUjyUwIJYVQCGRrAgMiGUFUEgkKwIDYlkBFBLJisCAWFYAhUSyIjAglhVAIZGsCAyIZQVQSCQrAgNiWQEUEsmKwIBYVgCFRLIiMCCWFUAhkawIDIhlBVBIJCsCA2JZARQSyYrAgFhWAIVEIVqpfYuNQyTGOyCp9ktgQCwrgEIiWREYEMsKoJBIVgQGxLICKCSSFYEBsawAColkRWBALCuAQiJZERgQywqgkEhWBAbEsgIoJJIVgQGxrAAKiWRFYEAsK4BCIlkRGBDLCqCQSFYEBsSyAigkkhWBAbGsAAqJPFZq32InDxNeiaR6LIEBsawAColkRWBALCuAQiJZERgQywqgkEhWBAbEsgIoJJIVgQGxrAAKiWRFYEAsK4BCIlkRGBDLCqCQSFYEBsSyAigkkhWBAbGsAAqJZEVgQCwrgEIiWREYEMsKoJBIVgQGxLICKCQK0UrtW2wcIjHeAUm1XwIDYlkBFBLJisCAWFYAhUSyIjAglhVAIZGsCAyIZQVQSCQrAgNiWQEUEsmKwIBYVgCFRLIiMCCWFUAhkawIDIhlBVBIJCsCA2JZARQSyYrAgFhWAIVEsiIwIJYVQCGRrAgMiGUFUEjksVL7Fjt5mPBKJNVjCQyIZQVQSCQrAgNiWQEUEsmKwIBYVgCFRLIiMCCWFUAhkawIDIhlBVBIJCsCA2JZARQSyYrAgFhWAIVEsiIwIJYVQCGRrAgMiGUFUEgkKwIDYlkBFBLJisCAWFYAhUSyIjAglhVAIVGIVmrfYuMQifEOSKr9EhgQywqgkEhWBAbEsgIoJJIVgQGxrAAKiWRFYEAsK4BCIlkRGBDLCqCQSFYEBsSyAigkkhWBAbGsAAqJZEVgQCwrgEIiWREYEMsKoJBIVgQGxLICKCSSFYEBsawAColkRWBALCuAQiKPldq32MnDhFciqR5LYEAsK4BCIlkRGBDLCqCQSFYEBsSyAigkkhWBAbGsAAqJZEVgQCwrgEIiWREYEMsKoJBIVgQGxLICKCSSFYEBsawAColkRWBALCuAQiJZERgQywqgkEhWBAbEsgIoJJIVgQGxrAAKiUK0UvsWG4dIjHdAUu2XwIBYVgCFRLIiMCCWFUAhkawIDIhlBVBIJCsCA2JZARQSyYrAgFhWAIVEsiIwIJYVQCGRrAgMiGUFUEgkKwIDYlkBFBLJisCAWFYAhUSyIjAglhVAIZGsCAyIZQVQSCQrAgNiWQEUEnmsLPu2/lcCEpCABCQgAQlIQAISkIAEJCABCUhAAhKQgAQkIAEJSEACEpCABMoroPZtef21dwlIQAISkIAEJCABCUhAAhKQgAQkIAEJSEACEpCABCQgAQlIQAIZAX15Mr5K2ebB9/mleqyfkHO/rBwLvyVZ+Qk598vKsfBbkpWfkHO/rBwLvyVZ+Qk598vKsfBbkpWfkHO/rBwLvyVZ+Qk598vKsfBbkpWfkHO/rBwLvyVZ+Qk598vKsfBbkpWfkHO/rBwLvyVZ+Qk598vKsfBbkpWfkHO/rBwLvyVZ+Qk598vKsfBbCtFK7VuMHSIx3gFJtV8CA2JZARQSyYrAgFhWAIVEsiIwIJYVQCGRrAgMiGUFUEgkKwIDYlkBFBLJisCAWFYAhUSyIjAglhVAIZGsCAyIZQVQSCQrAgNiWQEUEsmKwIBYVgCFRLIiMCCWFUAhkawIDIhlBVBI5LFS+xY7eZjwSiTVYwkMiGUFUEgkKwIDYlkBFBLJisCAWFYAhUSyIjAglhVAIZGsCAyIZQVQSCQrAgNiWQEUEsmKwIBYVgCFRLIiMCCWFUAhkawIDIhlBVBIJCsCA2JZARQSyYrAgFhWAIVEsiIwIJYVQCFRiFb/HxvzvkNBmF0eAAAAAElFTkSuQmCC;" parent="1" vertex="1">
          <mxGeometry x="10" y="20" width="812.17" height="80" as="geometry" />
        </mxCell>
      </root>
    </mxGraphModel>
  </diagram>
</mxfile>
